<svg xmlns="http://www.w3.org/2000/svg" width="820.852" height="780.418" viewBox="0 0 820.852 780.418">
  <g id="Group_1036" data-name="Group 1036" transform="matrix(-0.602, -0.799, 0.799, -0.602, 282.24, 780.418)" opacity="0.27">
    <path id="Path_5659" data-name="Path 5659" d="M468.981,674.416c-3.171-.654-5.315-2.638-8.179-3.815-2.909-1.193-6.119-1.289-9.139-2.951-49.969-27.5-68.2-42.341-90.594-85.79-18.556-36-13.223-29.9-39.99-64.206-5.87-7.522-11.6-15.153-16.3-23.472-9.286-16.406-24.835-28.867-37.952-42.255,34.657,62.579,17.727,85.908,28.765,116.9,7.685,21.574,18.454,39.228,22.011,55.22,2.121,9.538,1.636,14.374,1.241,14.148.137.064-.747-1.25-.166-.549-.979-2.472-1.94-.526-4.138-1.356-1.939-.727-3.688-3.365-5.008-4.836-7.953-8.852-19.638-20.646-35.473-41.691-14.2-18.866-32-35.9-41.809-57.644-18.375-40.73-12.081-84.731-11.692-111.38.089-6.1,1.42-12.081,1.646-18.11.252-6.705,1.889,4.865-62.735-81.627,10.725,42.82,15.6,56.336,9.707,83.333-7.031,32.223-11.542,44.214-7.372,85.113,1.5,14.719,4.466,29.336,5.516,44.089.437,6.147-1.056,13.009.191,18.882,1.091,5.13,6.434,13.829,4.339,19.21-2.444,6.275-7.372,1.318-8.744-2.338-7.525-20.072-18.03-40.431-26.752-57.29-19.772-38.213-24.857-48.8-21.163-88.766-9.573,51.631-23.558,54.5-37.209,96.556-1.7,5.254-1.987,17.606-9.273,17.973-8.986.45-6.23-12.936-5.678-18.343,4.22-41.336,13.484-40.43,8.763-87.142-1.965-19.453-4.5-24.193-7.142-36.733-5.139-24.381-5.637-53.8-1.05-78.073,2.96-15.682,6.447-24.19,12.09-35.945,2.664-5.551,4.316-20.879,11.069-36.788,8.122-19.131,11.1-12.83,12.4-24.742.357-3.238-.035-1.684-4.785-15.178-2.249-6.39-4.37-13.433-6.543-19.443-6.221-17.657-13.746-34.832-19.494-52.655-4.874,15.9-2.865,6.871-3.429,26.229C62.4,245.014,27.253,280.736,39.783,372.775c1.627,11.963.893,31.754,2.322,30.828-.625.424-1.372-.842-1.633-1.193.932,3.563,4.906,15.724-3.343,13.928-5.318-1.158-6.37-11.838-7.65-16.183-10.4-35.311-14.489-51.427-18.6-89.918-1.566-14.674-5-28.969-8.007-43.385-8.329-39.907,2.6-96.451,18.19-133.618,10.859-25.887,20.71-64.48,25-80.826,1-3.809,3.327-8.32,3.592-12.218C50.011,34.9,46.626,31.1,48.176,17.8c.172-1.477,4.112-19.229,6.412-17.708a3.809,3.809,0,0,0-.163.686C53.437,5.57,59.4,12.02,63.4,28.768c5.35,22.4,4.22,23.131,5.627,25.144,1.518,2.176,4.051,2.887,5.407,5.634,1.943,3.93.772,8.418,2.268,12.205.635,1.6,3.474,3.254,4.887,4.495,37.569,33,63.45,38.826,90.616,60.662,17.867,14.362,32.829,32.289,49.178,48.294,39.537,38.7,51.918,64.748,56.441,69.447,11.959,12.419,17.635,13.822,19.842,18.448,1.49,3.13-.057,6.635-3.608,7.174s-7.733-2.386-10.693-3.965c-40.842-21.817-55.354-37.923-93.934-56.186C150.65,201.763,129.937,198.3,91.995,139.5c29.8,72.873,28.966,78.216,55.427,120.421,3,4.779,2.881-.163,24.994,4.954,33.365,7.723,38.73,10.285,48.236,15,26.462,13.111,16.027,10.058,40.326,20.888,17.727,7.9,30.6,13.018,43.4,26.554,3.41,3.608,12.693,8.709,24.783,18.863,18.062,15.169,29.4,21.211,50.367,38.826,3.956,3.324,13.363,8.578,10.7,14.923-4.967,11.851-17.631-6.119-73.246-25.858-51.5-18.279-89.257-15.532-130.4-52.821,13.88,19.37,27.377,38.893,42.405,57.4,36.124,44.495,20.439,32.127,32.861,34.36,12.977,2.332,51.857,26.066,74.149,34.079,10.036,3.608,20.113,7.694,29.119,13.465,13.79,8.84,37.288,29.46,49.847,46.428,5.851,7.9,10.61,15.631,15.325,22.991,9.238,14.428,13.548,18.783,17.711,27.262,2.568,5.228,10.3,10.253,4.546,16.773a8.113,8.113,0,0,1-8.291,2.262c-1.372-.44-2.125-1.385-3.283-2.1-4.275-2.638-7.612,1.758-22.758-15.335-27.887-31.466-39.193-57.373-125.062-102.655,13.417,14.2,25.75,29.581,40.979,41.885,33.138,26.784,57.982,44.839,81.12,80.156,26.8,40.919,40.281,52.211,47.248,75.125,1.081,3.56,3.608,6.744,3.589,10.5C466.087,665.343,466.595,673.924,468.981,674.416ZM32.207,277.667c5.142-25.606,15.587-66.522,17.568-81.534C43.069,223.21,35.716,249.93,32.207,277.667ZM132.585,135.835c23.335,25.641,44.026,34.124,87.3,66.369C202.7,185.989,186.2,169,168.868,152.962c-17.245-15.96-38.3-26.021-57.376-39.394C118.74,120.794,125.7,128.268,132.585,135.835Zm20.949,243.54c-1.091,28.733-13.236,45.123-2.919,94.167,1.209,5.742,1.557,13.318,4.3,18.5-9.261-75.243,14.776-86.15,7.611-120.96-3.337-15.181-7.388-30.385-11.344-45.49C150.465,347.057,154.277,359.827,153.534,379.375Zm-37.094,16c2.093,27.476-4.485,21.823,13.921-51.379,1.758-6.989,4.539-14.4,4.849-21.593.287-6.591.485-14.023,2.542-20.349,4.715-14.48,12.843,12.285-24.043-55-3.452,11.975-6.511,24.056-10.026,36.012-1.735,5.9-4.281,12.278-4.5,18.445C97.925,336.476,114.079,364.408,116.44,395.377ZM94.553,448.06c-1.308.807-1.9,5.222-2.338,6.747A68.18,68.18,0,0,0,94.553,448.06Zm105-128.16c30.717,20.9,53.7,23.721,71.323,27.929,42.482,10.141,35.208,11.022,14.77.479-15.979-8-32.589-15.96-49.727-22.3-19-7.021-37.4-15.551-56.537-22.2A171.049,171.049,0,0,0,199.55,319.9Zm51.969,152.745c1.164,9.114,1.786,18.445,4.179,27.348,4.929,18.343,15.1,35.011,22.914,52.208-1.311-9.3-.15-18.706-.6-28.053-1.758-36.421-17.2-59.58-31.451-87.289C246.887,438.614,251.372,471.491,251.519,472.646ZM355.275,542.5c18.655,26.688,32.136,60.837,66.388,85.978C397.763,600.652,386.758,578.935,355.275,542.5Zm22.652,6c16.722,21.459,37.69,56.014,52,72.733C404.644,585.177,401.712,572.21,377.927,548.5Z" fill="#e0dfca"/>
  </g>
</svg>
