<svg xmlns="http://www.w3.org/2000/svg" width="170.83" height="135.649" viewBox="0 0 170.83 135.649">
  <g id="Group_1167" data-name="Group 1167" transform="translate(-1270.334 -807.132)">
    <g id="圖層_2" data-name="圖層 2" transform="translate(1270.334 860.07)">
      <g id="Layer_1" data-name="Layer 1" transform="translate(0 0)">
        <path id="Path_4" data-name="Path 4" d="M463.13,59.806c2.573-2.893,3.646-6,6.325-3.321s5.143,5.248,7.4,5.788,7.072,11.549,7.823,13.76S481.352,88,481.352,88Z" transform="translate(-387.177 -46.366)" fill="#80b019"/>
        <path id="Path_5" data-name="Path 5" d="M456.584,54.546l.767.682c.492-.559.933-1.115,1.327-1.629a19.619,19.619,0,0,1,1.514-1.853,2.513,2.513,0,0,1,.533-.425.843.843,0,0,1,.177-.075.492.492,0,0,1,.133-.02.82.82,0,0,1,.389.12,3.393,3.393,0,0,1,.759.6h0c1.335,1.335,2.634,2.662,3.92,3.754a15.526,15.526,0,0,0,1.94,1.433,7.113,7.113,0,0,0,2.025.876h0l.033-.138-.041.136h.008l.033-.138-.041.136.016-.056-.018.056h0l.016-.056-.018.056h0a.892.892,0,0,1,.2.128,5.314,5.314,0,0,1,.8.874,24.486,24.486,0,0,1,1.829,2.881c.958,1.715,1.922,3.708,2.7,5.427.389.861.73,1.653,1,2.309s.472,1.179.572,1.476h0a1.377,1.377,0,0,1,.038.379,7.026,7.026,0,0,1-.131,1.184,26.754,26.754,0,0,1-.758,2.952c-.492,1.61-1.109,3.3-1.6,4.576-.244.64-.457,1.178-.61,1.555l-.179.438-.048.115-.016.038.948.4.863-.558-18.217-28.19-.863.558.767.682-.767-.682-.863.558L475,84.93l.751-1.8c0-.011.864-2.068,1.729-4.528.433-1.232.866-2.562,1.2-3.8.164-.62.305-1.217.405-1.773a8.963,8.963,0,0,0,.164-1.55,3.246,3.246,0,0,0-.146-1.04h0c-.1-.31-.267-.733-.481-1.26-.743-1.834-2.1-4.872-3.537-7.544a31.975,31.975,0,0,0-2.171-3.57,9.39,9.39,0,0,0-1.077-1.268,4.025,4.025,0,0,0-.581-.466,2.3,2.3,0,0,0-.712-.315h0a5.1,5.1,0,0,1-1.432-.64,17.06,17.06,0,0,1-2.58-2.043c-.92-.85-1.886-1.83-2.895-2.839l-.011-.011.013.013a5.377,5.377,0,0,0-1.243-.961,2.869,2.869,0,0,0-1.356-.362,2.576,2.576,0,0,0-.9.164,3.772,3.772,0,0,0-1.241.807,14.206,14.206,0,0,0-1.491,1.74c-.492.641-1.005,1.323-1.588,1.978l-.52.584.425.656.863-.558Z" transform="translate(-380.631 -41.106)" fill="#231815"/>
        <path id="Path_6" data-name="Path 6" d="M52.561,68.921c-.108-2.788-1.287-10.611,2.143-9.968S62,57.879,61.783,55.091s3.537-5.576,5.576-4.072,8.364,3.537,11.575,2.788-21.32,21.648-21.32,21.648Z" transform="translate(-43.705 -42.299)" fill="#80b019"/>
        <path id="Path_7" data-name="Path 7" d="M47.312,63.7l1.027-.039c-.025-.631-.1-1.442-.164-2.345s-.121-1.886-.121-2.822a15.782,15.782,0,0,1,.08-1.691,7.166,7.166,0,0,1,.189-1.028,3.28,3.28,0,0,1,.2-.561,1.519,1.519,0,0,1,.164-.267.574.574,0,0,1,.185-.164.435.435,0,0,1,.215-.046,1.055,1.055,0,0,1,.194.02h0a9.02,9.02,0,0,0,1.663.153,9.184,9.184,0,0,0,2.355-.305,6.862,6.862,0,0,0,2.944-1.558,4.428,4.428,0,0,0,.966-1.312,3.772,3.772,0,0,0,.371-1.64q0-.149-.011-.3h0v-.153a2.565,2.565,0,0,1,.285-1.125A4.156,4.156,0,0,1,59.177,47a3.639,3.639,0,0,1,.843-.444,2.273,2.273,0,0,1,.763-.146,1.35,1.35,0,0,1,.4.056,1.077,1.077,0,0,1,.328.164h0a8.216,8.216,0,0,0,.889.567,17.557,17.557,0,0,0,2.042.936,26.88,26.88,0,0,0,3.772,1.148,17.994,17.994,0,0,0,3.87.492,8.138,8.138,0,0,0,1.835-.187h0l-.1-.415v.425a.449.449,0,0,0,.1-.008l-.1-.415v-.361l-.218.753a.787.787,0,0,0,.218.033v-.784l-.218.753.249-.859-.5.74a.9.9,0,0,0,.253.12l.249-.859-.5.74.518-.766-.843.379a.933.933,0,0,0,.328.387l.518-.766-.843.379.8-.358h-.876a.872.872,0,0,0,.079.358l.8-.358h-.208l-.643-.182a.656.656,0,0,0-.023.182h.666l-.643-.182.3.084-.29-.108v.025l.3.084-.29-.108.051.02-.049-.021h0l.051.02L73,48.491a1.231,1.231,0,0,1-.082.144,7.76,7.76,0,0,1-.531.715c-.462.569-1.148,1.327-1.968,2.2-1.448,1.528-3.349,3.419-5.379,5.389-3.045,2.952-6.384,6.091-8.963,8.489-1.289,1.2-2.386,2.211-3.162,2.926l-.905.831-.328.3.692.759.82-.626-5.058-6.54-.82.626,1.027-.039-1.027.039-.82.626,5.719,7.424L53.03,71s5.412-4.938,10.824-10.107c2.708-2.585,5.412-5.227,7.462-7.349,1.023-1.063,1.879-1.993,2.5-2.74a11.181,11.181,0,0,0,.758-1,3.49,3.49,0,0,0,.254-.454,1.906,1.906,0,0,0,.1-.267,1.388,1.388,0,0,0,.054-.377,1.184,1.184,0,0,0-.077-.425,1.135,1.135,0,0,0-.213-.349,1.148,1.148,0,0,0-.492-.32,1.25,1.25,0,0,0-.407-.066,1.622,1.622,0,0,0-.371.046h0a6.127,6.127,0,0,1-1.369.134,14.432,14.432,0,0,1-2.555-.264,24.562,24.562,0,0,1-4.031-1.123c-.615-.23-1.179-.472-1.656-.707a7.687,7.687,0,0,1-1.12-.656h0a3.137,3.137,0,0,0-.943-.476,3.411,3.411,0,0,0-1-.146,4.531,4.531,0,0,0-1.919.459,6.266,6.266,0,0,0-2.321,1.917,5.553,5.553,0,0,0-.745,1.355,4.454,4.454,0,0,0-.29,1.556q0,.154.011.31h0v.143a1.7,1.7,0,0,1-.077.508,2.112,2.112,0,0,1-.5.82,4.31,4.31,0,0,1-1.656,1.017,7.091,7.091,0,0,1-3.6.287h0a3.116,3.116,0,0,0-.571-.054,2.53,2.53,0,0,0-.945.175,2.444,2.444,0,0,0-.7.426,3.191,3.191,0,0,0-.781,1.079,6.8,6.8,0,0,0-.52,1.955A16.82,16.82,0,0,0,46,58.492c0,1.018.061,2.048.126,2.968s.136,1.732.164,2.278l.013.328.2.259.82-.626Z" transform="translate(-38.456 -37.076)" fill="#231815"/>
        <path id="Path_8" data-name="Path 8" d="M288.6,80.9s18.824,1.609,26.22-4.018A41.54,41.54,0,0,0,330.89,41.829c-.969-17.2-20.093-30.225-32.149-31.191S287.809,9.029,287,6.94s-4.664.966-4.341,5.146S288.6,80.9,288.6,80.9Z" transform="translate(-236.29 -5.238)" fill="#cde191"/>
        <path id="Path_9" data-name="Path 9" d="M283.37,75.658l-.087,1.023c.021,0,2.537.216,6.1.216a68.441,68.441,0,0,0,10.824-.787,33.606,33.606,0,0,0,5.44-1.327,16.316,16.316,0,0,0,4.561-2.326A43.113,43.113,0,0,0,321.2,59.787a41.543,41.543,0,0,0,5.564-20.815q0-1.2-.069-2.439a27.927,27.927,0,0,0-3.872-12.453A41.9,41.9,0,0,0,309.29,10.294a43.019,43.019,0,0,0-8.051-4.1A28.284,28.284,0,0,0,293.6,4.369c-3-.239-5.179-.461-6.745-.684a18.458,18.458,0,0,1-2.565-.507,3.411,3.411,0,0,1-.836-.346.835.835,0,0,1-.212-.18.746.746,0,0,1-.09-.144,3.241,3.241,0,0,1-.164-.438c-.064-.2-.139-.454-.251-.746h0a2.316,2.316,0,0,0-.292-.54,1.927,1.927,0,0,0-.7-.589,1.968,1.968,0,0,0-.872-.2,2.545,2.545,0,0,0-.889.164,4.193,4.193,0,0,0-1.338.854,6.866,6.866,0,0,0-1.576,2.222,7.543,7.543,0,0,0-.672,3.106q0,.284.023.574h0c.041.531.164,2,.348,4.166,1.291,15.173,5.587,64.654,5.587,64.655l.075.861.861.074.087-1.023,1.023-.089-.241-2.788c-.54-6.214-1.893-21.812-3.146-36.3-.626-7.247-1.228-14.222-1.691-19.611-.231-2.695-.428-4.994-.576-6.732s-.248-2.916-.284-3.362h0q-.016-.21-.016-.417a5.458,5.458,0,0,1,.3-1.77,5.112,5.112,0,0,1,1.174-1.937,2.735,2.735,0,0,1,.622-.477.809.809,0,0,1,.328-.113h0l.02-.148-.093.112a.172.172,0,0,0,.074.036l.02-.148-.093.112.067-.08-.077.069.011.01.067-.08-.077.069.025-.023-.026.021h0l.025-.023L280.777,2l.008.013a.374.374,0,0,1,.023.051h0c.084.215.146.426.22.656a5,5,0,0,0,.256.671,2.777,2.777,0,0,0,.423.641,2.9,2.9,0,0,0,.567.492,5.2,5.2,0,0,0,1.387.613,22.017,22.017,0,0,0,3.506.656c1.566.2,3.592.4,6.253.613a29.114,29.114,0,0,1,9.623,2.77,43.236,43.236,0,0,1,14.411,10.89,32.607,32.607,0,0,1,4.971,7.744,24.894,24.894,0,0,1,2.2,8.82q.066,1.179.066,2.324A39.48,39.48,0,0,1,319.4,58.751a40.621,40.621,0,0,1-10.442,12.07,14.477,14.477,0,0,1-3.988,2.019,36.992,36.992,0,0,1-7.842,1.614,73.027,73.027,0,0,1-7.751.389c-1.742,0-3.229-.052-4.279-.1-.525-.026-.94-.052-1.222-.072l-.328-.023h-.1l-.087,1.023,1.023-.089-1.023.089Z" transform="translate(-231.062 0)" fill="#231815"/>
        <path id="Path_10" data-name="Path 10" d="M102.282,92.6C78.182,91.411,62.2,80.9,59.9,63.711,58.268,51.449,72.982,23.925,86.062,21.2s11.892-3.385,12.7,1.44,6.271,5.625,9.807,5.786S115.8,31,115,36.463s0,8.528,3.216,11.414,1.77,11.577-.8,12.218S111.3,70.224,112.747,73.76,107.9,92.869,102.282,92.6Z" transform="translate(-49.974 -15.953)" fill="#cde191"/>
        <path id="Path_11" data-name="Path 11" d="M97.042,87.332l.051-1.027a71.469,71.469,0,0,1-16.236-2.557C73.6,81.656,67.715,78.38,63.448,74.1a26.949,26.949,0,0,1-7.772-15.79,14.209,14.209,0,0,1-.118-1.866,25.625,25.625,0,0,1,.6-5.163,53.074,53.074,0,0,1,3.608-10.66,65.451,65.451,0,0,1,9.676-15.46,34.753,34.753,0,0,1,5.812-5.46,15.571,15.571,0,0,1,5.766-2.75c3.116-.648,5.412-1.179,7.116-1.545.85-.182,1.548-.328,2.111-.417a8.252,8.252,0,0,1,1.276-.136,1.743,1.743,0,0,1,.344.028.38.38,0,0,1,.1.03h0l.016.021a.984.984,0,0,1,.1.235,6.994,6.994,0,0,1,.184.909c.062.4.131.9.226,1.476a7.017,7.017,0,0,0,.6,1.9,6.7,6.7,0,0,0,2.011,2.43,10.85,10.85,0,0,0,4.111,1.8,22.8,22.8,0,0,0,4.077.5,7.042,7.042,0,0,1,2.07.405,5.81,5.81,0,0,1,1.374.71,4.791,4.791,0,0,1,1.515,1.73,5.83,5.83,0,0,1,.6,2.709,9.018,9.018,0,0,1-.1,1.312h0a25.237,25.237,0,0,0-.3,3.646,13.818,13.818,0,0,0,.216,2.555,9.9,9.9,0,0,0,1.243,3.316,12.312,12.312,0,0,0,2.383,2.816,3.362,3.362,0,0,1,.643.807,6.006,6.006,0,0,1,.656,1.76,10.343,10.343,0,0,1,.216,2.163,11.808,11.808,0,0,1-.687,4.034,4.92,4.92,0,0,1-.684,1.282,1.7,1.7,0,0,1-.31.312.563.563,0,0,1-.19.1,2.637,2.637,0,0,0-.676.279,4.474,4.474,0,0,0-1.043.868,11.193,11.193,0,0,0-1.533,2.258,23.189,23.189,0,0,0-1.786,4.48,17.7,17.7,0,0,0-.743,4.666,6.644,6.644,0,0,0,.413,2.493h0a2.788,2.788,0,0,1,.134.984,10.786,10.786,0,0,1-.226,2,27.154,27.154,0,0,1-1.407,4.63,29.2,29.2,0,0,1-3.785,6.888,10.835,10.835,0,0,1-2.186,2.189,4.564,4.564,0,0,1-1.012.554,2.5,2.5,0,0,1-.881.174h-.1l-.051,1.027L97,88.364h.2a4.945,4.945,0,0,0,2.393-.672,9.02,9.02,0,0,0,1.855-1.407,19.025,19.025,0,0,0,2.842-3.633,34.806,34.806,0,0,0,3.188-6.74,27.843,27.843,0,0,0,.93-3.25,13.554,13.554,0,0,0,.346-2.788,4.7,4.7,0,0,0-.287-1.763v0A4.684,4.684,0,0,1,108.2,66.4a14.454,14.454,0,0,1,.449-3.28,21.406,21.406,0,0,1,1.894-5.012,9.209,9.209,0,0,1,1.132-1.679,3.084,3.084,0,0,1,.476-.444.866.866,0,0,1,.269-.144,2.6,2.6,0,0,0,.912-.438,4.338,4.338,0,0,0,1.127-1.312,9.786,9.786,0,0,0,1.022-2.727,14.628,14.628,0,0,0,.366-3.244,11.62,11.62,0,0,0-.479-3.423,7.4,7.4,0,0,0-.667-1.538,5.4,5.4,0,0,0-1.041-1.3,9.46,9.46,0,0,1-2.422-3.165,8.1,8.1,0,0,1-.558-1.815A11.776,11.776,0,0,1,110.5,34.7a23.2,23.2,0,0,1,.279-3.347v0a11.043,11.043,0,0,0,.123-1.609,8.036,8.036,0,0,0-.656-3.3A6.779,6.779,0,0,0,109,24.569a7.406,7.406,0,0,0-2.624-1.781,9.02,9.02,0,0,0-3-.656,23.021,23.021,0,0,1-2.788-.28,13.385,13.385,0,0,1-2.122-.526,6.887,6.887,0,0,1-2.59-1.5,4.5,4.5,0,0,1-.85-1.128,4.89,4.89,0,0,1-.492-1.494c-.1-.615-.172-1.148-.251-1.624a7.992,7.992,0,0,0-.216-1.005,3.071,3.071,0,0,0-.307-.712,2.112,2.112,0,0,0-1.266-.958,3.477,3.477,0,0,0-.956-.118,10.122,10.122,0,0,0-1.612.164c-.93.154-2.093.407-3.608.741s-3.383.753-5.7,1.235A16.058,16.058,0,0,0,75.6,17a34.863,34.863,0,0,0-8.261,7.462,68.263,68.263,0,0,0-9.806,16.12,57.207,57.207,0,0,0-2.941,8.38A30.475,30.475,0,0,0,53.51,56.44a16.236,16.236,0,0,0,.134,2.139A29.135,29.135,0,0,0,58,70.6a30.757,30.757,0,0,0,6.416,7.15,42.911,42.911,0,0,0,14.024,7.41,71.3,71.3,0,0,0,18.55,3.2h0l.051-1.027Z" transform="translate(-44.734 -10.69)" fill="#231815"/>
        <path id="Path_12" data-name="Path 12" d="M97.113,82.528c.328-.751,6.322-21.866,20.792-27.068-2.709,3.154-6.106,4.379-8.111,8.576-2.788,5.829-10,19.278-10,22.78S126.048,74.7,126.048,74.7s-10.286,8.933-13.72,10.112-13.505,4.894-13.505,4.894l7.823,14.685,23.48-19.578s-11.152,15.934-21.758,20.756c-2.535,1.148-13.827-16.184-13.827-16.184Z" transform="translate(-79.035 -46.364)" fill="#ecf4e1"/>
        <path id="Path_13" data-name="Path 13" d="M409.339,45.669s-3.608,7.183-5.971,8.036,4.458-.856,5.971-4.717,1.64-2.25,1.64-2.25,7.933,6.432,9.11,10.5,4.933,12.336,3.644,18.981a5.8,5.8,0,0,0,2.46,0s-1.838-16.528-4.943-20.552a45.26,45.26,0,0,0-9.2-9c-2-1.269-9.746-5.492-12.326-5.279" transform="translate(-334.166 -34.587)" fill="#ecf4e1"/>
        <path id="Path_14" data-name="Path 14" d="M58.365,186.43c-12.71.1-36.5-3.077-44.052-22.37S7.884,139.6,7.884,139.449s-1.287-3.364-1.609-4.328,10.773-6.27,10.129-2.411,6.432,6.271,5.788,8.843,1.77-1.125,6.591,2.091,7.4,6.109,6.111,8.681,1.286,8.036,2.732,12.7,6.432-6.43,8.364.328,5.9,9.807,5.607,12.379,10.747-1.63,12.526,3.134-2.545,5.547-5.755,5.576Z" transform="translate(-5.24 -109.785)" fill="#8fc31f"/>
        <path id="Path_15" data-name="Path 15" d="M53.124,181.211v-1.028h-.563a67.217,67.217,0,0,1-23.395-3.988,37.673,37.673,0,0,1-11.283-6.614,28.262,28.262,0,0,1-7.849-11.116,126.174,126.174,0,0,1-5.384-16.39,31.105,31.105,0,0,1-1.043-6.84c0-.307.013-.518.026-.656a.887.887,0,0,1,.016-.149v-.093a1.076,1.076,0,0,0-.008-.29,1.287,1.287,0,0,0-.03-.134c-.016-.059-.031-.107-.049-.164-.034-.1-.077-.22-.13-.362-.184-.492-.482-1.269-.768-2.016-.143-.372-.282-.738-.4-1.055s-.215-.585-.271-.749l-.843.28h.889a.892.892,0,0,0-.046-.28l-.843.28h.085L2,130.15a.805.805,0,0,0,.052-.29h-.8l.751.29-.518-.2.464.307A.561.561,0,0,0,2,130.15l-.518-.2.464.307-.187-.123.177.136.01-.013-.187-.123.177.136h0a.911.911,0,0,1,.09-.089,4.721,4.721,0,0,1,.505-.374,15.577,15.577,0,0,1,1.547-.876,23.176,23.176,0,0,1,3.016-1.26,13.5,13.5,0,0,1,1.448-.4,5.741,5.741,0,0,1,1.14-.141,1.882,1.882,0,0,1,.4.036.535.535,0,0,1,.123.039h0l.082-.12-.128.064a.179.179,0,0,0,.046.056l.082-.12-.128.064.11-.056-.116.041v.015l.11-.056-.116.041.036-.013-.038.01h0l.036-.013-.038.01a.238.238,0,0,1,0,.051.856.856,0,0,1-.013.136h0a4.066,4.066,0,0,0-.056.664A4.252,4.252,0,0,0,10.4,129.6a7.38,7.38,0,0,0,1.561,2.255c.472.492.984.945,1.466,1.371a25.307,25.307,0,0,1,1.893,1.733,3.5,3.5,0,0,1,.5.656,1.165,1.165,0,0,1,.1.228.52.52,0,0,1,.023.144.351.351,0,0,1-.011.087h0c-.039.164-.071.3-.093.441a2.668,2.668,0,0,0-.039.431,1.6,1.6,0,0,0,.064.466,1.3,1.3,0,0,0,.207.41,1.247,1.247,0,0,0,.272.264,1.3,1.3,0,0,0,.453.2,1.567,1.567,0,0,0,.359.039,3.018,3.018,0,0,0,.556-.062c.248-.048.492-.1.766-.148a5.619,5.619,0,0,1,.912-.079,5.217,5.217,0,0,1,1.538.236,7.707,7.707,0,0,1,2.025.992h0a24.972,24.972,0,0,1,4.526,3.66,7.125,7.125,0,0,1,1.12,1.556,2.788,2.788,0,0,1,.328,1.245,1.978,1.978,0,0,1-.221.9,4.92,4.92,0,0,0-.458,2.214,11.984,11.984,0,0,0,.343,2.624,42.2,42.2,0,0,0,1.312,4.3c.51,1.476,1.051,2.952,1.476,4.335a4.13,4.13,0,0,0,.3.728,2.7,2.7,0,0,0,.313.467,2.019,2.019,0,0,0,.672.53,1.884,1.884,0,0,0,.82.182,2.5,2.5,0,0,0,.973-.215,4.642,4.642,0,0,0,.705-.382,12.96,12.96,0,0,0,1.127-.845c.546-.446,1.082-.9,1.555-1.217a3.773,3.773,0,0,1,.628-.353,1.03,1.03,0,0,1,.376-.1.249.249,0,0,1,.113.023.434.434,0,0,1,.112.08,1.6,1.6,0,0,1,.305.433,5.182,5.182,0,0,1,.366.964h0a29.925,29.925,0,0,0,3.623,7.8c.592.956,1.11,1.768,1.458,2.444a5.922,5.922,0,0,1,.385.9,2.227,2.227,0,0,1,.118.666,1.421,1.421,0,0,1-.01.164h0a1.9,1.9,0,0,0-.013.221,1.66,1.66,0,0,0,.1.574,1.591,1.591,0,0,0,.256.451,1.817,1.817,0,0,0,.631.492,3.229,3.229,0,0,0,.984.269,8.363,8.363,0,0,0,1.059.057c.712,0,1.5-.052,2.337-.1s1.7-.1,2.535-.1a9.9,9.9,0,0,1,3.144.4,3.022,3.022,0,0,1,.984.546,1.945,1.945,0,0,1,.561.81,4.776,4.776,0,0,1,.351,1.64,2.15,2.15,0,0,1-.1.686,1.64,1.64,0,0,1-.225.441,2.235,2.235,0,0,1-.722.623,5.75,5.75,0,0,1-1.858.607,14.013,14.013,0,0,1-2.245.18h0v2.055a16.727,16.727,0,0,0,2.239-.156,9.911,9.911,0,0,0,1.706-.389,6.318,6.318,0,0,0,1.2-.533A4.187,4.187,0,0,0,59.7,179.77a3.957,3.957,0,0,0,.581-2.132,6.8,6.8,0,0,0-.481-2.367,4.013,4.013,0,0,0-1.137-1.64,4.788,4.788,0,0,0-1.214-.758,7.811,7.811,0,0,0-2.071-.556,15.918,15.918,0,0,0-2.2-.134c-.915,0-1.824.052-2.66.1s-1.6.1-2.212.1a6.925,6.925,0,0,1-.713-.031,2.3,2.3,0,0,1-.338-.057.612.612,0,0,1-.1-.034h0l-.19.305.3-.179a.382.382,0,0,0-.113-.126l-.19.305.3-.179-.361.212h.423a.444.444,0,0,0-.062-.212l-.361.212h.254l.164.02v-.02H47.16l.164.02h0a3.465,3.465,0,0,0,.023-.4,4.264,4.264,0,0,0-.213-1.284,10.644,10.644,0,0,0-1.035-2.148c-.656-1.1-1.463-2.307-2.257-3.759a24.886,24.886,0,0,1-2.158-5.187v0a7.491,7.491,0,0,0-.454-1.22,4.278,4.278,0,0,0-.44-.723,2.739,2.739,0,0,0-.889-.777,2.311,2.311,0,0,0-1.089-.269,2.952,2.952,0,0,0-1.027.2,6.259,6.259,0,0,0-1.476.851c-.341.251-.667.518-.984.774-.466.384-.9.746-1.261.984a2.779,2.779,0,0,1-.446.249.838.838,0,0,1-.128.044h-.031v.164l.061-.144a.177.177,0,0,0-.061-.015v.164l.061-.144-.052.128.09-.108a.15.15,0,0,0-.036-.021l-.052.128.09-.108h0a.592.592,0,0,1-.085-.128,2.131,2.131,0,0,1-.144-.362c-.6-1.932-1.373-3.956-1.986-5.83-.307-.936-.572-1.834-.759-2.652a10.012,10.012,0,0,1-.29-2.16,2.916,2.916,0,0,1,.241-1.3,4.046,4.046,0,0,0,.438-1.822,4.828,4.828,0,0,0-.554-2.166,10.937,10.937,0,0,0-2.426-3.009,32.069,32.069,0,0,0-3.885-3h0a9.758,9.758,0,0,0-2.567-1.248,7.277,7.277,0,0,0-2.132-.328,8.092,8.092,0,0,0-1.568.164l-.492.1-.141.023h-.033v.531l.153-.507a.538.538,0,0,0-.153-.026v.531l.153-.507-.223.743.467-.617a.781.781,0,0,0-.246-.126l-.223.743.467-.617-.492.646.656-.469a.82.82,0,0,0-.172-.179l-.492.646.656-.469-.576.435.712-.164a.733.733,0,0,0-.116-.251l-.6.415.712-.164-.387.092h.4a.4.4,0,0,0-.013-.092l-.387.092h.4a2.316,2.316,0,0,1,.071-.371h0a2.416,2.416,0,0,0,.072-.585,2.581,2.581,0,0,0-.108-.728,3.716,3.716,0,0,0-.592-1.148,11.128,11.128,0,0,0-1.584-1.64c-.44-.39-.9-.776-1.332-1.164a11.049,11.049,0,0,1-1.65-1.743,3.756,3.756,0,0,1-.454-.82,2.155,2.155,0,0,1-.149-.772,1.986,1.986,0,0,1,.028-.328h0a2.878,2.878,0,0,0,.041-.474,2.112,2.112,0,0,0-.22-.964,1.888,1.888,0,0,0-.464-.584,2.27,2.27,0,0,0-.905-.454,3.754,3.754,0,0,0-.945-.11,7.4,7.4,0,0,0-1.378.148,16.739,16.739,0,0,0-2.6.761,24.852,24.852,0,0,0-3.621,1.689,10.03,10.03,0,0,0-1.273.85,3.19,3.19,0,0,0-.469.458,1.688,1.688,0,0,0-.21.328,1.268,1.268,0,0,0-.131.554,1.168,1.168,0,0,0,.059.369c.09.271.233.656.4,1.1.251.666.558,1.455.8,2.089.121.317.226.6.3.794.036.1.064.177.079.223v.025h0l.512-.144-.505.108v.033l.512-.144-.512.112.845-.18-.858.126a.093.093,0,0,0,.01.057l.848-.184-.858.126.966-.143H1.609a.948.948,0,0,0,.01.143l.966-.143H2.544l-.93-.1a.871.871,0,0,0,0,.1h.935l-.93-.1.587.061-.587-.069v.01l.587.061-.587-.069h0a.488.488,0,0,1-.015.116,8.488,8.488,0,0,0-.048.987,32.8,32.8,0,0,0,1.089,7.314,127.891,127.891,0,0,0,5.469,16.664,30.325,30.325,0,0,0,8.41,11.915c5.3,4.628,11.885,7.391,18.342,9.02a73.726,73.726,0,0,0,17.687,2.1h.582v-1.027Z" transform="translate(0 -104.566)" fill="#231815"/>
        <path id="Path_16" data-name="Path 16" d="M302.08,194.618s4.5-7.236,7.395-12.539,4.663-13.505,8.528-9.646,6.752.328,9-4.341-.963-11.395,3.7-11.324,9.646-3.146,11.416-1.055,5.3-.8,6.591-4.02-5.145-10.77-2.25-10.129,10.45,9.807,4.823,21.705-6.922,33.438-35.7,32.8c-6.671-.148-14.284-.182-13.505-1.446Z" transform="translate(-252.492 -118.315)" fill="#8fc31f"/>
        <path id="Path_17" data-name="Path 17" d="M296.819,189.421l.872.543s1.13-1.815,2.624-4.294,3.344-5.622,4.8-8.3c.62-1.135,1.174-2.368,1.7-3.578.4-.907.779-1.8,1.148-2.624.282-.617.563-1.194.84-1.7a7.847,7.847,0,0,1,1.2-1.737,1.967,1.967,0,0,1,.482-.372.725.725,0,0,1,.336-.089.943.943,0,0,1,.436.125,3.088,3.088,0,0,1,.738.574,7.558,7.558,0,0,0,1.932,1.446,4.455,4.455,0,0,0,2,.492,4.325,4.325,0,0,0,2.178-.613,6.692,6.692,0,0,0,1.36-1.064,12.736,12.736,0,0,0,1.715-2.207,26.926,26.926,0,0,0,1.476-2.681,11.142,11.142,0,0,0,.971-4.1c.071-1.012.061-1.989.066-2.873,0-.656.013-1.271.061-1.789a5.317,5.317,0,0,1,.164-.984,1.979,1.979,0,0,1,.2-.474,1.019,1.019,0,0,1,.164-.215.938.938,0,0,1,.356-.207,2.2,2.2,0,0,1,.71-.1h.225a21.006,21.006,0,0,0,5.412-.917c.82-.223,1.594-.439,2.28-.6a8.167,8.167,0,0,1,1.738-.249,2.041,2.041,0,0,1,.692.1.809.809,0,0,1,.361.244v0a3.031,3.031,0,0,0,1.046.809,2.919,2.919,0,0,0,1.23.264,4.166,4.166,0,0,0,1.9-.507,8.265,8.265,0,0,0,2.421-2.007,10.568,10.568,0,0,0,1.737-2.859l-.008.021.008-.021a3.7,3.7,0,0,0,.246-1.379,6.3,6.3,0,0,0-.164-1.346,13.871,13.871,0,0,0-.789-2.353c-.492-1.163-1.079-2.3-1.528-3.236-.225-.467-.415-.887-.54-1.214a3.812,3.812,0,0,1-.133-.405,1.221,1.221,0,0,1-.025-.12V136.8H341.1l.348.107a.394.394,0,0,0,.02-.107H341.1l.348.107-.617-.19.522.379a.656.656,0,0,0,.1-.189l-.617-.19.522.379-.559-.405.266.64a.707.707,0,0,0,.3-.235l-.559-.405.266.64-.164-.4v.443a.459.459,0,0,0,.164-.039l-.164-.4v.443h0a.61.61,0,0,1,.084.015,2.183,2.183,0,0,1,.6.271,7.739,7.739,0,0,1,1.678,1.466,14.706,14.706,0,0,1,2.578,4.233,16.377,16.377,0,0,1,1.189,6.148,18.941,18.941,0,0,1-1.93,8.146c-1.428,3.023-2.552,6.56-3.879,10.157a59.693,59.693,0,0,1-3.5,8,29.935,29.935,0,0,1-3.738,5.438,23.187,23.187,0,0,1-8.577,6.168,35.217,35.217,0,0,1-13.83,2.449q-.6,0-1.225-.013c-3.182-.071-6.56-.115-9.12-.277-.638-.041-1.223-.089-1.735-.144-.384-.043-.728-.089-1.02-.139-.218-.038-.408-.079-.561-.118a2.712,2.712,0,0,1-.272-.084.839.839,0,0,1-.1-.041h0l-.233.369.346-.254a.445.445,0,0,0-.113-.115l-.233.369.346-.254-.581.426.679-.239a.723.723,0,0,0-.1-.187l-.581.426.679-.239-.733.259h.777a.783.783,0,0,0-.044-.259l-.733.259h.03l.713.228a.757.757,0,0,0,.034-.228h-.749l.713.228-.6-.19.533.328a.627.627,0,0,0,.062-.139l-.6-.19.533.328h0l-.872-.543-.889-.538a1.427,1.427,0,0,0-.146.317,1.311,1.311,0,0,0-.062.4,1.282,1.282,0,0,0,.1.505,1.364,1.364,0,0,0,.233.366,1.776,1.776,0,0,0,.507.389,3.149,3.149,0,0,0,.479.2,7.325,7.325,0,0,0,1.028.246c.666.116,1.465.2,2.371.271,1.36.1,2.952.164,4.651.21s3.475.077,5.192.115q.645.015,1.271.015c7.021,0,12.454-1.346,16.713-3.6a25.273,25.273,0,0,0,7.746-6.335,42.491,42.491,0,0,0,6.588-12.1c1.588-4.143,2.811-8.171,4.325-11.364a21.032,21.032,0,0,0,2.132-9.02,18.478,18.478,0,0,0-.82-5.443,17.344,17.344,0,0,0-3.165-5.949,11.392,11.392,0,0,0-1.853-1.8,6.559,6.559,0,0,0-.909-.582,3.772,3.772,0,0,0-.917-.348,2.434,2.434,0,0,0-.53-.062,1.64,1.64,0,0,0-.546.089,1.361,1.361,0,0,0-.84.831,1.648,1.648,0,0,0-.093.564,2.513,2.513,0,0,0,.057.512,5.621,5.621,0,0,0,.285.9c.215.54.5,1.133.812,1.768.466.95.984,1.991,1.381,2.978a11.762,11.762,0,0,1,.474,1.405,4.7,4.7,0,0,1,.164,1.148,1.667,1.667,0,0,1-.1.617h0a8.551,8.551,0,0,1-1.975,2.909,5.429,5.429,0,0,1-1.2.882,2.154,2.154,0,0,1-.954.279.861.861,0,0,1-.371-.075.974.974,0,0,1-.338-.269h0A2.876,2.876,0,0,0,336.41,149a4.056,4.056,0,0,0-1.4-.223,10.067,10.067,0,0,0-2.2.3c-1.137.261-2.347.633-3.58.933a15.688,15.688,0,0,1-3.649.528h-.225a4.579,4.579,0,0,0-.984.1,3.337,3.337,0,0,0-.82.294,2.951,2.951,0,0,0-1.135,1.04,4.062,4.062,0,0,0-.492,1.173,10.078,10.078,0,0,0-.262,2.253c-.031,1.179.013,2.44-.071,3.662a9.255,9.255,0,0,1-.772,3.385,18.122,18.122,0,0,1-2.46,3.985,5.223,5.223,0,0,1-1.258,1.082,2.265,2.265,0,0,1-1.148.338,2.4,2.4,0,0,1-1.082-.282,5.533,5.533,0,0,1-1.4-1.063,5.1,5.1,0,0,0-1.25-.946,3,3,0,0,0-1.378-.353,2.7,2.7,0,0,0-.777.115,3.379,3.379,0,0,0-1.222.7,5.9,5.9,0,0,0-.843.915,13.8,13.8,0,0,0-1.241,2.05c-.581,1.138-1.13,2.426-1.691,3.713s-1.155,2.575-1.758,3.688c-1.433,2.624-3.28,5.756-4.756,8.221-.741,1.233-1.392,2.3-1.86,3.06l-.559.889L296,188.8l-.051.082h0l.874.54Z" transform="translate(-247.23 -113.119)" fill="#231815"/>
        <path id="Path_18" data-name="Path 18" d="M68.418,269.9a98.247,98.247,0,0,1-10.043-7.915c-.218-.2,6.283-8.364,5.758-8.856s-7.359,7.164-7.557,6.967a90.21,90.21,0,0,1-6.378-6.573c-.138-.164,8.925-9.817,8.789-9.986-.1-.126-9.832,8.71-9.935,8.579-4.31-5.451-7.473-11.431-7.216-17.008.643,15.826,6,19.9,6,19.9s5.9,8.782,11.365,11.039S68.418,269.9,68.418,269.9Z" transform="translate(-34.962 -196.552)" fill="#ddedce"/>
        <path id="Path_19" data-name="Path 19" d="M454.2,302.91c-.484-2.573-1.878-8.174-1.878-12.676s.328-4.5,1.005-6.189c.328-.83.089,3.788.684,8.279.617,4.651,1.781,8.759,2.273,9.045.963.564,8.256-11.216,9.463-15.073s3.149-8.764,4.031-9.405c.4-.292-.648,1.957-1.619,4.449-1.164,2.981-2.329,6.325-2.329,6.325s-4.9,11.282-6.86,12.379c-1.2,1.178-7.77,6.4-10.047,6.458-.358,0-3.785.973-3.724.828.328-.782,9.005-4.42,9.005-4.42Z" transform="translate(-372.183 -231.458)" fill="#ddedce"/>
      </g>
    </g>
    <g id="圖層_2-2" data-name="圖層 2" transform="translate(1339.323 863.984)">
      <g id="Layer_1-2" data-name="Layer 1" transform="translate(0 0)">
        <path id="Path_4-2" data-name="Path 4" d="M463.13,59.806c2.573-2.893,3.646-6,6.325-3.321s5.143,5.248,7.4,5.788,7.072,11.549,7.823,13.76S481.352,88,481.352,88Z" transform="translate(-387.177 -46.366)" fill="#80b019"/>
        <path id="Path_5-2" data-name="Path 5" d="M456.584,54.546l.767.682c.492-.559.933-1.115,1.327-1.629a19.619,19.619,0,0,1,1.514-1.853,2.513,2.513,0,0,1,.533-.425.843.843,0,0,1,.177-.075.492.492,0,0,1,.133-.02.82.82,0,0,1,.389.12,3.393,3.393,0,0,1,.759.6h0c1.335,1.335,2.634,2.662,3.92,3.754a15.526,15.526,0,0,0,1.94,1.433,7.113,7.113,0,0,0,2.025.876h0l.033-.138-.041.136h.008l.033-.138-.041.136.016-.056-.018.056h0l.016-.056-.018.056h0a.892.892,0,0,1,.2.128,5.314,5.314,0,0,1,.8.874,24.486,24.486,0,0,1,1.829,2.881c.958,1.715,1.922,3.708,2.7,5.427.389.861.73,1.653,1,2.309s.472,1.179.572,1.476h0a1.377,1.377,0,0,1,.038.379,7.026,7.026,0,0,1-.131,1.184,26.754,26.754,0,0,1-.758,2.952c-.492,1.61-1.109,3.3-1.6,4.576-.244.64-.457,1.178-.61,1.555l-.179.438-.048.115-.016.038.948.4.863-.558-18.217-28.19-.863.558.767.682-.767-.682-.863.558L475,84.93l.751-1.8c0-.011.864-2.068,1.729-4.528.433-1.232.866-2.562,1.2-3.8.164-.62.305-1.217.405-1.773a8.963,8.963,0,0,0,.164-1.55,3.246,3.246,0,0,0-.146-1.04h0c-.1-.31-.267-.733-.481-1.26-.743-1.834-2.1-4.872-3.537-7.544a31.975,31.975,0,0,0-2.171-3.57,9.39,9.39,0,0,0-1.077-1.268,4.025,4.025,0,0,0-.581-.466,2.3,2.3,0,0,0-.712-.315h0a5.1,5.1,0,0,1-1.432-.64,17.06,17.06,0,0,1-2.58-2.043c-.92-.85-1.886-1.83-2.895-2.839l-.011-.011.013.013a5.377,5.377,0,0,0-1.243-.961,2.869,2.869,0,0,0-1.356-.362,2.576,2.576,0,0,0-.9.164,3.772,3.772,0,0,0-1.241.807,14.206,14.206,0,0,0-1.491,1.74c-.492.641-1.005,1.323-1.588,1.978l-.52.584.425.656.863-.558Z" transform="translate(-380.631 -41.106)" fill="#231815"/>
        <path id="Path_6-2" data-name="Path 6" d="M52.561,68.921c-.108-2.788-1.287-10.611,2.143-9.968S62,57.879,61.783,55.091s3.537-5.576,5.576-4.072,8.364,3.537,11.575,2.788-21.32,21.648-21.32,21.648Z" transform="translate(-43.705 -42.299)" fill="#80b019"/>
        <path id="Path_7-2" data-name="Path 7" d="M47.312,63.7l1.027-.039c-.025-.631-.1-1.442-.164-2.345s-.121-1.886-.121-2.822a15.782,15.782,0,0,1,.08-1.691,7.166,7.166,0,0,1,.189-1.028,3.28,3.28,0,0,1,.2-.561,1.519,1.519,0,0,1,.164-.267.574.574,0,0,1,.185-.164.435.435,0,0,1,.215-.046,1.055,1.055,0,0,1,.194.02h0a9.02,9.02,0,0,0,1.663.153,9.184,9.184,0,0,0,2.355-.305,6.862,6.862,0,0,0,2.944-1.558,4.428,4.428,0,0,0,.966-1.312,3.772,3.772,0,0,0,.371-1.64q0-.149-.011-.3h0v-.153a2.565,2.565,0,0,1,.285-1.125A4.156,4.156,0,0,1,59.177,47a3.639,3.639,0,0,1,.843-.444,2.273,2.273,0,0,1,.763-.146,1.35,1.35,0,0,1,.4.056,1.077,1.077,0,0,1,.328.164h0a8.216,8.216,0,0,0,.889.567,17.557,17.557,0,0,0,2.042.936,26.88,26.88,0,0,0,3.772,1.148,17.994,17.994,0,0,0,3.87.492,8.138,8.138,0,0,0,1.835-.187h0l-.1-.415v.425a.449.449,0,0,0,.1-.008l-.1-.415v-.361l-.218.753a.787.787,0,0,0,.218.033v-.784l-.218.753.249-.859-.5.74a.9.9,0,0,0,.253.12l.249-.859-.5.74.518-.766-.843.379a.933.933,0,0,0,.328.387l.518-.766-.843.379.8-.358h-.876a.872.872,0,0,0,.079.358l.8-.358h-.208l-.643-.182a.656.656,0,0,0-.023.182h.666l-.643-.182.3.084-.29-.108v.025l.3.084-.29-.108.051.02-.049-.021h0l.051.02L73,48.491a1.231,1.231,0,0,1-.082.144,7.76,7.76,0,0,1-.531.715c-.462.569-1.148,1.327-1.968,2.2-1.448,1.528-3.349,3.419-5.379,5.389-3.045,2.952-6.384,6.091-8.963,8.489-1.289,1.2-2.386,2.211-3.162,2.926l-.905.831-.328.3.692.759.82-.626-5.058-6.54-.82.626,1.027-.039-1.027.039-.82.626,5.719,7.424L53.03,71s5.412-4.938,10.824-10.107c2.708-2.585,5.412-5.227,7.462-7.349,1.023-1.063,1.879-1.993,2.5-2.74a11.181,11.181,0,0,0,.758-1,3.49,3.49,0,0,0,.254-.454,1.906,1.906,0,0,0,.1-.267,1.388,1.388,0,0,0,.054-.377,1.184,1.184,0,0,0-.077-.425,1.135,1.135,0,0,0-.213-.349,1.148,1.148,0,0,0-.492-.32,1.25,1.25,0,0,0-.407-.066,1.622,1.622,0,0,0-.371.046h0a6.127,6.127,0,0,1-1.369.134,14.432,14.432,0,0,1-2.555-.264,24.562,24.562,0,0,1-4.031-1.123c-.615-.23-1.179-.472-1.656-.707a7.687,7.687,0,0,1-1.12-.656h0a3.137,3.137,0,0,0-.943-.476,3.411,3.411,0,0,0-1-.146,4.531,4.531,0,0,0-1.919.459,6.266,6.266,0,0,0-2.321,1.917,5.553,5.553,0,0,0-.745,1.355,4.454,4.454,0,0,0-.29,1.556q0,.154.011.31h0v.143a1.7,1.7,0,0,1-.077.508,2.112,2.112,0,0,1-.5.82,4.31,4.31,0,0,1-1.656,1.017,7.091,7.091,0,0,1-3.6.287h0a3.116,3.116,0,0,0-.571-.054,2.53,2.53,0,0,0-.945.175,2.444,2.444,0,0,0-.7.426,3.191,3.191,0,0,0-.781,1.079,6.8,6.8,0,0,0-.52,1.955A16.82,16.82,0,0,0,46,58.492c0,1.018.061,2.048.126,2.968s.136,1.732.164,2.278l.013.328.2.259.82-.626Z" transform="translate(-38.456 -37.076)" fill="#231815"/>
        <path id="Path_8-2" data-name="Path 8" d="M288.6,80.9s18.824,1.609,26.22-4.018A41.54,41.54,0,0,0,330.89,41.829c-.969-17.2-20.093-30.225-32.149-31.191S287.809,9.029,287,6.94s-4.664.966-4.341,5.146S288.6,80.9,288.6,80.9Z" transform="translate(-236.29 -5.238)" fill="#cde191"/>
        <path id="Path_9-2" data-name="Path 9" d="M283.37,75.658l-.087,1.023c.021,0,2.537.216,6.1.216a68.441,68.441,0,0,0,10.824-.787,33.606,33.606,0,0,0,5.44-1.327,16.316,16.316,0,0,0,4.561-2.326A43.113,43.113,0,0,0,321.2,59.787a41.543,41.543,0,0,0,5.564-20.815q0-1.2-.069-2.439a27.927,27.927,0,0,0-3.872-12.453A41.9,41.9,0,0,0,309.29,10.294a43.019,43.019,0,0,0-8.051-4.1A28.284,28.284,0,0,0,293.6,4.369c-3-.239-5.179-.461-6.745-.684a18.458,18.458,0,0,1-2.565-.507,3.411,3.411,0,0,1-.836-.346.835.835,0,0,1-.212-.18.746.746,0,0,1-.09-.144,3.241,3.241,0,0,1-.164-.438c-.064-.2-.139-.454-.251-.746h0a2.316,2.316,0,0,0-.292-.54,1.927,1.927,0,0,0-.7-.589,1.968,1.968,0,0,0-.872-.2,2.545,2.545,0,0,0-.889.164,4.193,4.193,0,0,0-1.338.854,6.866,6.866,0,0,0-1.576,2.222,7.543,7.543,0,0,0-.672,3.106q0,.284.023.574h0c.041.531.164,2,.348,4.166,1.291,15.173,5.587,64.654,5.587,64.655l.075.861.861.074.087-1.023,1.023-.089-.241-2.788c-.54-6.214-1.893-21.812-3.146-36.3-.626-7.247-1.228-14.222-1.691-19.611-.231-2.695-.428-4.994-.576-6.732s-.248-2.916-.284-3.362h0q-.016-.21-.016-.417a5.458,5.458,0,0,1,.3-1.77,5.112,5.112,0,0,1,1.174-1.937,2.735,2.735,0,0,1,.622-.477.809.809,0,0,1,.328-.113h0l.02-.148-.093.112a.172.172,0,0,0,.074.036l.02-.148-.093.112.067-.08-.077.069.011.01.067-.08-.077.069.025-.023-.026.021h0l.025-.023L280.777,2l.008.013a.374.374,0,0,1,.023.051h0c.084.215.146.426.22.656a5,5,0,0,0,.256.671,2.777,2.777,0,0,0,.423.641,2.9,2.9,0,0,0,.567.492,5.2,5.2,0,0,0,1.387.613,22.017,22.017,0,0,0,3.506.656c1.566.2,3.592.4,6.253.613a29.114,29.114,0,0,1,9.623,2.77,43.236,43.236,0,0,1,14.411,10.89,32.607,32.607,0,0,1,4.971,7.744,24.894,24.894,0,0,1,2.2,8.82q.066,1.179.066,2.324A39.48,39.48,0,0,1,319.4,58.751a40.621,40.621,0,0,1-10.442,12.07,14.477,14.477,0,0,1-3.988,2.019,36.992,36.992,0,0,1-7.842,1.614,73.027,73.027,0,0,1-7.751.389c-1.742,0-3.229-.052-4.279-.1-.525-.026-.94-.052-1.222-.072l-.328-.023h-.1l-.087,1.023,1.023-.089-1.023.089Z" transform="translate(-231.062 0)" fill="#231815"/>
        <path id="Path_10-2" data-name="Path 10" d="M102.282,92.6C78.182,91.411,62.2,80.9,59.9,63.711,58.268,51.449,72.982,23.925,86.062,21.2s11.892-3.385,12.7,1.44,6.271,5.625,9.807,5.786S115.8,31,115,36.463s0,8.528,3.216,11.414,1.77,11.577-.8,12.218S111.3,70.224,112.747,73.76,107.9,92.869,102.282,92.6Z" transform="translate(-49.974 -15.953)" fill="#cde191"/>
        <path id="Path_11-2" data-name="Path 11" d="M97.042,87.332l.051-1.027a71.469,71.469,0,0,1-16.236-2.557C73.6,81.656,67.715,78.38,63.448,74.1a26.949,26.949,0,0,1-7.772-15.79,14.209,14.209,0,0,1-.118-1.866,25.625,25.625,0,0,1,.6-5.163,53.074,53.074,0,0,1,3.608-10.66,65.451,65.451,0,0,1,9.676-15.46,34.753,34.753,0,0,1,5.812-5.46,15.571,15.571,0,0,1,5.766-2.75c3.116-.648,5.412-1.179,7.116-1.545.85-.182,1.548-.328,2.111-.417a8.252,8.252,0,0,1,1.276-.136,1.743,1.743,0,0,1,.344.028.38.38,0,0,1,.1.03h0l.016.021a.984.984,0,0,1,.1.235,6.994,6.994,0,0,1,.184.909c.062.4.131.9.226,1.476a7.017,7.017,0,0,0,.6,1.9,6.7,6.7,0,0,0,2.011,2.43,10.85,10.85,0,0,0,4.111,1.8,22.8,22.8,0,0,0,4.077.5,7.042,7.042,0,0,1,2.07.405,5.81,5.81,0,0,1,1.374.71,4.791,4.791,0,0,1,1.515,1.73,5.83,5.83,0,0,1,.6,2.709,9.018,9.018,0,0,1-.1,1.312h0a25.237,25.237,0,0,0-.3,3.646,13.818,13.818,0,0,0,.216,2.555,9.9,9.9,0,0,0,1.243,3.316,12.312,12.312,0,0,0,2.383,2.816,3.362,3.362,0,0,1,.643.807,6.006,6.006,0,0,1,.656,1.76,10.343,10.343,0,0,1,.216,2.163,11.808,11.808,0,0,1-.687,4.034,4.92,4.92,0,0,1-.684,1.282,1.7,1.7,0,0,1-.31.312.563.563,0,0,1-.19.1,2.637,2.637,0,0,0-.676.279,4.474,4.474,0,0,0-1.043.868,11.193,11.193,0,0,0-1.533,2.258,23.189,23.189,0,0,0-1.786,4.48,17.7,17.7,0,0,0-.743,4.666,6.644,6.644,0,0,0,.413,2.493h0a2.788,2.788,0,0,1,.134.984,10.786,10.786,0,0,1-.226,2,27.154,27.154,0,0,1-1.407,4.63,29.2,29.2,0,0,1-3.785,6.888,10.835,10.835,0,0,1-2.186,2.189,4.564,4.564,0,0,1-1.012.554,2.5,2.5,0,0,1-.881.174h-.1l-.051,1.027L97,88.364h.2a4.945,4.945,0,0,0,2.393-.672,9.02,9.02,0,0,0,1.855-1.407,19.025,19.025,0,0,0,2.842-3.633,34.806,34.806,0,0,0,3.188-6.74,27.843,27.843,0,0,0,.93-3.25,13.554,13.554,0,0,0,.346-2.788,4.7,4.7,0,0,0-.287-1.763v0A4.684,4.684,0,0,1,108.2,66.4a14.454,14.454,0,0,1,.449-3.28,21.406,21.406,0,0,1,1.894-5.012,9.209,9.209,0,0,1,1.132-1.679,3.084,3.084,0,0,1,.476-.444.866.866,0,0,1,.269-.144,2.6,2.6,0,0,0,.912-.438,4.338,4.338,0,0,0,1.127-1.312,9.786,9.786,0,0,0,1.022-2.727,14.628,14.628,0,0,0,.366-3.244,11.62,11.62,0,0,0-.479-3.423,7.4,7.4,0,0,0-.667-1.538,5.4,5.4,0,0,0-1.041-1.3,9.46,9.46,0,0,1-2.422-3.165,8.1,8.1,0,0,1-.558-1.815A11.776,11.776,0,0,1,110.5,34.7a23.2,23.2,0,0,1,.279-3.347v0a11.043,11.043,0,0,0,.123-1.609,8.036,8.036,0,0,0-.656-3.3A6.779,6.779,0,0,0,109,24.569a7.406,7.406,0,0,0-2.624-1.781,9.02,9.02,0,0,0-3-.656,23.021,23.021,0,0,1-2.788-.28,13.385,13.385,0,0,1-2.122-.526,6.887,6.887,0,0,1-2.59-1.5,4.5,4.5,0,0,1-.85-1.128,4.89,4.89,0,0,1-.492-1.494c-.1-.615-.172-1.148-.251-1.624a7.992,7.992,0,0,0-.216-1.005,3.071,3.071,0,0,0-.307-.712,2.112,2.112,0,0,0-1.266-.958,3.477,3.477,0,0,0-.956-.118,10.122,10.122,0,0,0-1.612.164c-.93.154-2.093.407-3.608.741s-3.383.753-5.7,1.235A16.058,16.058,0,0,0,75.6,17a34.863,34.863,0,0,0-8.261,7.462,68.263,68.263,0,0,0-9.806,16.12,57.207,57.207,0,0,0-2.941,8.38A30.475,30.475,0,0,0,53.51,56.44a16.236,16.236,0,0,0,.134,2.139A29.135,29.135,0,0,0,58,70.6a30.757,30.757,0,0,0,6.416,7.15,42.911,42.911,0,0,0,14.024,7.41,71.3,71.3,0,0,0,18.55,3.2h0l.051-1.027Z" transform="translate(-44.734 -10.69)" fill="#231815"/>
        <path id="Path_12-2" data-name="Path 12" d="M97.113,82.528c.328-.751,6.322-21.866,20.792-27.068-2.709,3.154-6.106,4.379-8.111,8.576-2.788,5.829-10,19.278-10,22.78S126.048,74.7,126.048,74.7s-10.286,8.933-13.72,10.112-13.505,4.894-13.505,4.894l7.823,14.685,23.48-19.578s-11.152,15.934-21.758,20.756c-2.535,1.148-13.827-16.184-13.827-16.184Z" transform="translate(-79.035 -46.364)" fill="#ecf4e1"/>
        <path id="Path_13-2" data-name="Path 13" d="M409.339,45.669s-3.608,7.183-5.971,8.036,4.458-.856,5.971-4.717,1.64-2.25,1.64-2.25,7.933,6.432,9.11,10.5,4.933,12.336,3.644,18.981a5.8,5.8,0,0,0,2.46,0s-1.838-16.528-4.943-20.552a45.26,45.26,0,0,0-9.2-9c-2-1.269-9.746-5.492-12.326-5.279" transform="translate(-334.166 -34.587)" fill="#ecf4e1"/>
        <path id="Path_14-2" data-name="Path 14" d="M58.365,186.43c-12.71.1-36.5-3.077-44.052-22.37S7.884,139.6,7.884,139.449s-1.287-3.364-1.609-4.328,10.773-6.27,10.129-2.411,6.432,6.271,5.788,8.843,1.77-1.125,6.591,2.091,7.4,6.109,6.111,8.681,1.286,8.036,2.732,12.7,6.432-6.43,8.364.328,5.9,9.807,5.607,12.379,10.747-1.63,12.526,3.134-2.545,5.547-5.755,5.576Z" transform="translate(-5.24 -109.785)" fill="#8fc31f"/>
        <path id="Path_15-2" data-name="Path 15" d="M53.124,181.211v-1.028h-.563a67.217,67.217,0,0,1-23.395-3.988,37.673,37.673,0,0,1-11.283-6.614,28.262,28.262,0,0,1-7.849-11.116,126.174,126.174,0,0,1-5.384-16.39,31.105,31.105,0,0,1-1.043-6.84c0-.307.013-.518.026-.656a.887.887,0,0,1,.016-.149v-.093a1.076,1.076,0,0,0-.008-.29,1.287,1.287,0,0,0-.03-.134c-.016-.059-.031-.107-.049-.164-.034-.1-.077-.22-.13-.362-.184-.492-.482-1.269-.768-2.016-.143-.372-.282-.738-.4-1.055s-.215-.585-.271-.749l-.843.28h.889a.892.892,0,0,0-.046-.28l-.843.28h.085L2,130.15a.805.805,0,0,0,.052-.29h-.8l.751.29-.518-.2.464.307A.561.561,0,0,0,2,130.15l-.518-.2.464.307-.187-.123.177.136.01-.013-.187-.123.177.136h0a.911.911,0,0,1,.09-.089,4.721,4.721,0,0,1,.505-.374,15.577,15.577,0,0,1,1.547-.876,23.176,23.176,0,0,1,3.016-1.26,13.5,13.5,0,0,1,1.448-.4,5.741,5.741,0,0,1,1.14-.141,1.882,1.882,0,0,1,.4.036.535.535,0,0,1,.123.039h0l.082-.12-.128.064a.179.179,0,0,0,.046.056l.082-.12-.128.064.11-.056-.116.041v.015l.11-.056-.116.041.036-.013-.038.01h0l.036-.013-.038.01a.238.238,0,0,1,0,.051.856.856,0,0,1-.013.136h0a4.066,4.066,0,0,0-.056.664A4.252,4.252,0,0,0,10.4,129.6a7.38,7.38,0,0,0,1.561,2.255c.472.492.984.945,1.466,1.371a25.307,25.307,0,0,1,1.893,1.733,3.5,3.5,0,0,1,.5.656,1.165,1.165,0,0,1,.1.228.52.52,0,0,1,.023.144.351.351,0,0,1-.011.087h0c-.039.164-.071.3-.093.441a2.668,2.668,0,0,0-.039.431,1.6,1.6,0,0,0,.064.466,1.3,1.3,0,0,0,.207.41,1.247,1.247,0,0,0,.272.264,1.3,1.3,0,0,0,.453.2,1.567,1.567,0,0,0,.359.039,3.018,3.018,0,0,0,.556-.062c.248-.048.492-.1.766-.148a5.619,5.619,0,0,1,.912-.079,5.217,5.217,0,0,1,1.538.236,7.707,7.707,0,0,1,2.025.992h0a24.972,24.972,0,0,1,4.526,3.66,7.125,7.125,0,0,1,1.12,1.556,2.788,2.788,0,0,1,.328,1.245,1.978,1.978,0,0,1-.221.9,4.92,4.92,0,0,0-.458,2.214,11.984,11.984,0,0,0,.343,2.624,42.2,42.2,0,0,0,1.312,4.3c.51,1.476,1.051,2.952,1.476,4.335a4.13,4.13,0,0,0,.3.728,2.7,2.7,0,0,0,.313.467,2.019,2.019,0,0,0,.672.53,1.884,1.884,0,0,0,.82.182,2.5,2.5,0,0,0,.973-.215,4.642,4.642,0,0,0,.705-.382,12.96,12.96,0,0,0,1.127-.845c.546-.446,1.082-.9,1.555-1.217a3.773,3.773,0,0,1,.628-.353,1.03,1.03,0,0,1,.376-.1.249.249,0,0,1,.113.023.434.434,0,0,1,.112.08,1.6,1.6,0,0,1,.305.433,5.182,5.182,0,0,1,.366.964h0a29.925,29.925,0,0,0,3.623,7.8c.592.956,1.11,1.768,1.458,2.444a5.922,5.922,0,0,1,.385.9,2.227,2.227,0,0,1,.118.666,1.421,1.421,0,0,1-.01.164h0a1.9,1.9,0,0,0-.013.221,1.66,1.66,0,0,0,.1.574,1.591,1.591,0,0,0,.256.451,1.817,1.817,0,0,0,.631.492,3.229,3.229,0,0,0,.984.269,8.363,8.363,0,0,0,1.059.057c.712,0,1.5-.052,2.337-.1s1.7-.1,2.535-.1a9.9,9.9,0,0,1,3.144.4,3.022,3.022,0,0,1,.984.546,1.945,1.945,0,0,1,.561.81,4.776,4.776,0,0,1,.351,1.64,2.15,2.15,0,0,1-.1.686,1.64,1.64,0,0,1-.225.441,2.235,2.235,0,0,1-.722.623,5.75,5.75,0,0,1-1.858.607,14.013,14.013,0,0,1-2.245.18h0v2.055a16.727,16.727,0,0,0,2.239-.156,9.911,9.911,0,0,0,1.706-.389,6.318,6.318,0,0,0,1.2-.533A4.187,4.187,0,0,0,59.7,179.77a3.957,3.957,0,0,0,.581-2.132,6.8,6.8,0,0,0-.481-2.367,4.013,4.013,0,0,0-1.137-1.64,4.788,4.788,0,0,0-1.214-.758,7.811,7.811,0,0,0-2.071-.556,15.918,15.918,0,0,0-2.2-.134c-.915,0-1.824.052-2.66.1s-1.6.1-2.212.1a6.925,6.925,0,0,1-.713-.031,2.3,2.3,0,0,1-.338-.057.612.612,0,0,1-.1-.034h0l-.19.305.3-.179a.382.382,0,0,0-.113-.126l-.19.305.3-.179-.361.212h.423a.444.444,0,0,0-.062-.212l-.361.212h.254l.164.02v-.02H47.16l.164.02h0a3.465,3.465,0,0,0,.023-.4,4.264,4.264,0,0,0-.213-1.284,10.644,10.644,0,0,0-1.035-2.148c-.656-1.1-1.463-2.307-2.257-3.759a24.886,24.886,0,0,1-2.158-5.187v0a7.491,7.491,0,0,0-.454-1.22,4.278,4.278,0,0,0-.44-.723,2.739,2.739,0,0,0-.889-.777,2.311,2.311,0,0,0-1.089-.269,2.952,2.952,0,0,0-1.027.2,6.259,6.259,0,0,0-1.476.851c-.341.251-.667.518-.984.774-.466.384-.9.746-1.261.984a2.779,2.779,0,0,1-.446.249.838.838,0,0,1-.128.044h-.031v.164l.061-.144a.177.177,0,0,0-.061-.015v.164l.061-.144-.052.128.09-.108a.15.15,0,0,0-.036-.021l-.052.128.09-.108h0a.592.592,0,0,1-.085-.128,2.131,2.131,0,0,1-.144-.362c-.6-1.932-1.373-3.956-1.986-5.83-.307-.936-.572-1.834-.759-2.652a10.012,10.012,0,0,1-.29-2.16,2.916,2.916,0,0,1,.241-1.3,4.046,4.046,0,0,0,.438-1.822,4.828,4.828,0,0,0-.554-2.166,10.937,10.937,0,0,0-2.426-3.009,32.069,32.069,0,0,0-3.885-3h0a9.758,9.758,0,0,0-2.567-1.248,7.277,7.277,0,0,0-2.132-.328,8.092,8.092,0,0,0-1.568.164l-.492.1-.141.023h-.033v.531l.153-.507a.538.538,0,0,0-.153-.026v.531l.153-.507-.223.743.467-.617a.781.781,0,0,0-.246-.126l-.223.743.467-.617-.492.646.656-.469a.82.82,0,0,0-.172-.179l-.492.646.656-.469-.576.435.712-.164a.733.733,0,0,0-.116-.251l-.6.415.712-.164-.387.092h.4a.4.4,0,0,0-.013-.092l-.387.092h.4a2.316,2.316,0,0,1,.071-.371h0a2.416,2.416,0,0,0,.072-.585,2.581,2.581,0,0,0-.108-.728,3.716,3.716,0,0,0-.592-1.148,11.128,11.128,0,0,0-1.584-1.64c-.44-.39-.9-.776-1.332-1.164a11.049,11.049,0,0,1-1.65-1.743,3.756,3.756,0,0,1-.454-.82,2.155,2.155,0,0,1-.149-.772,1.986,1.986,0,0,1,.028-.328h0a2.878,2.878,0,0,0,.041-.474,2.112,2.112,0,0,0-.22-.964,1.888,1.888,0,0,0-.464-.584,2.27,2.27,0,0,0-.905-.454,3.754,3.754,0,0,0-.945-.11,7.4,7.4,0,0,0-1.378.148,16.739,16.739,0,0,0-2.6.761,24.852,24.852,0,0,0-3.621,1.689,10.03,10.03,0,0,0-1.273.85,3.19,3.19,0,0,0-.469.458,1.688,1.688,0,0,0-.21.328,1.268,1.268,0,0,0-.131.554,1.168,1.168,0,0,0,.059.369c.09.271.233.656.4,1.1.251.666.558,1.455.8,2.089.121.317.226.6.3.794.036.1.064.177.079.223v.025h0l.512-.144-.505.108v.033l.512-.144-.512.112.845-.18-.858.126a.093.093,0,0,0,.01.057l.848-.184-.858.126.966-.143H1.609a.948.948,0,0,0,.01.143l.966-.143H2.544l-.93-.1a.871.871,0,0,0,0,.1h.935l-.93-.1.587.061-.587-.069v.01l.587.061-.587-.069h0a.488.488,0,0,1-.015.116,8.488,8.488,0,0,0-.048.987,32.8,32.8,0,0,0,1.089,7.314,127.891,127.891,0,0,0,5.469,16.664,30.325,30.325,0,0,0,8.41,11.915c5.3,4.628,11.885,7.391,18.342,9.02a73.726,73.726,0,0,0,17.687,2.1h.582v-1.027Z" transform="translate(0 -104.566)" fill="#231815"/>
        <path id="Path_16-2" data-name="Path 16" d="M302.08,194.618s4.5-7.236,7.395-12.539,4.663-13.505,8.528-9.646,6.752.328,9-4.341-.963-11.395,3.7-11.324,9.646-3.146,11.416-1.055,5.3-.8,6.591-4.02-5.145-10.77-2.25-10.129,10.45,9.807,4.823,21.705-6.922,33.438-35.7,32.8c-6.671-.148-14.284-.182-13.505-1.446Z" transform="translate(-252.492 -118.315)" fill="#8fc31f"/>
        <path id="Path_17-2" data-name="Path 17" d="M296.819,189.421l.872.543s1.13-1.815,2.624-4.294,3.344-5.622,4.8-8.3c.62-1.135,1.174-2.368,1.7-3.578.4-.907.779-1.8,1.148-2.624.282-.617.563-1.194.84-1.7a7.847,7.847,0,0,1,1.2-1.737,1.967,1.967,0,0,1,.482-.372.725.725,0,0,1,.336-.089.943.943,0,0,1,.436.125,3.088,3.088,0,0,1,.738.574,7.558,7.558,0,0,0,1.932,1.446,4.455,4.455,0,0,0,2,.492,4.325,4.325,0,0,0,2.178-.613,6.692,6.692,0,0,0,1.36-1.064,12.736,12.736,0,0,0,1.715-2.207,26.926,26.926,0,0,0,1.476-2.681,11.142,11.142,0,0,0,.971-4.1c.071-1.012.061-1.989.066-2.873,0-.656.013-1.271.061-1.789a5.317,5.317,0,0,1,.164-.984,1.979,1.979,0,0,1,.2-.474,1.019,1.019,0,0,1,.164-.215.938.938,0,0,1,.356-.207,2.2,2.2,0,0,1,.71-.1h.225a21.006,21.006,0,0,0,5.412-.917c.82-.223,1.594-.439,2.28-.6a8.167,8.167,0,0,1,1.738-.249,2.041,2.041,0,0,1,.692.1.809.809,0,0,1,.361.244v0a3.031,3.031,0,0,0,1.046.809,2.919,2.919,0,0,0,1.23.264,4.166,4.166,0,0,0,1.9-.507,8.265,8.265,0,0,0,2.421-2.007,10.568,10.568,0,0,0,1.737-2.859l-.008.021.008-.021a3.7,3.7,0,0,0,.246-1.379,6.3,6.3,0,0,0-.164-1.346,13.871,13.871,0,0,0-.789-2.353c-.492-1.163-1.079-2.3-1.528-3.236-.225-.467-.415-.887-.54-1.214a3.812,3.812,0,0,1-.133-.405,1.221,1.221,0,0,1-.025-.12V136.8H341.1l.348.107a.394.394,0,0,0,.02-.107H341.1l.348.107-.617-.19.522.379a.656.656,0,0,0,.1-.189l-.617-.19.522.379-.559-.405.266.64a.707.707,0,0,0,.3-.235l-.559-.405.266.64-.164-.4v.443a.459.459,0,0,0,.164-.039l-.164-.4v.443h0a.61.61,0,0,1,.084.015,2.183,2.183,0,0,1,.6.271,7.739,7.739,0,0,1,1.678,1.466,14.706,14.706,0,0,1,2.578,4.233,16.377,16.377,0,0,1,1.189,6.148,18.941,18.941,0,0,1-1.93,8.146c-1.428,3.023-2.552,6.56-3.879,10.157a59.693,59.693,0,0,1-3.5,8,29.935,29.935,0,0,1-3.738,5.438,23.187,23.187,0,0,1-8.577,6.168,35.217,35.217,0,0,1-13.83,2.449q-.6,0-1.225-.013c-3.182-.071-6.56-.115-9.12-.277-.638-.041-1.223-.089-1.735-.144-.384-.043-.728-.089-1.02-.139-.218-.038-.408-.079-.561-.118a2.712,2.712,0,0,1-.272-.084.839.839,0,0,1-.1-.041h0l-.233.369.346-.254a.445.445,0,0,0-.113-.115l-.233.369.346-.254-.581.426.679-.239a.723.723,0,0,0-.1-.187l-.581.426.679-.239-.733.259h.777a.783.783,0,0,0-.044-.259l-.733.259h.03l.713.228a.757.757,0,0,0,.034-.228h-.749l.713.228-.6-.19.533.328a.627.627,0,0,0,.062-.139l-.6-.19.533.328h0l-.872-.543-.889-.538a1.427,1.427,0,0,0-.146.317,1.311,1.311,0,0,0-.062.4,1.282,1.282,0,0,0,.1.505,1.364,1.364,0,0,0,.233.366,1.776,1.776,0,0,0,.507.389,3.149,3.149,0,0,0,.479.2,7.325,7.325,0,0,0,1.028.246c.666.116,1.465.2,2.371.271,1.36.1,2.952.164,4.651.21s3.475.077,5.192.115q.645.015,1.271.015c7.021,0,12.454-1.346,16.713-3.6a25.273,25.273,0,0,0,7.746-6.335,42.491,42.491,0,0,0,6.588-12.1c1.588-4.143,2.811-8.171,4.325-11.364a21.032,21.032,0,0,0,2.132-9.02,18.478,18.478,0,0,0-.82-5.443,17.344,17.344,0,0,0-3.165-5.949,11.392,11.392,0,0,0-1.853-1.8,6.559,6.559,0,0,0-.909-.582,3.772,3.772,0,0,0-.917-.348,2.434,2.434,0,0,0-.53-.062,1.64,1.64,0,0,0-.546.089,1.361,1.361,0,0,0-.84.831,1.648,1.648,0,0,0-.093.564,2.513,2.513,0,0,0,.057.512,5.621,5.621,0,0,0,.285.9c.215.54.5,1.133.812,1.768.466.95.984,1.991,1.381,2.978a11.762,11.762,0,0,1,.474,1.405,4.7,4.7,0,0,1,.164,1.148,1.667,1.667,0,0,1-.1.617h0a8.551,8.551,0,0,1-1.975,2.909,5.429,5.429,0,0,1-1.2.882,2.154,2.154,0,0,1-.954.279.861.861,0,0,1-.371-.075.974.974,0,0,1-.338-.269h0A2.876,2.876,0,0,0,336.41,149a4.056,4.056,0,0,0-1.4-.223,10.067,10.067,0,0,0-2.2.3c-1.137.261-2.347.633-3.58.933a15.688,15.688,0,0,1-3.649.528h-.225a4.579,4.579,0,0,0-.984.1,3.337,3.337,0,0,0-.82.294,2.951,2.951,0,0,0-1.135,1.04,4.062,4.062,0,0,0-.492,1.173,10.078,10.078,0,0,0-.262,2.253c-.031,1.179.013,2.44-.071,3.662a9.255,9.255,0,0,1-.772,3.385,18.122,18.122,0,0,1-2.46,3.985,5.223,5.223,0,0,1-1.258,1.082,2.265,2.265,0,0,1-1.148.338,2.4,2.4,0,0,1-1.082-.282,5.533,5.533,0,0,1-1.4-1.063,5.1,5.1,0,0,0-1.25-.946,3,3,0,0,0-1.378-.353,2.7,2.7,0,0,0-.777.115,3.379,3.379,0,0,0-1.222.7,5.9,5.9,0,0,0-.843.915,13.8,13.8,0,0,0-1.241,2.05c-.581,1.138-1.13,2.426-1.691,3.713s-1.155,2.575-1.758,3.688c-1.433,2.624-3.28,5.756-4.756,8.221-.741,1.233-1.392,2.3-1.86,3.06l-.559.889L296,188.8l-.051.082h0l.874.54Z" transform="translate(-247.23 -113.119)" fill="#231815"/>
        <path id="Path_18-2" data-name="Path 18" d="M68.418,269.9a98.247,98.247,0,0,1-10.043-7.915c-.218-.2,6.283-8.364,5.758-8.856s-7.359,7.164-7.557,6.967a90.21,90.21,0,0,1-6.378-6.573c-.138-.164,8.925-9.817,8.789-9.986-.1-.126-9.832,8.71-9.935,8.579-4.31-5.451-7.473-11.431-7.216-17.008.643,15.826,6,19.9,6,19.9s5.9,8.782,11.365,11.039S68.418,269.9,68.418,269.9Z" transform="translate(-34.962 -196.552)" fill="#ddedce"/>
        <path id="Path_19-2" data-name="Path 19" d="M454.2,302.91c-.484-2.573-1.878-8.174-1.878-12.676s.328-4.5,1.005-6.189c.328-.83.089,3.788.684,8.279.617,4.651,1.781,8.759,2.273,9.045.963.564,8.256-11.216,9.463-15.073s3.149-8.764,4.031-9.405c.4-.292-.648,1.957-1.619,4.449-1.164,2.981-2.329,6.325-2.329,6.325s-4.9,11.282-6.86,12.379c-1.2,1.178-7.77,6.4-10.047,6.458-.358,0-3.785.973-3.724.828.328-.782,9.005-4.42,9.005-4.42Z" transform="translate(-372.183 -231.458)" fill="#ddedce"/>
      </g>
    </g>
    <g id="圖層_2-3" data-name="圖層 2" transform="translate(1306.5 807.132)">
      <g id="Layer_1-3" data-name="Layer 1" transform="translate(0 0)">
        <path id="Path_4-3" data-name="Path 4" d="M463.13,59.806c2.573-2.893,3.646-6,6.325-3.321s5.143,5.248,7.4,5.788,7.072,11.549,7.823,13.76S481.352,88,481.352,88Z" transform="translate(-387.177 -46.366)" fill="#80b019"/>
        <path id="Path_5-3" data-name="Path 5" d="M456.584,54.546l.767.682c.492-.559.933-1.115,1.327-1.629a19.619,19.619,0,0,1,1.514-1.853,2.513,2.513,0,0,1,.533-.425.843.843,0,0,1,.177-.075.492.492,0,0,1,.133-.02.82.82,0,0,1,.389.12,3.393,3.393,0,0,1,.759.6h0c1.335,1.335,2.634,2.662,3.92,3.754a15.526,15.526,0,0,0,1.94,1.433,7.113,7.113,0,0,0,2.025.876h0l.033-.138-.041.136h.008l.033-.138-.041.136.016-.056-.018.056h0l.016-.056-.018.056h0a.892.892,0,0,1,.2.128,5.314,5.314,0,0,1,.8.874,24.486,24.486,0,0,1,1.829,2.881c.958,1.715,1.922,3.708,2.7,5.427.389.861.73,1.653,1,2.309s.472,1.179.572,1.476h0a1.377,1.377,0,0,1,.038.379,7.026,7.026,0,0,1-.131,1.184,26.754,26.754,0,0,1-.758,2.952c-.492,1.61-1.109,3.3-1.6,4.576-.244.64-.457,1.178-.61,1.555l-.179.438-.048.115-.016.038.948.4.863-.558-18.217-28.19-.863.558.767.682-.767-.682-.863.558L475,84.93l.751-1.8c0-.011.864-2.068,1.729-4.528.433-1.232.866-2.562,1.2-3.8.164-.62.305-1.217.405-1.773a8.963,8.963,0,0,0,.164-1.55,3.246,3.246,0,0,0-.146-1.04h0c-.1-.31-.267-.733-.481-1.26-.743-1.834-2.1-4.872-3.537-7.544a31.975,31.975,0,0,0-2.171-3.57,9.39,9.39,0,0,0-1.077-1.268,4.025,4.025,0,0,0-.581-.466,2.3,2.3,0,0,0-.712-.315h0a5.1,5.1,0,0,1-1.432-.64,17.06,17.06,0,0,1-2.58-2.043c-.92-.85-1.886-1.83-2.895-2.839l-.011-.011.013.013a5.377,5.377,0,0,0-1.243-.961,2.869,2.869,0,0,0-1.356-.362,2.576,2.576,0,0,0-.9.164,3.772,3.772,0,0,0-1.241.807,14.206,14.206,0,0,0-1.491,1.74c-.492.641-1.005,1.323-1.588,1.978l-.52.584.425.656.863-.558Z" transform="translate(-380.631 -41.106)" fill="#231815"/>
        <path id="Path_6-3" data-name="Path 6" d="M52.561,68.921c-.108-2.788-1.287-10.611,2.143-9.968S62,57.879,61.783,55.091s3.537-5.576,5.576-4.072,8.364,3.537,11.575,2.788-21.32,21.648-21.32,21.648Z" transform="translate(-43.705 -42.299)" fill="#80b019"/>
        <path id="Path_7-3" data-name="Path 7" d="M47.312,63.7l1.027-.039c-.025-.631-.1-1.442-.164-2.345s-.121-1.886-.121-2.822a15.782,15.782,0,0,1,.08-1.691,7.166,7.166,0,0,1,.189-1.028,3.28,3.28,0,0,1,.2-.561,1.519,1.519,0,0,1,.164-.267.574.574,0,0,1,.185-.164.435.435,0,0,1,.215-.046,1.055,1.055,0,0,1,.194.02h0a9.02,9.02,0,0,0,1.663.153,9.184,9.184,0,0,0,2.355-.305,6.862,6.862,0,0,0,2.944-1.558,4.428,4.428,0,0,0,.966-1.312,3.772,3.772,0,0,0,.371-1.64q0-.149-.011-.3h0v-.153a2.565,2.565,0,0,1,.285-1.125A4.156,4.156,0,0,1,59.177,47a3.639,3.639,0,0,1,.843-.444,2.273,2.273,0,0,1,.763-.146,1.35,1.35,0,0,1,.4.056,1.077,1.077,0,0,1,.328.164h0a8.216,8.216,0,0,0,.889.567,17.557,17.557,0,0,0,2.042.936,26.88,26.88,0,0,0,3.772,1.148,17.994,17.994,0,0,0,3.87.492,8.138,8.138,0,0,0,1.835-.187h0l-.1-.415v.425a.449.449,0,0,0,.1-.008l-.1-.415v-.361l-.218.753a.787.787,0,0,0,.218.033v-.784l-.218.753.249-.859-.5.74a.9.9,0,0,0,.253.12l.249-.859-.5.74.518-.766-.843.379a.933.933,0,0,0,.328.387l.518-.766-.843.379.8-.358h-.876a.872.872,0,0,0,.079.358l.8-.358h-.208l-.643-.182a.656.656,0,0,0-.023.182h.666l-.643-.182.3.084-.29-.108v.025l.3.084-.29-.108.051.02-.049-.021h0l.051.02L73,48.491a1.231,1.231,0,0,1-.082.144,7.76,7.76,0,0,1-.531.715c-.462.569-1.148,1.327-1.968,2.2-1.448,1.528-3.349,3.419-5.379,5.389-3.045,2.952-6.384,6.091-8.963,8.489-1.289,1.2-2.386,2.211-3.162,2.926l-.905.831-.328.3.692.759.82-.626-5.058-6.54-.82.626,1.027-.039-1.027.039-.82.626,5.719,7.424L53.03,71s5.412-4.938,10.824-10.107c2.708-2.585,5.412-5.227,7.462-7.349,1.023-1.063,1.879-1.993,2.5-2.74a11.181,11.181,0,0,0,.758-1,3.49,3.49,0,0,0,.254-.454,1.906,1.906,0,0,0,.1-.267,1.388,1.388,0,0,0,.054-.377,1.184,1.184,0,0,0-.077-.425,1.135,1.135,0,0,0-.213-.349,1.148,1.148,0,0,0-.492-.32,1.25,1.25,0,0,0-.407-.066,1.622,1.622,0,0,0-.371.046h0a6.127,6.127,0,0,1-1.369.134,14.432,14.432,0,0,1-2.555-.264,24.562,24.562,0,0,1-4.031-1.123c-.615-.23-1.179-.472-1.656-.707a7.687,7.687,0,0,1-1.12-.656h0a3.137,3.137,0,0,0-.943-.476,3.411,3.411,0,0,0-1-.146,4.531,4.531,0,0,0-1.919.459,6.266,6.266,0,0,0-2.321,1.917,5.553,5.553,0,0,0-.745,1.355,4.454,4.454,0,0,0-.29,1.556q0,.154.011.31h0v.143a1.7,1.7,0,0,1-.077.508,2.112,2.112,0,0,1-.5.82,4.31,4.31,0,0,1-1.656,1.017,7.091,7.091,0,0,1-3.6.287h0a3.116,3.116,0,0,0-.571-.054,2.53,2.53,0,0,0-.945.175,2.444,2.444,0,0,0-.7.426,3.191,3.191,0,0,0-.781,1.079,6.8,6.8,0,0,0-.52,1.955A16.82,16.82,0,0,0,46,58.492c0,1.018.061,2.048.126,2.968s.136,1.732.164,2.278l.013.328.2.259.82-.626Z" transform="translate(-38.456 -37.076)" fill="#231815"/>
        <path id="Path_8-3" data-name="Path 8" d="M288.6,80.9s18.824,1.609,26.22-4.018A41.54,41.54,0,0,0,330.89,41.829c-.969-17.2-20.093-30.225-32.149-31.191S287.809,9.029,287,6.94s-4.664.966-4.341,5.146S288.6,80.9,288.6,80.9Z" transform="translate(-236.29 -5.238)" fill="#cde191"/>
        <path id="Path_9-3" data-name="Path 9" d="M283.37,75.658l-.087,1.023c.021,0,2.537.216,6.1.216a68.441,68.441,0,0,0,10.824-.787,33.606,33.606,0,0,0,5.44-1.327,16.316,16.316,0,0,0,4.561-2.326A43.113,43.113,0,0,0,321.2,59.787a41.543,41.543,0,0,0,5.564-20.815q0-1.2-.069-2.439a27.927,27.927,0,0,0-3.872-12.453A41.9,41.9,0,0,0,309.29,10.294a43.019,43.019,0,0,0-8.051-4.1A28.284,28.284,0,0,0,293.6,4.369c-3-.239-5.179-.461-6.745-.684a18.458,18.458,0,0,1-2.565-.507,3.411,3.411,0,0,1-.836-.346.835.835,0,0,1-.212-.18.746.746,0,0,1-.09-.144,3.241,3.241,0,0,1-.164-.438c-.064-.2-.139-.454-.251-.746h0a2.316,2.316,0,0,0-.292-.54,1.927,1.927,0,0,0-.7-.589,1.968,1.968,0,0,0-.872-.2,2.545,2.545,0,0,0-.889.164,4.193,4.193,0,0,0-1.338.854,6.866,6.866,0,0,0-1.576,2.222,7.543,7.543,0,0,0-.672,3.106q0,.284.023.574h0c.041.531.164,2,.348,4.166,1.291,15.173,5.587,64.654,5.587,64.655l.075.861.861.074.087-1.023,1.023-.089-.241-2.788c-.54-6.214-1.893-21.812-3.146-36.3-.626-7.247-1.228-14.222-1.691-19.611-.231-2.695-.428-4.994-.576-6.732s-.248-2.916-.284-3.362h0q-.016-.21-.016-.417a5.458,5.458,0,0,1,.3-1.77,5.112,5.112,0,0,1,1.174-1.937,2.735,2.735,0,0,1,.622-.477.809.809,0,0,1,.328-.113h0l.02-.148-.093.112a.172.172,0,0,0,.074.036l.02-.148-.093.112.067-.08-.077.069.011.01.067-.08-.077.069.025-.023-.026.021h0l.025-.023L280.777,2l.008.013a.374.374,0,0,1,.023.051h0c.084.215.146.426.22.656a5,5,0,0,0,.256.671,2.777,2.777,0,0,0,.423.641,2.9,2.9,0,0,0,.567.492,5.2,5.2,0,0,0,1.387.613,22.017,22.017,0,0,0,3.506.656c1.566.2,3.592.4,6.253.613a29.114,29.114,0,0,1,9.623,2.77,43.236,43.236,0,0,1,14.411,10.89,32.607,32.607,0,0,1,4.971,7.744,24.894,24.894,0,0,1,2.2,8.82q.066,1.179.066,2.324A39.48,39.48,0,0,1,319.4,58.751a40.621,40.621,0,0,1-10.442,12.07,14.477,14.477,0,0,1-3.988,2.019,36.992,36.992,0,0,1-7.842,1.614,73.027,73.027,0,0,1-7.751.389c-1.742,0-3.229-.052-4.279-.1-.525-.026-.94-.052-1.222-.072l-.328-.023h-.1l-.087,1.023,1.023-.089-1.023.089Z" transform="translate(-231.062 0)" fill="#231815"/>
        <path id="Path_10-3" data-name="Path 10" d="M102.282,92.6C78.182,91.411,62.2,80.9,59.9,63.711,58.268,51.449,72.982,23.925,86.062,21.2s11.892-3.385,12.7,1.44,6.271,5.625,9.807,5.786S115.8,31,115,36.463s0,8.528,3.216,11.414,1.77,11.577-.8,12.218S111.3,70.224,112.747,73.76,107.9,92.869,102.282,92.6Z" transform="translate(-49.974 -15.953)" fill="#cde191"/>
        <path id="Path_11-3" data-name="Path 11" d="M97.042,87.332l.051-1.027a71.469,71.469,0,0,1-16.236-2.557C73.6,81.656,67.715,78.38,63.448,74.1a26.949,26.949,0,0,1-7.772-15.79,14.209,14.209,0,0,1-.118-1.866,25.625,25.625,0,0,1,.6-5.163,53.074,53.074,0,0,1,3.608-10.66,65.451,65.451,0,0,1,9.676-15.46,34.753,34.753,0,0,1,5.812-5.46,15.571,15.571,0,0,1,5.766-2.75c3.116-.648,5.412-1.179,7.116-1.545.85-.182,1.548-.328,2.111-.417a8.252,8.252,0,0,1,1.276-.136,1.743,1.743,0,0,1,.344.028.38.38,0,0,1,.1.03h0l.016.021a.984.984,0,0,1,.1.235,6.994,6.994,0,0,1,.184.909c.062.4.131.9.226,1.476a7.017,7.017,0,0,0,.6,1.9,6.7,6.7,0,0,0,2.011,2.43,10.85,10.85,0,0,0,4.111,1.8,22.8,22.8,0,0,0,4.077.5,7.042,7.042,0,0,1,2.07.405,5.81,5.81,0,0,1,1.374.71,4.791,4.791,0,0,1,1.515,1.73,5.83,5.83,0,0,1,.6,2.709,9.018,9.018,0,0,1-.1,1.312h0a25.237,25.237,0,0,0-.3,3.646,13.818,13.818,0,0,0,.216,2.555,9.9,9.9,0,0,0,1.243,3.316,12.312,12.312,0,0,0,2.383,2.816,3.362,3.362,0,0,1,.643.807,6.006,6.006,0,0,1,.656,1.76,10.343,10.343,0,0,1,.216,2.163,11.808,11.808,0,0,1-.687,4.034,4.92,4.92,0,0,1-.684,1.282,1.7,1.7,0,0,1-.31.312.563.563,0,0,1-.19.1,2.637,2.637,0,0,0-.676.279,4.474,4.474,0,0,0-1.043.868,11.193,11.193,0,0,0-1.533,2.258,23.189,23.189,0,0,0-1.786,4.48,17.7,17.7,0,0,0-.743,4.666,6.644,6.644,0,0,0,.413,2.493h0a2.788,2.788,0,0,1,.134.984,10.786,10.786,0,0,1-.226,2,27.154,27.154,0,0,1-1.407,4.63,29.2,29.2,0,0,1-3.785,6.888,10.835,10.835,0,0,1-2.186,2.189,4.564,4.564,0,0,1-1.012.554,2.5,2.5,0,0,1-.881.174h-.1l-.051,1.027L97,88.364h.2a4.945,4.945,0,0,0,2.393-.672,9.02,9.02,0,0,0,1.855-1.407,19.025,19.025,0,0,0,2.842-3.633,34.806,34.806,0,0,0,3.188-6.74,27.843,27.843,0,0,0,.93-3.25,13.554,13.554,0,0,0,.346-2.788,4.7,4.7,0,0,0-.287-1.763v0A4.684,4.684,0,0,1,108.2,66.4a14.454,14.454,0,0,1,.449-3.28,21.406,21.406,0,0,1,1.894-5.012,9.209,9.209,0,0,1,1.132-1.679,3.084,3.084,0,0,1,.476-.444.866.866,0,0,1,.269-.144,2.6,2.6,0,0,0,.912-.438,4.338,4.338,0,0,0,1.127-1.312,9.786,9.786,0,0,0,1.022-2.727,14.628,14.628,0,0,0,.366-3.244,11.62,11.62,0,0,0-.479-3.423,7.4,7.4,0,0,0-.667-1.538,5.4,5.4,0,0,0-1.041-1.3,9.46,9.46,0,0,1-2.422-3.165,8.1,8.1,0,0,1-.558-1.815A11.776,11.776,0,0,1,110.5,34.7a23.2,23.2,0,0,1,.279-3.347v0a11.043,11.043,0,0,0,.123-1.609,8.036,8.036,0,0,0-.656-3.3A6.779,6.779,0,0,0,109,24.569a7.406,7.406,0,0,0-2.624-1.781,9.02,9.02,0,0,0-3-.656,23.021,23.021,0,0,1-2.788-.28,13.385,13.385,0,0,1-2.122-.526,6.887,6.887,0,0,1-2.59-1.5,4.5,4.5,0,0,1-.85-1.128,4.89,4.89,0,0,1-.492-1.494c-.1-.615-.172-1.148-.251-1.624a7.992,7.992,0,0,0-.216-1.005,3.071,3.071,0,0,0-.307-.712,2.112,2.112,0,0,0-1.266-.958,3.477,3.477,0,0,0-.956-.118,10.122,10.122,0,0,0-1.612.164c-.93.154-2.093.407-3.608.741s-3.383.753-5.7,1.235A16.058,16.058,0,0,0,75.6,17a34.863,34.863,0,0,0-8.261,7.462,68.263,68.263,0,0,0-9.806,16.12,57.207,57.207,0,0,0-2.941,8.38A30.475,30.475,0,0,0,53.51,56.44a16.236,16.236,0,0,0,.134,2.139A29.135,29.135,0,0,0,58,70.6a30.757,30.757,0,0,0,6.416,7.15,42.911,42.911,0,0,0,14.024,7.41,71.3,71.3,0,0,0,18.55,3.2h0l.051-1.027Z" transform="translate(-44.734 -10.69)" fill="#231815"/>
        <path id="Path_12-3" data-name="Path 12" d="M97.113,82.528c.328-.751,6.322-21.866,20.792-27.068-2.709,3.154-6.106,4.379-8.111,8.576-2.788,5.829-10,19.278-10,22.78S126.048,74.7,126.048,74.7s-10.286,8.933-13.72,10.112-13.505,4.894-13.505,4.894l7.823,14.685,23.48-19.578s-11.152,15.934-21.758,20.756c-2.535,1.148-13.827-16.184-13.827-16.184Z" transform="translate(-79.035 -46.364)" fill="#ecf4e1"/>
        <path id="Path_13-3" data-name="Path 13" d="M409.339,45.669s-3.608,7.183-5.971,8.036,4.458-.856,5.971-4.717,1.64-2.25,1.64-2.25,7.933,6.432,9.11,10.5,4.933,12.336,3.644,18.981a5.8,5.8,0,0,0,2.46,0s-1.838-16.528-4.943-20.552a45.26,45.26,0,0,0-9.2-9c-2-1.269-9.746-5.492-12.326-5.279" transform="translate(-334.166 -34.587)" fill="#ecf4e1"/>
        <path id="Path_14-3" data-name="Path 14" d="M58.365,186.43c-12.71.1-36.5-3.077-44.052-22.37S7.884,139.6,7.884,139.449s-1.287-3.364-1.609-4.328,10.773-6.27,10.129-2.411,6.432,6.271,5.788,8.843,1.77-1.125,6.591,2.091,7.4,6.109,6.111,8.681,1.286,8.036,2.732,12.7,6.432-6.43,8.364.328,5.9,9.807,5.607,12.379,10.747-1.63,12.526,3.134-2.545,5.547-5.755,5.576Z" transform="translate(-5.24 -109.785)" fill="#8fc31f"/>
        <path id="Path_15-3" data-name="Path 15" d="M53.124,181.211v-1.028h-.563a67.217,67.217,0,0,1-23.395-3.988,37.673,37.673,0,0,1-11.283-6.614,28.262,28.262,0,0,1-7.849-11.116,126.174,126.174,0,0,1-5.384-16.39,31.105,31.105,0,0,1-1.043-6.84c0-.307.013-.518.026-.656a.887.887,0,0,1,.016-.149v-.093a1.076,1.076,0,0,0-.008-.29,1.287,1.287,0,0,0-.03-.134c-.016-.059-.031-.107-.049-.164-.034-.1-.077-.22-.13-.362-.184-.492-.482-1.269-.768-2.016-.143-.372-.282-.738-.4-1.055s-.215-.585-.271-.749l-.843.28h.889a.892.892,0,0,0-.046-.28l-.843.28h.085L2,130.15a.805.805,0,0,0,.052-.29h-.8l.751.29-.518-.2.464.307A.561.561,0,0,0,2,130.15l-.518-.2.464.307-.187-.123.177.136.01-.013-.187-.123.177.136h0a.911.911,0,0,1,.09-.089,4.721,4.721,0,0,1,.505-.374,15.577,15.577,0,0,1,1.547-.876,23.176,23.176,0,0,1,3.016-1.26,13.5,13.5,0,0,1,1.448-.4,5.741,5.741,0,0,1,1.14-.141,1.882,1.882,0,0,1,.4.036.535.535,0,0,1,.123.039h0l.082-.12-.128.064a.179.179,0,0,0,.046.056l.082-.12-.128.064.11-.056-.116.041v.015l.11-.056-.116.041.036-.013-.038.01h0l.036-.013-.038.01a.238.238,0,0,1,0,.051.856.856,0,0,1-.013.136h0a4.066,4.066,0,0,0-.056.664A4.252,4.252,0,0,0,10.4,129.6a7.38,7.38,0,0,0,1.561,2.255c.472.492.984.945,1.466,1.371a25.307,25.307,0,0,1,1.893,1.733,3.5,3.5,0,0,1,.5.656,1.165,1.165,0,0,1,.1.228.52.52,0,0,1,.023.144.351.351,0,0,1-.011.087h0c-.039.164-.071.3-.093.441a2.668,2.668,0,0,0-.039.431,1.6,1.6,0,0,0,.064.466,1.3,1.3,0,0,0,.207.41,1.247,1.247,0,0,0,.272.264,1.3,1.3,0,0,0,.453.2,1.567,1.567,0,0,0,.359.039,3.018,3.018,0,0,0,.556-.062c.248-.048.492-.1.766-.148a5.619,5.619,0,0,1,.912-.079,5.217,5.217,0,0,1,1.538.236,7.707,7.707,0,0,1,2.025.992h0a24.972,24.972,0,0,1,4.526,3.66,7.125,7.125,0,0,1,1.12,1.556,2.788,2.788,0,0,1,.328,1.245,1.978,1.978,0,0,1-.221.9,4.92,4.92,0,0,0-.458,2.214,11.984,11.984,0,0,0,.343,2.624,42.2,42.2,0,0,0,1.312,4.3c.51,1.476,1.051,2.952,1.476,4.335a4.13,4.13,0,0,0,.3.728,2.7,2.7,0,0,0,.313.467,2.019,2.019,0,0,0,.672.53,1.884,1.884,0,0,0,.82.182,2.5,2.5,0,0,0,.973-.215,4.642,4.642,0,0,0,.705-.382,12.96,12.96,0,0,0,1.127-.845c.546-.446,1.082-.9,1.555-1.217a3.773,3.773,0,0,1,.628-.353,1.03,1.03,0,0,1,.376-.1.249.249,0,0,1,.113.023.434.434,0,0,1,.112.08,1.6,1.6,0,0,1,.305.433,5.182,5.182,0,0,1,.366.964h0a29.925,29.925,0,0,0,3.623,7.8c.592.956,1.11,1.768,1.458,2.444a5.922,5.922,0,0,1,.385.9,2.227,2.227,0,0,1,.118.666,1.421,1.421,0,0,1-.01.164h0a1.9,1.9,0,0,0-.013.221,1.66,1.66,0,0,0,.1.574,1.591,1.591,0,0,0,.256.451,1.817,1.817,0,0,0,.631.492,3.229,3.229,0,0,0,.984.269,8.363,8.363,0,0,0,1.059.057c.712,0,1.5-.052,2.337-.1s1.7-.1,2.535-.1a9.9,9.9,0,0,1,3.144.4,3.022,3.022,0,0,1,.984.546,1.945,1.945,0,0,1,.561.81,4.776,4.776,0,0,1,.351,1.64,2.15,2.15,0,0,1-.1.686,1.64,1.64,0,0,1-.225.441,2.235,2.235,0,0,1-.722.623,5.75,5.75,0,0,1-1.858.607,14.013,14.013,0,0,1-2.245.18h0v2.055a16.727,16.727,0,0,0,2.239-.156,9.911,9.911,0,0,0,1.706-.389,6.318,6.318,0,0,0,1.2-.533A4.187,4.187,0,0,0,59.7,179.77a3.957,3.957,0,0,0,.581-2.132,6.8,6.8,0,0,0-.481-2.367,4.013,4.013,0,0,0-1.137-1.64,4.788,4.788,0,0,0-1.214-.758,7.811,7.811,0,0,0-2.071-.556,15.918,15.918,0,0,0-2.2-.134c-.915,0-1.824.052-2.66.1s-1.6.1-2.212.1a6.925,6.925,0,0,1-.713-.031,2.3,2.3,0,0,1-.338-.057.612.612,0,0,1-.1-.034h0l-.19.305.3-.179a.382.382,0,0,0-.113-.126l-.19.305.3-.179-.361.212h.423a.444.444,0,0,0-.062-.212l-.361.212h.254l.164.02v-.02H47.16l.164.02h0a3.465,3.465,0,0,0,.023-.4,4.264,4.264,0,0,0-.213-1.284,10.644,10.644,0,0,0-1.035-2.148c-.656-1.1-1.463-2.307-2.257-3.759a24.886,24.886,0,0,1-2.158-5.187v0a7.491,7.491,0,0,0-.454-1.22,4.278,4.278,0,0,0-.44-.723,2.739,2.739,0,0,0-.889-.777,2.311,2.311,0,0,0-1.089-.269,2.952,2.952,0,0,0-1.027.2,6.259,6.259,0,0,0-1.476.851c-.341.251-.667.518-.984.774-.466.384-.9.746-1.261.984a2.779,2.779,0,0,1-.446.249.838.838,0,0,1-.128.044h-.031v.164l.061-.144a.177.177,0,0,0-.061-.015v.164l.061-.144-.052.128.09-.108a.15.15,0,0,0-.036-.021l-.052.128.09-.108h0a.592.592,0,0,1-.085-.128,2.131,2.131,0,0,1-.144-.362c-.6-1.932-1.373-3.956-1.986-5.83-.307-.936-.572-1.834-.759-2.652a10.012,10.012,0,0,1-.29-2.16,2.916,2.916,0,0,1,.241-1.3,4.046,4.046,0,0,0,.438-1.822,4.828,4.828,0,0,0-.554-2.166,10.937,10.937,0,0,0-2.426-3.009,32.069,32.069,0,0,0-3.885-3h0a9.758,9.758,0,0,0-2.567-1.248,7.277,7.277,0,0,0-2.132-.328,8.092,8.092,0,0,0-1.568.164l-.492.1-.141.023h-.033v.531l.153-.507a.538.538,0,0,0-.153-.026v.531l.153-.507-.223.743.467-.617a.781.781,0,0,0-.246-.126l-.223.743.467-.617-.492.646.656-.469a.82.82,0,0,0-.172-.179l-.492.646.656-.469-.576.435.712-.164a.733.733,0,0,0-.116-.251l-.6.415.712-.164-.387.092h.4a.4.4,0,0,0-.013-.092l-.387.092h.4a2.316,2.316,0,0,1,.071-.371h0a2.416,2.416,0,0,0,.072-.585,2.581,2.581,0,0,0-.108-.728,3.716,3.716,0,0,0-.592-1.148,11.128,11.128,0,0,0-1.584-1.64c-.44-.39-.9-.776-1.332-1.164a11.049,11.049,0,0,1-1.65-1.743,3.756,3.756,0,0,1-.454-.82,2.155,2.155,0,0,1-.149-.772,1.986,1.986,0,0,1,.028-.328h0a2.878,2.878,0,0,0,.041-.474,2.112,2.112,0,0,0-.22-.964,1.888,1.888,0,0,0-.464-.584,2.27,2.27,0,0,0-.905-.454,3.754,3.754,0,0,0-.945-.11,7.4,7.4,0,0,0-1.378.148,16.739,16.739,0,0,0-2.6.761,24.852,24.852,0,0,0-3.621,1.689,10.03,10.03,0,0,0-1.273.85,3.19,3.19,0,0,0-.469.458,1.688,1.688,0,0,0-.21.328,1.268,1.268,0,0,0-.131.554,1.168,1.168,0,0,0,.059.369c.09.271.233.656.4,1.1.251.666.558,1.455.8,2.089.121.317.226.6.3.794.036.1.064.177.079.223v.025h0l.512-.144-.505.108v.033l.512-.144-.512.112.845-.18-.858.126a.093.093,0,0,0,.01.057l.848-.184-.858.126.966-.143H1.609a.948.948,0,0,0,.01.143l.966-.143H2.544l-.93-.1a.871.871,0,0,0,0,.1h.935l-.93-.1.587.061-.587-.069v.01l.587.061-.587-.069h0a.488.488,0,0,1-.015.116,8.488,8.488,0,0,0-.048.987,32.8,32.8,0,0,0,1.089,7.314,127.891,127.891,0,0,0,5.469,16.664,30.325,30.325,0,0,0,8.41,11.915c5.3,4.628,11.885,7.391,18.342,9.02a73.726,73.726,0,0,0,17.687,2.1h.582v-1.027Z" transform="translate(0 -104.566)" fill="#231815"/>
        <path id="Path_16-3" data-name="Path 16" d="M302.08,194.618s4.5-7.236,7.395-12.539,4.663-13.505,8.528-9.646,6.752.328,9-4.341-.963-11.395,3.7-11.324,9.646-3.146,11.416-1.055,5.3-.8,6.591-4.02-5.145-10.77-2.25-10.129,10.45,9.807,4.823,21.705-6.922,33.438-35.7,32.8c-6.671-.148-14.284-.182-13.505-1.446Z" transform="translate(-252.492 -118.315)" fill="#8fc31f"/>
        <path id="Path_17-3" data-name="Path 17" d="M296.819,189.421l.872.543s1.13-1.815,2.624-4.294,3.344-5.622,4.8-8.3c.62-1.135,1.174-2.368,1.7-3.578.4-.907.779-1.8,1.148-2.624.282-.617.563-1.194.84-1.7a7.847,7.847,0,0,1,1.2-1.737,1.967,1.967,0,0,1,.482-.372.725.725,0,0,1,.336-.089.943.943,0,0,1,.436.125,3.088,3.088,0,0,1,.738.574,7.558,7.558,0,0,0,1.932,1.446,4.455,4.455,0,0,0,2,.492,4.325,4.325,0,0,0,2.178-.613,6.692,6.692,0,0,0,1.36-1.064,12.736,12.736,0,0,0,1.715-2.207,26.926,26.926,0,0,0,1.476-2.681,11.142,11.142,0,0,0,.971-4.1c.071-1.012.061-1.989.066-2.873,0-.656.013-1.271.061-1.789a5.317,5.317,0,0,1,.164-.984,1.979,1.979,0,0,1,.2-.474,1.019,1.019,0,0,1,.164-.215.938.938,0,0,1,.356-.207,2.2,2.2,0,0,1,.71-.1h.225a21.006,21.006,0,0,0,5.412-.917c.82-.223,1.594-.439,2.28-.6a8.167,8.167,0,0,1,1.738-.249,2.041,2.041,0,0,1,.692.1.809.809,0,0,1,.361.244v0a3.031,3.031,0,0,0,1.046.809,2.919,2.919,0,0,0,1.23.264,4.166,4.166,0,0,0,1.9-.507,8.265,8.265,0,0,0,2.421-2.007,10.568,10.568,0,0,0,1.737-2.859l-.008.021.008-.021a3.7,3.7,0,0,0,.246-1.379,6.3,6.3,0,0,0-.164-1.346,13.871,13.871,0,0,0-.789-2.353c-.492-1.163-1.079-2.3-1.528-3.236-.225-.467-.415-.887-.54-1.214a3.812,3.812,0,0,1-.133-.405,1.221,1.221,0,0,1-.025-.12V136.8H341.1l.348.107a.394.394,0,0,0,.02-.107H341.1l.348.107-.617-.19.522.379a.656.656,0,0,0,.1-.189l-.617-.19.522.379-.559-.405.266.64a.707.707,0,0,0,.3-.235l-.559-.405.266.64-.164-.4v.443a.459.459,0,0,0,.164-.039l-.164-.4v.443h0a.61.61,0,0,1,.084.015,2.183,2.183,0,0,1,.6.271,7.739,7.739,0,0,1,1.678,1.466,14.706,14.706,0,0,1,2.578,4.233,16.377,16.377,0,0,1,1.189,6.148,18.941,18.941,0,0,1-1.93,8.146c-1.428,3.023-2.552,6.56-3.879,10.157a59.693,59.693,0,0,1-3.5,8,29.935,29.935,0,0,1-3.738,5.438,23.187,23.187,0,0,1-8.577,6.168,35.217,35.217,0,0,1-13.83,2.449q-.6,0-1.225-.013c-3.182-.071-6.56-.115-9.12-.277-.638-.041-1.223-.089-1.735-.144-.384-.043-.728-.089-1.02-.139-.218-.038-.408-.079-.561-.118a2.712,2.712,0,0,1-.272-.084.839.839,0,0,1-.1-.041h0l-.233.369.346-.254a.445.445,0,0,0-.113-.115l-.233.369.346-.254-.581.426.679-.239a.723.723,0,0,0-.1-.187l-.581.426.679-.239-.733.259h.777a.783.783,0,0,0-.044-.259l-.733.259h.03l.713.228a.757.757,0,0,0,.034-.228h-.749l.713.228-.6-.19.533.328a.627.627,0,0,0,.062-.139l-.6-.19.533.328h0l-.872-.543-.889-.538a1.427,1.427,0,0,0-.146.317,1.311,1.311,0,0,0-.062.4,1.282,1.282,0,0,0,.1.505,1.364,1.364,0,0,0,.233.366,1.776,1.776,0,0,0,.507.389,3.149,3.149,0,0,0,.479.2,7.325,7.325,0,0,0,1.028.246c.666.116,1.465.2,2.371.271,1.36.1,2.952.164,4.651.21s3.475.077,5.192.115q.645.015,1.271.015c7.021,0,12.454-1.346,16.713-3.6a25.273,25.273,0,0,0,7.746-6.335,42.491,42.491,0,0,0,6.588-12.1c1.588-4.143,2.811-8.171,4.325-11.364a21.032,21.032,0,0,0,2.132-9.02,18.478,18.478,0,0,0-.82-5.443,17.344,17.344,0,0,0-3.165-5.949,11.392,11.392,0,0,0-1.853-1.8,6.559,6.559,0,0,0-.909-.582,3.772,3.772,0,0,0-.917-.348,2.434,2.434,0,0,0-.53-.062,1.64,1.64,0,0,0-.546.089,1.361,1.361,0,0,0-.84.831,1.648,1.648,0,0,0-.093.564,2.513,2.513,0,0,0,.057.512,5.621,5.621,0,0,0,.285.9c.215.54.5,1.133.812,1.768.466.95.984,1.991,1.381,2.978a11.762,11.762,0,0,1,.474,1.405,4.7,4.7,0,0,1,.164,1.148,1.667,1.667,0,0,1-.1.617h0a8.551,8.551,0,0,1-1.975,2.909,5.429,5.429,0,0,1-1.2.882,2.154,2.154,0,0,1-.954.279.861.861,0,0,1-.371-.075.974.974,0,0,1-.338-.269h0A2.876,2.876,0,0,0,336.41,149a4.056,4.056,0,0,0-1.4-.223,10.067,10.067,0,0,0-2.2.3c-1.137.261-2.347.633-3.58.933a15.688,15.688,0,0,1-3.649.528h-.225a4.579,4.579,0,0,0-.984.1,3.337,3.337,0,0,0-.82.294,2.951,2.951,0,0,0-1.135,1.04,4.062,4.062,0,0,0-.492,1.173,10.078,10.078,0,0,0-.262,2.253c-.031,1.179.013,2.44-.071,3.662a9.255,9.255,0,0,1-.772,3.385,18.122,18.122,0,0,1-2.46,3.985,5.223,5.223,0,0,1-1.258,1.082,2.265,2.265,0,0,1-1.148.338,2.4,2.4,0,0,1-1.082-.282,5.533,5.533,0,0,1-1.4-1.063,5.1,5.1,0,0,0-1.25-.946,3,3,0,0,0-1.378-.353,2.7,2.7,0,0,0-.777.115,3.379,3.379,0,0,0-1.222.7,5.9,5.9,0,0,0-.843.915,13.8,13.8,0,0,0-1.241,2.05c-.581,1.138-1.13,2.426-1.691,3.713s-1.155,2.575-1.758,3.688c-1.433,2.624-3.28,5.756-4.756,8.221-.741,1.233-1.392,2.3-1.86,3.06l-.559.889L296,188.8l-.051.082h0l.874.54Z" transform="translate(-247.23 -113.119)" fill="#231815"/>
        <path id="Path_18-3" data-name="Path 18" d="M68.418,269.9a98.247,98.247,0,0,1-10.043-7.915c-.218-.2,6.283-8.364,5.758-8.856s-7.359,7.164-7.557,6.967a90.21,90.21,0,0,1-6.378-6.573c-.138-.164,8.925-9.817,8.789-9.986-.1-.126-9.832,8.71-9.935,8.579-4.31-5.451-7.473-11.431-7.216-17.008.643,15.826,6,19.9,6,19.9s5.9,8.782,11.365,11.039S68.418,269.9,68.418,269.9Z" transform="translate(-34.962 -196.552)" fill="#ddedce"/>
        <path id="Path_19-3" data-name="Path 19" d="M454.2,302.91c-.484-2.573-1.878-8.174-1.878-12.676s.328-4.5,1.005-6.189c.328-.83.089,3.788.684,8.279.617,4.651,1.781,8.759,2.273,9.045.963.564,8.256-11.216,9.463-15.073s3.149-8.764,4.031-9.405c.4-.292-.648,1.957-1.619,4.449-1.164,2.981-2.329,6.325-2.329,6.325s-4.9,11.282-6.86,12.379c-1.2,1.178-7.77,6.4-10.047,6.458-.358,0-3.785.973-3.724.828.328-.782,9.005-4.42,9.005-4.42Z" transform="translate(-372.183 -231.458)" fill="#ddedce"/>
      </g>
    </g>
  </g>
</svg>
