<svg xmlns="http://www.w3.org/2000/svg" viewBox="0 0 620.98 480.43"><defs><style>.cls-1{fill:#80b019;}.cls-2{fill:#231815;}.cls-3{fill:#cde191;}.cls-4{fill:#ecf4e1;}.cls-5{fill:#8fc31f;}.cls-6{fill:#ddedce;}</style></defs><title>資產 1</title><g id="圖層_2" data-name="圖層 2"><g id="Layer_1" data-name="Layer 1"><path class="cls-1" d="M463.13,81.95c15.69-17.64,22.23-36.59,38.57-20.25s31.36,32,45.1,35.29,43.12,70.42,47.7,83.9-20.26,72.95-20.26,72.95L463.13,81.95Z"/><path class="cls-2" d="M463.13,81.95l4.68,4.16c3-3.41,5.69-6.8,8.09-9.93,3.58-4.68,6.65-8.77,9.23-11.3a15.32,15.32,0,0,1,3.25-2.59,5.15,5.15,0,0,1,1.08-.46,3,3,0,0,1,.81-.12,5,5,0,0,1,2.37.73,20.68,20.68,0,0,1,4.63,3.67h0c8.14,8.14,16.06,16.23,23.9,22.89A94.65,94.65,0,0,0,533,97.74a43.37,43.37,0,0,0,12.35,5.34h0l.2-.84-.25.83h.05l.2-.84-.25.83.1-.34-.11.34h0l.1-.34-.11.34h0a5.45,5.45,0,0,1,1.19.78,32.4,32.4,0,0,1,4.9,5.33,149.29,149.29,0,0,1,11.15,17.57c5.84,10.46,11.72,22.61,16.45,33.09,2.37,5.25,4.45,10.08,6.1,14.08s2.88,7.19,3.49,9h0a8.4,8.4,0,0,1,.23,2.31,42.89,42.89,0,0,1-.8,7.22,163.16,163.16,0,0,1-4.62,18c-3,9.82-6.76,20.1-9.74,27.9-1.49,3.9-2.79,7.18-3.72,9.48l-1.09,2.67-.29.7-.1.23,5.78,2.41,5.26-3.4L468.39,78.54l-5.26,3.4,4.68,4.16-4.68-4.16-5.26,3.4L575.43,267.22l4.58-11c0-.07,5.27-12.61,10.54-27.61,2.64-7.51,5.28-15.62,7.3-23.17,1-3.78,1.86-7.42,2.47-10.81a54.64,54.64,0,0,0,1-9.45,19.8,19.8,0,0,0-.89-6.34h0c-.64-1.89-1.63-4.47-2.93-7.68-4.53-11.18-12.8-29.71-21.57-46a195,195,0,0,0-13.24-21.77,57.25,57.25,0,0,0-6.57-7.73,24.53,24.53,0,0,0-3.54-2.84,14,14,0,0,0-4.34-1.92h0A31.09,31.09,0,0,1,539.51,87a104,104,0,0,1-15.73-12.46c-5.61-5.18-11.5-11.16-17.65-17.31l-.07-.07.08.08a32.78,32.78,0,0,0-7.58-5.86,17.49,17.49,0,0,0-8.27-2.21,15.71,15.71,0,0,0-5.48,1,23,23,0,0,0-7.57,4.92,86.64,86.64,0,0,0-9.09,10.61c-3,3.91-6.13,8.07-9.68,12.06l-3.17,3.56,2.59,4,5.26-3.4Z"/><path class="cls-1" d="M54,162.33c-.66-17-7.85-64.7,13.07-60.78S111.53,95,110.23,78s21.57-34,34-24.83,51,21.57,70.58,17-130,132-130,132L54,162.33Z"/><path class="cls-2" d="M54,162.33l6.26-.24c-.15-3.85-.58-8.79-1-14.3s-.74-11.5-.74-17.21a96.23,96.23,0,0,1,.49-10.31A43.69,43.69,0,0,1,60.16,114a20,20,0,0,1,1.2-3.42,9.26,9.26,0,0,1,1-1.63,3.5,3.5,0,0,1,1.13-1,2.65,2.65,0,0,1,1.31-.28,6.43,6.43,0,0,1,1.18.12h0a55,55,0,0,0,10.14.93,56,56,0,0,0,14.36-1.86,41.84,41.84,0,0,0,17.95-9.5,27,27,0,0,0,5.89-8,23,23,0,0,0,2.26-10q0-.91-.07-1.82h0q0-.46,0-.93a15.64,15.64,0,0,1,1.74-6.86,25.34,25.34,0,0,1,8.1-9.25,22.19,22.19,0,0,1,5.14-2.71,13.86,13.86,0,0,1,4.65-.89,8.23,8.23,0,0,1,2.44.34,6.57,6.57,0,0,1,2,1h0A50.1,50.1,0,0,0,146,61.7a107.06,107.06,0,0,0,12.45,5.71,163.9,163.9,0,0,0,23,7,109.72,109.72,0,0,0,23.6,3,49.62,49.62,0,0,0,11.19-1.14h0l-.59-2.53v2.59a2.74,2.74,0,0,0,.59-.05l-.59-2.53v-2.2l-1.33,4.59a4.8,4.8,0,0,0,1.33.2V71.56l-1.33,4.59,1.52-5.24-3.06,4.51a5.48,5.48,0,0,0,1.54.73l1.52-5.24-3.06,4.51,3.16-4.67-5.14,2.31a5.69,5.69,0,0,0,2,2.36l3.16-4.67-5.14,2.31,4.86-2.18h-5.34a5.32,5.32,0,0,0,.48,2.18l4.86-2.18h-1.27l-3.92-1.11a4,4,0,0,0-.14,1.11h4.06l-3.92-1.11,1.82.51-1.77-.66,0,.15,1.82.51-1.77-.66.31.12-.3-.13h0l.31.12-.3-.13a7.51,7.51,0,0,1-.5.88,47.31,47.31,0,0,1-3.24,4.36c-2.82,3.47-7,8.09-12,13.41-8.83,9.32-20.42,20.85-32.8,32.86-18.57,18-38.93,37.14-54.65,51.76-7.86,7.31-14.55,13.48-19.28,17.84l-5.52,5.07-2,1.8,4.22,4.63,5-3.82L59,158.51l-5,3.82,6.26-.24-6.26.24-5,3.82,34.87,45.27,5-4.59s33-30.11,66-61.63c16.51-15.76,33-31.87,45.5-44.81,6.24-6.48,11.46-12.15,15.24-16.71a68.2,68.2,0,0,0,4.62-6.1,21.29,21.29,0,0,0,1.55-2.77,11.62,11.62,0,0,0,.61-1.63,8.46,8.46,0,0,0,.33-2.3,7.22,7.22,0,0,0-.47-2.59,6.92,6.92,0,0,0-1.3-2.13,7,7,0,0,0-3-1.95,7.62,7.62,0,0,0-2.48-.4,9.89,9.89,0,0,0-2.26.28h0a37.36,37.36,0,0,1-8.35.82,88,88,0,0,1-15.58-1.61,149.77,149.77,0,0,1-24.58-6.85c-3.75-1.4-7.19-2.88-10.1-4.31a46.87,46.87,0,0,1-6.83-4h0a19.13,19.13,0,0,0-5.75-2.9,20.8,20.8,0,0,0-6.11-.89,27.63,27.63,0,0,0-11.7,2.8,38.21,38.21,0,0,0-14.15,11.69,33.86,33.86,0,0,0-4.54,8.26,27.16,27.16,0,0,0-1.77,9.49q0,.94.07,1.89h0c0,.3,0,.58,0,.87a10.38,10.38,0,0,1-.47,3.1,12.88,12.88,0,0,1-3.07,5,26.28,26.28,0,0,1-10.1,6.2A43.24,43.24,0,0,1,68.24,95.4h0a19,19,0,0,0-3.48-.33A15.43,15.43,0,0,0,59,96.14a14.9,14.9,0,0,0-4.24,2.6A19.46,19.46,0,0,0,50,105.32a41.47,41.47,0,0,0-3.17,11.92A102.56,102.56,0,0,0,46,130.58c0,6.21.37,12.49.77,18.1s.83,10.56,1,13.89l.08,2,1.22,1.58,5-3.82Z"/><path class="cls-3" d="M318.95,461.33s114.78,9.81,159.88-24.5,103.91-108.82,98-213.71S454.31,38.82,380.8,32.93s-66.66-9.81-71.57-22.55-28.44,5.89-26.47,31.38,36.19,419.57,36.19,419.57Z"/><path class="cls-2" d="M318.95,461.33l-.53,6.24c.13,0,15.47,1.32,37.22,1.32,19,0,42.93-1,66-4.8A204.93,204.93,0,0,0,454.81,456c10.4-3.6,19.91-8.17,27.81-14.18,22.14-16.85,47.26-42.89,67-77.26a253.31,253.31,0,0,0,33.93-126.92q0-7.34-.42-14.87c-1.53-27.34-10.29-52.94-23.61-75.93-20-34.5-50.23-63.25-82.52-84.07a262.32,262.32,0,0,0-49.09-25c-16.26-6.12-32.08-10-46.6-11.13-18.32-1.46-31.58-2.81-41.13-4.17a112.55,112.55,0,0,1-15.64-3.09,20.8,20.8,0,0,1-5.1-2.11,5.09,5.09,0,0,1-1.29-1.1,4.55,4.55,0,0,1-.55-.88,19.75,19.75,0,0,1-1-2.67c-.39-1.22-.85-2.77-1.53-4.55h0a14.13,14.13,0,0,0-1.78-3.29A11.75,11.75,0,0,0,309,1.19,12,12,0,0,0,303.68,0a15.52,15.52,0,0,0-5.42,1,25.57,25.57,0,0,0-8.16,5.21,41.87,41.87,0,0,0-9.61,13.55,46,46,0,0,0-4.1,18.94q0,1.73.14,3.5h0c.25,3.24,1,12.17,2.12,25.4,7.87,92.52,34.07,394.23,34.07,394.24l.46,5.25,5.25.45.53-6.24,6.24-.54-1.47-17c-3.29-37.89-11.54-133-19.18-221.35-3.82-44.19-7.49-86.72-10.31-119.58-1.41-16.43-2.61-30.45-3.51-41.05S289.22,44,289,41.28h0q-.1-1.28-.1-2.54a33.28,33.28,0,0,1,1.81-10.79,31.17,31.17,0,0,1,7.16-11.81,16.67,16.67,0,0,1,3.79-2.91,4.93,4.93,0,0,1,2-.69h0l.12-.9-.57.68a1.05,1.05,0,0,0,.45.22l.12-.9-.57.68.41-.49-.47.42.07.06.41-.49-.47.42.15-.14-.16.13h0l.15-.14-.16.13.05.08a2.27,2.27,0,0,1,.14.31h0c.51,1.31.89,2.6,1.34,4a30.48,30.48,0,0,0,1.56,4.09,16.93,16.93,0,0,0,2.58,3.91,17.7,17.7,0,0,0,3.46,3,31.68,31.68,0,0,0,8.46,3.74c5.11,1.54,11.83,2.8,21.38,4s21.9,2.44,38.13,3.74c17.4,1.38,37.86,7.22,58.68,16.89,31.25,14.48,63.3,37.54,87.87,66.4a198.82,198.82,0,0,1,30.31,47.22,151.8,151.8,0,0,1,13.44,53.78q.4,7.19.4,14.17a240.73,240.73,0,0,1-32.27,120.69C520,391.06,495.87,416,475,431.84c-6.45,4.91-14.8,9-24.32,12.31-14.27,4.94-31.1,8-47.82,9.84a445.3,445.3,0,0,1-47.26,2.37c-10.62,0-19.69-.32-26.09-.64-3.2-.16-5.73-.32-7.45-.44l-2-.14-.49,0h-.15l-.53,6.24,6.24-.54-6.24.54Z"/><path class="cls-3" d="M318.95,467.33C172,460.11,74.52,396,60.54,291.21,50.57,216.44,140.29,48.61,220.05,32s72.51-20.64,77.41,8.78,38.24,34.3,59.8,35.28,44.11,15.69,39.21,49,0,52,19.61,69.6,10.79,70.59-4.89,74.5-37.26,61.76-28.43,83.32S353.22,469,318.95,467.33Z"/><path class="cls-2" d="M318.95,467.33l.31-6.26c-36.31-1.79-69.48-7.08-99-15.59-44.24-12.76-80.13-32.74-106.15-58.82a164.32,164.32,0,0,1-47.39-96.28A86.64,86.64,0,0,1,66,279a156.25,156.25,0,0,1,3.65-31.48c4.19-20,11.84-42.5,22-65,15.22-33.79,36.08-67.74,59-94.27,11.47-13.26,23.47-24.67,35.44-33.29s23.9-14.43,35.16-16.77c19-3.95,33-7.19,43.39-9.42,5.18-1.11,9.44-2,12.87-2.54a50.32,50.32,0,0,1,7.78-.83,10.63,10.63,0,0,1,2.1.17,2.32,2.32,0,0,1,.6.18l0,0,0,0,0,0h0l0,0,0,0,.1.13a6,6,0,0,1,.59,1.43,42.63,42.63,0,0,1,1.12,5.54c.38,2.46.8,5.48,1.38,9a42.79,42.79,0,0,0,3.63,11.61,40.83,40.83,0,0,0,12.26,14.82c7.48,5.68,16.34,8.94,25.07,11A139,139,0,0,0,357,82.32a42.94,42.94,0,0,1,12.62,2.47A35.43,35.43,0,0,1,378,89.12a29.21,29.21,0,0,1,9.24,10.55,35.55,35.55,0,0,1,3.66,16.52,55,55,0,0,1-.61,8h0a153.89,153.89,0,0,0-1.83,22.23A84.26,84.26,0,0,0,389.78,162a60.39,60.39,0,0,0,7.58,20.22,75.07,75.07,0,0,0,14.53,17.17,20.5,20.5,0,0,1,3.92,4.92,36.62,36.62,0,0,1,4,10.73,63.07,63.07,0,0,1,1.32,13.19,72,72,0,0,1-4.19,24.6,30,30,0,0,1-4.17,7.82,10.34,10.34,0,0,1-1.89,1.9,3.43,3.43,0,0,1-1.16.61,16.08,16.08,0,0,0-4.12,1.7,27.28,27.28,0,0,0-6.36,5.29,68.25,68.25,0,0,0-9.35,13.77A141.4,141.4,0,0,0,379,311.24c-2.76,9.75-4.52,19.62-4.53,28.45a40.51,40.51,0,0,0,2.52,15.2v0a17,17,0,0,1,.82,6,65.77,65.77,0,0,1-1.38,12.19,165.57,165.57,0,0,1-8.58,28.23c-6,15.1-14.2,30.62-23.08,42a66.07,66.07,0,0,1-13.33,13.35,27.83,27.83,0,0,1-6.17,3.38,15.21,15.21,0,0,1-5.37,1.06h-.6l-.31,6.26-.31,6.26c.4,0,.81,0,1.21,0a30.15,30.15,0,0,0,14.59-4.1,55,55,0,0,0,11.31-8.58,116,116,0,0,0,17.33-22.15,212.23,212.23,0,0,0,19.44-41.1,169.78,169.78,0,0,0,5.67-19.82,82.65,82.65,0,0,0,2.11-17,28.66,28.66,0,0,0-1.75-10.75l0,.1,0-.11A28.56,28.56,0,0,1,387,339.69a88.14,88.14,0,0,1,2.74-20,130.52,130.52,0,0,1,11.55-30.56,56.15,56.15,0,0,1,6.9-10.24,18.81,18.81,0,0,1,2.9-2.71,5.28,5.28,0,0,1,1.64-.88,15.87,15.87,0,0,0,5.56-2.67,26.45,26.45,0,0,0,6.87-8A59.67,59.67,0,0,0,431.39,248a89.2,89.2,0,0,0,2.23-19.78,70.85,70.85,0,0,0-2.92-20.87,45.12,45.12,0,0,0-4.07-9.38,32.93,32.93,0,0,0-6.35-7.9c-7-6.33-11.71-12.46-14.77-19.3a49.36,49.36,0,0,1-3.4-11.07A71.8,71.8,0,0,1,401,146.4a141.44,141.44,0,0,1,1.7-20.41l0-.14,0,.14a67.34,67.34,0,0,0,.75-9.81,49,49,0,0,0-4-20.12,41.34,41.34,0,0,0-7.57-11.43,45.16,45.16,0,0,0-16-10.86,55,55,0,0,0-18.3-4,140.37,140.37,0,0,1-17-1.71,81.62,81.62,0,0,1-12.94-3.21c-6.2-2.14-11.69-5.13-15.79-9.14a27.47,27.47,0,0,1-5.18-6.88,29.82,29.82,0,0,1-3-9.11c-.63-3.75-1.05-7-1.53-9.9a48.73,48.73,0,0,0-1.32-6.13,18.72,18.72,0,0,0-1.87-4.34,12.88,12.88,0,0,0-7.72-5.84,21.2,21.2,0,0,0-5.83-.72,61.72,61.72,0,0,0-9.83,1c-5.67.94-12.76,2.48-22,4.52s-20.63,4.59-34.76,7.53c-10.33,2.16-20.56,6.56-30.59,12.66C170.64,49.22,153.65,65.11,137.85,84c-23.68,28.34-44.64,63.48-59.79,98.29a348.82,348.82,0,0,0-17.93,51.1c-4.24,16.38-6.61,31.82-6.62,45.57A99,99,0,0,0,54.33,292a177.65,177.65,0,0,0,26.55,73.28A187.54,187.54,0,0,0,120,408.88c23.36,19.16,52.15,34.31,85.51,45.18s71.32,17.48,113.11,19.53h0l.31-6.26Z"/><path class="cls-4" d="M110.23,220.51c2-4.58,38.55-133.33,126.78-165.05-16.52,19.23-37.23,26.7-49.46,52.29-17,35.54-61,117.55-61,138.9s160.11-73.86,160.11-73.86S223.94,227.26,203,234.45s-82.35,29.84-82.35,29.84l47.7,89.54L311.52,234.45s-68,97.16-132.67,126.56c-15.46,7-84.31-98.68-84.31-98.68l15.69-41.82Z"/><path class="cls-4" d="M458.37,67.57s-22,43.8-36.41,49,27.18-5.22,36.41-28.76,10-13.72,10-13.72,48.37,39.22,55.55,64S554,213.31,546.14,253.83c5.22,2,15,0,15,0S549.93,153.05,531,128.51s-43.93-47.16-56.12-54.9-59.43-33.49-75.16-32.19"/><path class="cls-5" d="M323.93,467.35c-77.5.61-222.54-18.76-268.61-136.4S16.12,181.78,16.12,180.88s-7.85-20.51-9.81-26.39S72,116.26,68.07,139.79s39.22,38.24,35.29,53.92,10.79-6.86,40.19,12.75,45.1,37.25,37.26,52.93,7.84,49,16.66,77.45,39.22-39.21,51,2,36,59.8,34.19,75.48,65.53-9.94,76.38,19.11-15.52,33.82-35.09,34Z"/><path class="cls-2" d="M323.93,467.35l0-6.27h-3.43c-38.6,0-92.9-5.1-142.65-24.32-24.88-9.6-48.61-22.7-68.8-40.33a172.33,172.33,0,0,1-47.86-67.78c-17.66-45.1-27.46-77.37-32.83-99.94S22,193.3,22,187c0-1.87.08-3.16.16-4,0-.41.07-.69.1-.91l0-.32c0-.06,0-.13,0-.25a6.56,6.56,0,0,0-.05-1.77,7.86,7.86,0,0,0-.18-.82c-.1-.36-.19-.65-.3-1-.21-.61-.47-1.34-.79-2.21-1.12-3-2.94-7.74-4.68-12.29-.87-2.27-1.72-4.5-2.44-6.43s-1.31-3.57-1.65-4.57l-5.14,1.71h5.42a5.44,5.44,0,0,0-.28-1.71l-5.14,1.71h.52L12.21,156a4.91,4.91,0,0,0,.32-1.77H7.63L12.21,156l-3.16-1.22,2.83,1.87a3.42,3.42,0,0,0,.32-.65l-3.16-1.22,2.83,1.87-1.14-.75,1.08.83.06-.08-1.14-.75,1.08.83,0,0,0,0h0l0,0,0,0a5.56,5.56,0,0,1,.55-.54,28.8,28.8,0,0,1,3.08-2.28,95,95,0,0,1,9.43-5.34,141.34,141.34,0,0,1,18.39-7.68,82.32,82.32,0,0,1,8.83-2.44,35,35,0,0,1,6.95-.86,11.48,11.48,0,0,1,2.41.22,3.27,3.27,0,0,1,.75.24l0,0,.5-.73-.78.39a1.09,1.09,0,0,0,.28.34l.5-.73-.78.39.67-.34-.71.25,0,.09.67-.34-.71.25.22-.08-.23.06v0l.22-.08-.23.06a1.45,1.45,0,0,1,0,.31,5.22,5.22,0,0,1-.08.83h0a24.79,24.79,0,0,0-.34,4.05,25.93,25.93,0,0,0,2,9.85,45,45,0,0,0,9.52,13.75c2.88,3,6,5.76,8.94,8.36a154.34,154.34,0,0,1,11.54,10.57,21.35,21.35,0,0,1,3.05,4,7.1,7.1,0,0,1,.6,1.39,3.17,3.17,0,0,1,.14.88,2.14,2.14,0,0,1-.07.53h0c-.24,1-.43,1.83-.57,2.69a16.27,16.27,0,0,0-.24,2.63,9.74,9.74,0,0,0,.39,2.84,7.93,7.93,0,0,0,1.26,2.5,7.6,7.6,0,0,0,1.66,1.61,7.93,7.93,0,0,0,2.76,1.23,9.55,9.55,0,0,0,2.19.24,18.4,18.4,0,0,0,3.39-.38c1.51-.29,3-.63,4.67-.9a34.24,34.24,0,0,1,5.56-.48,31.81,31.81,0,0,1,9.38,1.44,47,47,0,0,1,12.35,6.05l0,0,0,0c11.92,7.93,21.39,15.49,27.6,22.32a43.44,43.44,0,0,1,6.83,9.49,17,17,0,0,1,2,7.59,12.06,12.06,0,0,1-1.35,5.51,30,30,0,0,0-2.79,13.5,73.07,73.07,0,0,0,2.09,16,257.3,257.3,0,0,0,8,26.22c3.11,9,6.41,18,9,26.43a25.18,25.18,0,0,0,1.81,4.44,16.47,16.47,0,0,0,1.91,2.85,12.31,12.31,0,0,0,4.1,3.23,11.49,11.49,0,0,0,5,1.11,15.25,15.25,0,0,0,5.93-1.31,28.31,28.31,0,0,0,4.3-2.33,79,79,0,0,0,6.87-5.15c3.33-2.72,6.6-5.5,9.48-7.42a23,23,0,0,1,3.83-2.15,6.28,6.28,0,0,1,2.29-.58,1.52,1.52,0,0,1,.69.14,2.65,2.65,0,0,1,.68.49,9.73,9.73,0,0,1,1.86,2.64,31.6,31.6,0,0,1,2.23,5.88h0c5.89,20.67,14.87,35.92,22.09,47.59,3.61,5.83,6.77,10.78,8.89,14.9a36.11,36.11,0,0,1,2.35,5.49,13.58,13.58,0,0,1,.72,4.06,8.67,8.67,0,0,1-.06,1h0a11.59,11.59,0,0,0-.08,1.35,10.12,10.12,0,0,0,.61,3.5,9.7,9.7,0,0,0,1.56,2.75,11.08,11.08,0,0,0,3.85,3,19.69,19.69,0,0,0,6,1.64,51,51,0,0,0,6.46.35c4.34,0,9.17-.32,14.25-.63s10.36-.61,15.46-.61c7.28,0,14.17.65,19.17,2.44a18.43,18.43,0,0,1,6,3.33,11.86,11.86,0,0,1,3.42,4.94,29.12,29.12,0,0,1,2.14,10,13.11,13.11,0,0,1-.62,4.18,10,10,0,0,1-1.37,2.69,13.63,13.63,0,0,1-4.4,3.8,35.06,35.06,0,0,1-11.33,3.7,85.44,85.44,0,0,1-13.69,1.1h0l0,6.27,0,6.26a102,102,0,0,0,13.65-.95,60.44,60.44,0,0,0,10.4-2.37,38.53,38.53,0,0,0,7.32-3.25,25.53,25.53,0,0,0,8.94-8.44,24.13,24.13,0,0,0,3.54-13,41.44,41.44,0,0,0-2.93-14.43,24.47,24.47,0,0,0-6.93-10,29.2,29.2,0,0,0-7.4-4.62,47.63,47.63,0,0,0-12.63-3.39,97.06,97.06,0,0,0-13.39-.82c-5.58,0-11.12.32-16.22.63s-9.78.61-13.49.61a42.22,42.22,0,0,1-4.35-.19,14,14,0,0,1-2.06-.35,3.73,3.73,0,0,1-.63-.21h0l-1.16,1.86,1.85-1.09a2.33,2.33,0,0,0-.69-.77l-1.16,1.86,1.85-1.09-2.2,1.29h2.58a2.71,2.71,0,0,0-.38-1.29l-2.2,1.29h1.55l1,.12v-.12h-1l1,.12v0a21.13,21.13,0,0,0,.14-2.44,26,26,0,0,0-1.3-7.83,64.9,64.9,0,0,0-6.31-13.1c-4-6.71-8.92-14.07-13.76-22.92a151.74,151.74,0,0,1-13.16-31.63l0-.05v.05a45.68,45.68,0,0,0-2.77-7.44,26.08,26.08,0,0,0-2.68-4.41,16.7,16.7,0,0,0-5.42-4.74,14.09,14.09,0,0,0-6.64-1.64,18,18,0,0,0-6.26,1.21,38.16,38.16,0,0,0-9,5.19c-2.08,1.53-4.07,3.16-6,4.72-2.84,2.34-5.51,4.55-7.69,6a16.94,16.94,0,0,1-2.72,1.52,5.11,5.11,0,0,1-.78.27l-.19,0h0v1l.37-.88a1.08,1.08,0,0,0-.37-.09v1l.37-.88-.32.78.55-.66a.92.92,0,0,0-.22-.13l-.32.78.55-.66,0,0a3.61,3.61,0,0,1-.52-.78,13,13,0,0,1-.88-2.21c-3.66-11.78-8.37-24.12-12.11-35.55-1.87-5.71-3.49-11.18-4.63-16.17a61.05,61.05,0,0,1-1.77-13.17,17.78,17.78,0,0,1,1.47-7.9,24.67,24.67,0,0,0,2.67-11.11,29.44,29.44,0,0,0-3.38-13.21c-3.19-6.34-8.26-12.31-14.79-18.35A195.55,195.55,0,0,0,147,201.24l-.07,0,.07,0a59.5,59.5,0,0,0-15.65-7.61,44.37,44.37,0,0,0-13-2,49.34,49.34,0,0,0-9.56,1l-3,.6-.86.14-.2,0h0v3.24l.93-3.09a3.28,3.28,0,0,0-.93-.16v3.24l.93-3.09-1.36,4.53,2.85-3.76a4.76,4.76,0,0,0-1.5-.77l-1.36,4.53,2.85-3.76-3,3.94,4-2.86a5,5,0,0,0-1.05-1.09l-3,3.94,4-2.86L104.58,198l4.34-1a4.47,4.47,0,0,0-.71-1.53L104.58,198l4.34-1-2.36.56H109a2.44,2.44,0,0,0-.08-.56l-2.36.56H109v0a14.12,14.12,0,0,1,.43-2.26v0a14.73,14.73,0,0,0,.44-3.57,15.74,15.74,0,0,0-.66-4.44,22.66,22.66,0,0,0-3.61-7,67.86,67.86,0,0,0-9.66-10c-2.68-2.38-5.47-4.73-8.12-7.1a67.37,67.37,0,0,1-10.06-10.63,22.9,22.9,0,0,1-2.77-5,13.14,13.14,0,0,1-.91-4.71,12.11,12.11,0,0,1,.17-2v0a17.55,17.55,0,0,0,.25-2.89,12.88,12.88,0,0,0-1.34-5.88,11.51,11.51,0,0,0-2.83-3.56,13.84,13.84,0,0,0-5.52-2.77,22.89,22.89,0,0,0-5.76-.67,45.1,45.1,0,0,0-8.4.9,102.07,102.07,0,0,0-15.87,4.64,151.54,151.54,0,0,0-22.08,10.3,61.16,61.16,0,0,0-7.76,5.18,19.45,19.45,0,0,0-2.86,2.79,10.29,10.29,0,0,0-1.28,2,7.73,7.73,0,0,0-.8,3.38,7.12,7.12,0,0,0,.36,2.25c.55,1.65,1.42,4,2.44,6.71,1.53,4.06,3.4,8.87,4.87,12.74.74,1.93,1.38,3.63,1.81,4.84.22.6.39,1.08.48,1.36l0,.15v0l3.12-.88L10,182.1c0,.15,0,.19,0,.2l3.12-.88L10,182.1,15.15,181l-5.23.77c0,.17,0,.27.06.35L15.15,181l-5.23.77,5.89-.87h-6a5.78,5.78,0,0,0,.06.87l5.89-.87h-.25l-5.67-.59a5.31,5.31,0,0,0,0,.59h5.7l-5.67-.59,3.58.37-3.58-.42v.06l3.58.37-3.58-.42.21,0-.21,0h0l.21,0-.21,0c0,.06,0,.35-.09.71A51.76,51.76,0,0,0,9.49,187c0,7.52,1.11,21.31,6.64,44.6s15.53,56.09,33.35,101.61a184.91,184.91,0,0,0,51.28,72.65c32.33,28.22,72.47,45.07,111.84,55s78.08,12.79,107.85,12.79H324l0-6.26Z"/><path class="cls-5" d="M302.37,465.26s27.45-44.12,45.09-76.46,28.43-82.35,52-58.82,41.17,2,54.9-26.47-5.87-69.48,22.55-69.05,58.82-19.18,69.61-6.43,32.34-4.9,40.19-24.51-31.37-65.67-13.72-61.76,63.72,59.8,29.41,132.35S560.19,478,384.71,474.08c-40.68-.9-87.1-1.11-82.35-8.82Z"/><path class="cls-2" d="M302.37,465.26l5.32,3.31s6.89-11.07,16-26.18,20.39-34.28,29.29-50.59c3.78-6.92,7.16-14.44,10.39-21.82,2.42-5.53,4.75-11,7-16,1.72-3.76,3.43-7.28,5.12-10.39A47.85,47.85,0,0,1,382.83,333a12,12,0,0,1,2.94-2.27,4.42,4.42,0,0,1,2.05-.54,5.75,5.75,0,0,1,2.66.76,18.83,18.83,0,0,1,4.5,3.5,46.09,46.09,0,0,0,11.78,8.82,27.16,27.16,0,0,0,12.21,3,26.37,26.37,0,0,0,13.28-3.74,40.8,40.8,0,0,0,8.29-6.49A77.66,77.66,0,0,0,451,322.58,164.23,164.23,0,0,0,460,306.23c3.92-8.14,5.34-16.79,5.92-25,.43-6.17.37-12.13.4-17.52,0-4,.08-7.75.37-10.91a32.42,32.42,0,0,1,1-6,12.07,12.07,0,0,1,1.21-2.89,6.22,6.22,0,0,1,1-1.31,5.72,5.72,0,0,1,2.17-1.26,13.43,13.43,0,0,1,4.33-.6h1.37c11.64,0,22.94-2.89,33-5.59,5-1.36,9.72-2.68,13.9-3.64a49.8,49.8,0,0,1,10.6-1.52,12.44,12.44,0,0,1,4.22.6,4.93,4.93,0,0,1,2.2,1.49l0-.05,0,.05a18.48,18.48,0,0,0,6.38,4.93,17.8,17.8,0,0,0,7.5,1.61,25.4,25.4,0,0,0,11.57-3.09,50.39,50.39,0,0,0,14.76-12.24,64.44,64.44,0,0,0,10.59-17.43l-.05.13.05-.13a22.54,22.54,0,0,0,1.5-8.41,38.39,38.39,0,0,0-1-8.21,84.57,84.57,0,0,0-4.81-14.35c-3-7.09-6.58-14-9.32-19.73-1.37-2.85-2.53-5.41-3.29-7.4a23.18,23.18,0,0,1-.81-2.47,7.46,7.46,0,0,1-.15-.73l0-.19v0h-2.24l2.12.65a2.39,2.39,0,0,0,.12-.65h-2.24l2.12.65-3.76-1.16,3.18,2.31a4,4,0,0,0,.58-1.15l-3.76-1.16,3.18,2.31-3.41-2.47,1.62,3.9a4.31,4.31,0,0,0,1.8-1.43l-3.41-2.47,1.62,3.9-1-2.46v2.7a2.8,2.8,0,0,0,1-.24l-1-2.46v2.7h0a3.72,3.72,0,0,1,.51.09,13.31,13.31,0,0,1,3.67,1.65,47.18,47.18,0,0,1,10.23,8.94,89.66,89.66,0,0,1,15.72,25.81,99.86,99.86,0,0,1,7.25,37.49c0,15-3.28,31.7-11.77,49.67-8.71,18.43-15.56,40-23.65,61.93-6.06,16.46-12.79,33.13-21.35,48.81a182.52,182.52,0,0,1-22.79,33.16A141.38,141.38,0,0,1,476.65,453c-22.07,9.32-49.53,14.93-84.33,14.93q-3.68,0-7.47-.08c-19.4-.43-40-.7-55.61-1.69-3.89-.25-7.46-.54-10.58-.88-2.34-.26-4.44-.54-6.22-.85-1.33-.23-2.49-.48-3.42-.72a16.51,16.51,0,0,1-1.66-.51,5.16,5.16,0,0,1-.58-.25l0,0-1.42,2.25,2.11-1.55a2.72,2.72,0,0,0-.69-.7l-1.42,2.25,2.11-1.55-3.54,2.6,4.14-1.46a4.42,4.42,0,0,0-.6-1.14l-3.54,2.6,4.14-1.46-4.47,1.58h4.74a4.78,4.78,0,0,0-.27-1.58l-4.47,1.58h.18l4.35,1.39a4.61,4.61,0,0,0,.21-1.39h-4.57l4.35,1.39-3.63-1.16,3.25,2a3.84,3.84,0,0,0,.38-.85l-3.63-1.16,3.25,2v0h0l-5.32-3.31L297,462a8.7,8.7,0,0,0-.89,1.93,8,8,0,0,0-.38,2.42,7.82,7.82,0,0,0,.64,3.08,8.31,8.31,0,0,0,1.42,2.23,10.83,10.83,0,0,0,3.09,2.37,19.2,19.2,0,0,0,2.92,1.22,44.66,44.66,0,0,0,6.27,1.5c4.06.71,8.93,1.23,14.46,1.65,8.29.62,18,1,28.36,1.28s21.19.47,31.66.7q3.93.09,7.75.09c42.81,0,75.94-8.21,101.91-21.93a154.1,154.1,0,0,0,47.23-38.63c18.58-22.49,30.49-48.54,40.17-73.8s17.14-49.82,26.37-69.29,13-38.18,13-55a112.68,112.68,0,0,0-5-33.19,105.76,105.76,0,0,0-19.3-36.27,69.47,69.47,0,0,0-11.3-11,40,40,0,0,0-5.54-3.55,23,23,0,0,0-5.59-2.12,14.84,14.84,0,0,0-3.23-.38,10,10,0,0,0-3.33.54,8.3,8.3,0,0,0-5.12,5.07,10.06,10.06,0,0,0-.57,3.44,15.34,15.34,0,0,0,.35,3.12,34.27,34.27,0,0,0,1.74,5.51c1.31,3.29,3.05,6.91,4.95,10.78,2.84,5.79,6,12.14,8.42,18.16a71.72,71.72,0,0,1,2.89,8.57,28.68,28.68,0,0,1,1,7,10.16,10.16,0,0,1-.6,3.76h0A52.14,52.14,0,0,1,568.71,219a33.1,33.1,0,0,1-7.33,5.38,13.13,13.13,0,0,1-5.82,1.7,5.25,5.25,0,0,1-2.26-.46,5.94,5.94,0,0,1-2.06-1.64l0,0,0,0a17.54,17.54,0,0,0-7.46-5.17,24.73,24.73,0,0,0-8.52-1.36,61.38,61.38,0,0,0-13.4,1.84c-6.93,1.59-14.31,3.86-21.83,5.69s-15.11,3.23-22.25,3.22h-1.37a27.92,27.92,0,0,0-6,.61,20.35,20.35,0,0,0-5,1.79,18,18,0,0,0-6.92,6.34,24.77,24.77,0,0,0-3,7.15,61.44,61.44,0,0,0-1.6,13.74c-.19,7.19.08,14.88-.43,22.33s-1.78,14.58-4.71,20.64c-4.67,9.7-9.79,18.4-15,24.3a31.85,31.85,0,0,1-7.67,6.6,13.81,13.81,0,0,1-7,2.06,14.62,14.62,0,0,1-6.6-1.72,33.74,33.74,0,0,1-8.53-6.48,31.1,31.1,0,0,0-7.62-5.77,18.27,18.27,0,0,0-8.4-2.15,16.43,16.43,0,0,0-4.74.7,20.6,20.6,0,0,0-7.45,4.24,36,36,0,0,0-5.14,5.58,84.17,84.17,0,0,0-7.57,12.5c-3.54,6.94-6.89,14.79-10.31,22.64S345.68,379,342,385.79c-8.74,16-20,35.1-29,50.13-4.52,7.52-8.49,14-11.34,18.66L298.25,460l-.9,1.45-.31.5v0l5.33,3.29Z"/><path class="cls-6" d="M204,447.26A599.05,599.05,0,0,1,142.76,399c-1.33-1.19,38.31-51,35.11-54S133,388.68,131.79,387.48C120,376,103.85,360.73,92.9,347.4c-.84-1,54.42-59.86,53.59-60.89-.63-.77-59.95,53.11-60.58,52.31-26.28-33.24-45.57-69.7-44-103.71,3.92,96.5,36.59,121.34,36.59,121.34S114.47,410,147.8,423.76,204,447.26,204,447.26Z"/><path class="cls-6" d="M500.08,435.68c-2.95-15.69-11.45-49.84-11.45-77.29s2-27.45,6.13-37.74c2-5.06.54,23.1,4.17,50.48,3.76,28.36,10.86,53.41,13.86,55.15,5.87,3.44,50.34-68.39,57.7-91.91s19.2-53.44,24.58-57.35c2.46-1.78-3.95,11.93-9.87,27.13C578.1,322.33,571,342.72,571,342.72s-29.9,68.79-41.83,75.48c-7.34,7.18-47.38,39-61.26,39.38-2.18,0-23.08,5.93-22.71,5.05,2-4.77,54.91-26.95,54.91-26.95Z"/></g></g></svg>