<svg xmlns="http://www.w3.org/2000/svg" width="174" height="50.285" viewBox="0 0 174 50.285">
  <g id="Group_986" data-name="Group 986" transform="translate(-14.584 -88.56)">
    <g id="Group_631" data-name="Group 631" transform="translate(71.041 99.98)">
      <path id="Path_5244" data-name="Path 5244" d="M54.634,115.7a.679.679,0,0,1,.405,1.235l-2.684,1.835a.572.572,0,0,0-.152.836l2.177,3.146a.878.878,0,0,1-.705,1.364A3.09,3.09,0,0,1,51.1,122.77l-6.157-8.917a1.131,1.131,0,0,0-.929-.492l-4.177.015a.615.615,0,0,0-.585.621l.021,6.033a.5.5,0,0,0,.589.492l3.277-.661a1.1,1.1,0,0,1,1.335,1.077,1.661,1.661,0,0,1-1.324,1.645l-4.327.944a1.843,1.843,0,0,1-2.2-1.786l-.07-19.3A2.254,2.254,0,0,1,38.8,100.17l5.2-.017a.489.489,0,0,0,.492-.5v-.465a1.35,1.35,0,0,1,1.354-1.366,1.325,1.325,0,0,1,1.337,1.356l0,.465a.487.487,0,0,0,.5.492l4.515-.017a2.272,2.272,0,0,1,2.268,2.253l.032,8.723a2.247,2.247,0,0,1-2.251,2.234l-3.8.013a.31.31,0,0,0-.247.5l1.867,2.747a.484.484,0,0,0,.65.091,5.537,5.537,0,0,1,3.119-.969Zm-2.893-12.3a.59.59,0,0,0-.587-.614l-11.354.04a.615.615,0,0,0-.585.621l0,1.392a.587.587,0,0,0,.589.585l11.354-.04a.571.571,0,0,0,.585-.591Zm-11.922,4.715a.615.615,0,0,0-.585.621l0,1.392a.587.587,0,0,0,.589.585l11.354-.04a.571.571,0,0,0,.585-.591l-.006-1.392a.59.59,0,0,0-.587-.614Z" transform="translate(-36.55 -97.03)" fill="#3f2727"/>
      <path id="Path_5245" data-name="Path 5245" d="M59.986,110.763a1.172,1.172,0,0,1-1.14,1.18l-.8,0a.331.331,0,0,0-.306.465l1.837,3.767a.846.846,0,0,1-.767,1.21,2.17,2.17,0,0,1-1.955-1.2l-.437-.957a.151.151,0,0,0-.277.061l.027,7.764a1.16,1.16,0,1,1-2.321.008l-.055-7.021a.111.111,0,0,0-.217-.032L52.5,118.895a1.879,1.879,0,0,1-1.789,1.212.925.925,0,0,1-.87-1.235l2.2-6.472a.308.308,0,0,0-.31-.431l-.65,0a1.176,1.176,0,1,1-.008-2.352l2.105-.006a.594.594,0,0,0,.614-.591l0-1.081a.618.618,0,0,0-.619-.617l-1.362,0a1.175,1.175,0,1,1-.008-2.35l1.362-.006a.61.61,0,0,0,.614-.589l0-1.144a.592.592,0,0,0-.619-.585l-1.856.006a1.175,1.175,0,0,1-1.18-1.172,1.15,1.15,0,0,1,1.172-1.149l1.917-.006a.552.552,0,0,0,.553-.56l0-.9a1.159,1.159,0,0,1,2.319-.008l0,.9a.553.553,0,0,0,.56.555l1.886-.006a1.149,1.149,0,0,1,1.18,1.14,1.177,1.177,0,0,1-1.172,1.18l-1.856.006a.586.586,0,0,0-.585.589l0,1.144a.606.606,0,0,0,.589.585l1.362,0a1.176,1.176,0,1,1,.008,2.352l-1.362,0a.615.615,0,0,0-.585.621l0,1.081a.589.589,0,0,0,.589.587l2.135-.008A1.169,1.169,0,0,1,59.986,110.763Zm15.535,1.706a1.237,1.237,0,0,1,.008,2.475l-1.02,0a.593.593,0,0,0-.617.589l.025,7.3a1.236,1.236,0,1,1-2.473.008l-.027-7.3a.592.592,0,0,0-.621-.585l-3.03.011a.766.766,0,0,0-.741.591l-1.52,7.306a1.559,1.559,0,0,1-1.544,1.244,1.007,1.007,0,0,1-.995-1.235l1.491-7.306a.5.5,0,0,0-.5-.585l-1.362,0a1.237,1.237,0,1,1-.008-2.475l1.546,0a.592.592,0,0,0,.587-.591l-.023-6.062a.551.551,0,0,0-.56-.553l-.9,0a1.237,1.237,0,0,1-.008-2.475l.9,0a.552.552,0,0,0,.555-.557l-.011-3.218a1.252,1.252,0,0,1,2.5-.008l.013,3.186a.567.567,0,0,0,.589.585l2.969-.011a.594.594,0,0,0,.617-.591l-.011-3.184a1.236,1.236,0,1,1,2.473-.008l.013,3.309a.486.486,0,0,0,.5.462l.587,0a1.237,1.237,0,0,1,.008,2.475l-.587,0a.49.49,0,0,0-.494.5l.023,6.126a.593.593,0,0,0,.621.585Zm-8.29-.557a.568.568,0,0,0,.587.587l2.971-.013a.593.593,0,0,0,.617-.589l-.021-6.033a.617.617,0,0,0-.623-.585l-2.969.011a.588.588,0,0,0-.585.589Z" transform="translate(-21.836 -97.141)" fill="#3f2727"/>
      <g id="Group_630" data-name="Group 630" transform="translate(60.778 0.485)">
        <path id="Path_5246" data-name="Path 5246" d="M73.418,115.658a.672.672,0,0,0-.648.621l.006,1.981a.6.6,0,0,0,.652.585l3.246-.538a1.093,1.093,0,0,1,1.242,1.111,1.413,1.413,0,0,1-1.233,1.427l-10.108,1.491a1.044,1.044,0,0,1-1.242-1.047,1.494,1.494,0,0,1,1.233-1.459l3.246-.475a.7.7,0,0,0,.614-.714l-.008-2.352a.662.662,0,0,0-.621-.614l-2.475.008a1.229,1.229,0,0,1-1.271-1.233,1.253,1.253,0,0,1,1.263-1.273l2.475-.008a.643.643,0,0,0,.617-.621L70.4,110.5a.639.639,0,0,0-.619-.617l-1.795.006a2.192,2.192,0,0,1-2.2-2.219l-.025-6.9a2.19,2.19,0,0,1,2.188-2.234l7.177-.027a2.217,2.217,0,0,1,2.234,2.221l.025,6.9a2.218,2.218,0,0,1-2.217,2.236l-1.763.006a.647.647,0,0,0-.648.621l.006,2.042a.65.65,0,0,0,.652.617l2.475-.008a1.253,1.253,0,0,1,1.273,1.263,1.229,1.229,0,0,1-1.265,1.242Zm-3.053-14.281a.669.669,0,0,0-.621-.646l-1.176,0a.647.647,0,0,0-.617.65l0,.99a.65.65,0,0,0,.621.648l1.176,0a.671.671,0,0,0,.614-.652Zm-2.392,5.7a.647.647,0,0,0,.621.646l1.176,0a.665.665,0,0,0,.614-.65l0-1.052a.639.639,0,0,0-.621-.617l-1.176,0a.621.621,0,0,0-.617.621ZM74.548,103a.676.676,0,0,0,.646-.652l0-.99a.676.676,0,0,0-.65-.648l-1.176,0a.678.678,0,0,0-.648.652l0,.99a.678.678,0,0,0,.652.648Zm-1.812,4.058a.675.675,0,0,0,.652.646l1.176,0a.673.673,0,0,0,.646-.65l0-1.052a.646.646,0,0,0-.65-.617l-1.176,0a.647.647,0,0,0-.648.621Zm14.2-.576a.787.787,0,0,0,.65.306l1.827-.006a1.771,1.771,0,0,1,1.74,2.158l-.549,2.445a1.5,1.5,0,0,1-1.512,1.182,1.026,1.026,0,0,1-.995-1.265l.3-1.425a.523.523,0,0,0-.5-.617l-8.136.03a1.194,1.194,0,0,1-1.21-1.233,1.215,1.215,0,0,1,1.2-1.242l3.805-.013a.348.348,0,0,0,.308-.528l-1.71-2.5a.779.779,0,0,1,.612-1.208h.34a2.232,2.232,0,0,1,1.831,1.014c.061.122.308.091.37-.063L86.6,101.2a.4.4,0,0,0-.372-.555l-6.126.021a1.19,1.19,0,0,1-.008-2.38l8.693-.032a1.289,1.289,0,0,1,1.151,1.913L86.9,105.742A.722.722,0,0,0,86.933,106.485Zm-17.957,13.05" transform="translate(-65.333 -97.044)" fill="#3f2727"/>
        <path id="Path_5247" data-name="Path 5247" d="M98.817,98.942a.346.346,0,0,0,.342.34l5.475-.021a1.223,1.223,0,0,1,.008,2.445l-5.475.019a.342.342,0,0,0-.338.344v.03a1.238,1.238,0,0,1-2.477.008v-.03a.341.341,0,0,0-.34-.34l-6.187.021a.348.348,0,0,0-.34.344v.03a1.236,1.236,0,1,1-2.473.008v-.03a.346.346,0,0,0-.342-.34l-5.475.019a1.222,1.222,0,1,1-.008-2.443l5.475-.021a.341.341,0,0,0,.338-.34v-.032a1.237,1.237,0,0,1,2.475-.008v.03a.343.343,0,0,0,.342.34L96,99.292a.341.341,0,0,0,.338-.34v-.032a1.237,1.237,0,0,1,2.475-.008Z" transform="translate(-49.08 -97.679)" fill="#3f2727"/>
        <path id="Path_5248" data-name="Path 5248" d="M92.6,104.762a1.184,1.184,0,0,1,1.18,1.2.338.338,0,0,0,.34.308l9.373-.034a1.271,1.271,0,0,1,1.273,1.265,1.294,1.294,0,0,1-1.265,1.271l-6.185.023a.229.229,0,0,0-.154.4l4.595,4.407a.733.733,0,0,1-.49,1.271,4.711,4.711,0,0,1-3.191-1.256l-3.849-3.7a.258.258,0,0,0-.433.186l.019,5.414a1.237,1.237,0,0,1-2.475.008l-.017-5.135a.26.26,0,0,0-.435-.184l-3.575,3.446a4.587,4.587,0,0,1-3.15,1.28.778.778,0,0,1-.532-1.265l4.624-4.441a.238.238,0,0,0-.188-.4l-6.466.023a1.294,1.294,0,0,1-1.271-1.265,1.274,1.274,0,0,1,1.263-1.273l9.373-.034a.34.34,0,0,0,.34-.31,1.182,1.182,0,0,1,1.17-1.21Z" transform="translate(-48.661 -89.806)" fill="#3f2727"/>
        <path id="Path_5249" data-name="Path 5249" d="M82.73,104.315a1.221,1.221,0,0,1-1.271-1.2,1.377,1.377,0,0,1,1.263-1.366l16.515-.893a1.2,1.2,0,0,1,1.273,1.2,1.348,1.348,0,0,1-1.265,1.335Z" transform="translate(-47.407 -94.152)" fill="#3f2727"/>
        <path id="Path_5250" data-name="Path 5250" d="M84.132,106.16a1.908,1.908,0,0,1-1.8-1.229l-.188-.5a.928.928,0,0,1,.864-1.271,1.951,1.951,0,0,1,1.829,1.263l.188.462A.955.955,0,0,1,84.132,106.16Z" transform="translate(-46.72 -91.582)" fill="#ff5b3b"/>
        <path id="Path_5251" data-name="Path 5251" d="M87.29,105.846a1.892,1.892,0,0,1-1.8-1.261l-.22-.587a.924.924,0,0,1,.862-1.242,1.94,1.94,0,0,1,1.831,1.263l.186.555A.924.924,0,0,1,87.29,105.846Z" transform="translate(-43.231 -92.034)" fill="#ff5b3b"/>
        <path id="Path_5252" data-name="Path 5252" d="M89.444,106.749a.832.832,0,0,1-.716-1.235l.923-1.674a2.463,2.463,0,0,1,2.131-1.244.832.832,0,0,1,.745,1.233l-.95,1.674A2.424,2.424,0,0,1,89.444,106.749Z" transform="translate(-39.443 -92.214)" fill="#3f2727"/>
        <path id="Path_5253" data-name="Path 5253" d="M74.371,114.579a.464.464,0,0,0,.4-.437l-.032-9.031a1.237,1.237,0,1,1,2.475-.011l.036,9.745a2.129,2.129,0,0,1-2.158,2.143l-.929,0a1.206,1.206,0,0,1-.008-2.411Z" transform="translate(-56.864 -90.8)" fill="#3f2727"/>
      </g>
      <circle id="Ellipse_100" data-name="Ellipse 100" cx="1.548" cy="1.548" r="1.548" transform="translate(7.805)" fill="#ff5b3b" stroke="#ff5b3b" stroke-miterlimit="10" stroke-width="0.5"/>
    </g>
    <g id="Group_641" data-name="Group 641" transform="translate(14.584 88.56)">
      <g id="Group_634" data-name="Group 634" transform="translate(0.04 7.357)">
        <g id="Group_632" data-name="Group 632">
          <path id="Path_5254" data-name="Path 5254" d="M26.384,98.98a10.181,10.181,0,0,1,1.584,3.5l.011.038a8.387,8.387,0,0,1,.22,1.873,6.857,6.857,0,0,1-.2,1.712,5.221,5.221,0,0,1-1.324,2.428,4.346,4.346,0,0,1-.646.545c-2.751,1.924-7.051.517-9.606-3.14s-2.4-8.178.357-10.1a4.653,4.653,0,0,1,.906-.492,5.289,5.289,0,0,1,2.635-.325,6.975,6.975,0,0,1,1.6.391,8.5,8.5,0,0,1,1.649.83l.036.023A10.223,10.223,0,0,1,26.384,98.98Z" transform="translate(-14.603 -88.782)" fill="#ff6e2e"/>
          <path id="Path_5255" data-name="Path 5255" d="M26.108,99.019a12.782,12.782,0,0,1,2.177,5.055,7.565,7.565,0,0,1,.106,1.732.39.39,0,0,1,0,.049,4.808,4.808,0,0,1-.336,1.514,2.952,2.952,0,0,1-2.785,1.9c-2.192.059-5.03-1.729-7.106-4.7-2.143-3.068-2.823-6.468-1.884-8.489a3.009,3.009,0,0,1,1.005-1.229,2.938,2.938,0,0,1,1.079-.46,3.417,3.417,0,0,1,.574-.072,4.567,4.567,0,0,1,1,.076c.16.032.323.07.488.116l.049.015a7.4,7.4,0,0,1,1.461.61A12.655,12.655,0,0,1,26.108,99.019Z" transform="translate(-13.199 -89.518)" fill="#ff7c3b"/>
          <path id="Path_5256" data-name="Path 5256" d="M20.557,103.007c2.555,3.655,6.856,5.062,9.608,3.14s2.912-6.445.357-10.1-6.856-5.062-9.608-3.14S18,99.35,20.557,103.007Z" transform="translate(-10.002 -92.044)" fill="#ff6e2e"/>
          <path id="Path_5257" data-name="Path 5257" d="M20.317,103.022c2.68,3.833,6.628,5.7,8.822,4.166s1.8-5.883-.876-9.718-6.628-5.7-8.822-4.166S17.639,99.187,20.317,103.022Z" transform="translate(-10.803 -91.24)" fill="#ff7c3b"/>
          <path id="Path_5258" data-name="Path 5258" d="M25.555,99a15.8,15.8,0,0,1,2.77,6.145,4.614,4.614,0,0,1,.019,1.548,1.718,1.718,0,0,1-.642,1.138l-.008,0a1.661,1.661,0,0,1-1.221.23,4.426,4.426,0,0,1-1.461-.526,15.687,15.687,0,0,1-4.88-4.751,15.467,15.467,0,0,1-2.8-6.335,5.1,5.1,0,0,1-.046-.84,3.412,3.412,0,0,1,.07-.6,1.969,1.969,0,0,1,.289-.712,1.385,1.385,0,0,1,.342-.351L18,93.942a1.342,1.342,0,0,1,.418-.19,1.851,1.851,0,0,1,.739-.04,3.129,3.129,0,0,1,.644.15,5.044,5.044,0,0,1,.726.308A15.371,15.371,0,0,1,25.555,99Z" transform="translate(-11.62 -90.212)" fill="#ff8f40"/>
        </g>
        <g id="Group_633" data-name="Group 633" transform="translate(3.76 0.703)">
          <path id="Path_5259" data-name="Path 5259" d="M20.281,93.422c.084.12,0,.344-.207.614a4.986,4.986,0,0,1-.9.859c-.074.057-.154.112-.234.169-.1.072-.2.139-.3.2a4.77,4.77,0,0,1-1.073.517c-.315.1-.545.1-.629-.023-.072-.1-.021-.283.125-.5a2.925,2.925,0,0,1,.346-.416l.008-.006a5.953,5.953,0,0,1,.851-.712l.015-.011a6.265,6.265,0,0,1,.883-.522,3.207,3.207,0,0,1,.513-.2C19.977,93.3,20.2,93.3,20.281,93.422Z" transform="translate(-15.812 -91.32)" fill="#909e13"/>
          <rect id="Rectangle_376" data-name="Rectangle 376" width="2.013" height="3.039" transform="translate(0 1.153) rotate(-34.937)" fill="#909e13"/>
        </g>
      </g>
      <g id="Group_636" data-name="Group 636" transform="translate(19.282 8.851)">
        <path id="Path_5260" data-name="Path 5260" d="M28.842,96.291c-1.09.938-2.481,2.713-3.284,3.265-.247.171-.439.226-.549.1a.743.743,0,0,1-.08-.12,1.964,1.964,0,0,1-.171-.619A6.151,6.151,0,0,1,26.971,93.8c1.33-1.229,3.03-1.231,3.564-.756a.725.725,0,0,1,.057.057C31.051,93.635,30.265,95.062,28.842,96.291Z" transform="translate(-22.592 -92.752)" fill="#7b8710"/>
        <path id="Path_5261" data-name="Path 5261" d="M29.957,93.237c-.458.53.325,1.957,1.753,3.186s3.372,3.9,3.83,3.364.688-3.408-1.962-5.853C32.2,92.659,30.413,92.705,29.957,93.237Z" transform="translate(-16.922 -92.604)" fill="#7b8710"/>
        <path id="Path_5262" data-name="Path 5262" d="M40.994,101.091a8.112,8.112,0,0,1-7.481,8.087c-.207.015-.416.023-.627.023-.16,0-.321-.006-.479-.015h0a8.109,8.109,0,0,1-7.629-8.1,8.223,8.223,0,0,1,.1-1.256c.025-.148.051-.3.082-.443a8.106,8.106,0,0,1,16,.912A7.454,7.454,0,0,1,40.994,101.091Z" transform="translate(-22.535 -92.496)" fill="#909e13"/>
        <g id="Group_635" data-name="Group 635" transform="translate(6.975 2.703)">
          <path id="Path_5263" data-name="Path 5263" d="M29.558,101.026c0,3.862-.277,6.994-.617,6.994s-.617-3.132-.617-6.994.277-6.994.617-6.994S29.558,97.164,29.558,101.026Z" transform="translate(-25.566 -94.032)" fill="#e6e2e0"/>
          <path id="Path_5264" data-name="Path 5264" d="M28.629,97.68a7.132,7.132,0,0,1-1.5-2.3c.1-.125.935.7,1.862,1.848a7.039,7.039,0,0,1,1.5,2.3C30.388,99.652,29.556,98.825,28.629,97.68Z" transform="translate(-26.902 -92.547)" fill="#e6e2e0"/>
          <path id="Path_5265" data-name="Path 5265" d="M28.523,99.656a7.062,7.062,0,0,1-1.5-2.3c.1-.125.933.7,1.86,1.848a7.039,7.039,0,0,1,1.5,2.3C30.282,101.628,29.45,100.8,28.523,99.656Z" transform="translate(-27.018 -90.35)" fill="#e6e2e0"/>
          <path id="Path_5266" data-name="Path 5266" d="M30.426,97.68a7.09,7.09,0,0,0,1.5-2.3c-.1-.125-.935.7-1.862,1.848a7.039,7.039,0,0,0-1.5,2.3C28.667,99.652,29.5,98.825,30.426,97.68Z" transform="translate(-25.31 -92.547)" fill="#e6e2e0"/>
          <path id="Path_5267" data-name="Path 5267" d="M30.531,99.656a7.062,7.062,0,0,0,1.5-2.3c-.1-.125-.933.7-1.86,1.848a7.039,7.039,0,0,0-1.5,2.3C28.772,101.628,29.6,100.8,30.531,99.656Z" transform="translate(-25.193 -90.35)" fill="#e6e2e0"/>
        </g>
        <path id="Path_5268" data-name="Path 5268" d="M33.587,106.071c-.127.011-11.166.948-9.745-8.529.275-1.835,1.043-2.074,2.04-1.442.084.053.167.112.253.175a6.409,6.409,0,0,1,.547.467C29.266,99.17,32.736,105.442,33.587,106.071Z" transform="translate(-23.715 -89.38)" fill="#4a750e"/>
        <path id="Path_5269" data-name="Path 5269" d="M28.909,106.071s11.172,1,9.745-8.529C37.659,90.912,30.208,105.114,28.909,106.071Z" transform="translate(-17.942 -89.38)" fill="#4a750e"/>
      </g>
      <g id="Group_637" data-name="Group 637" transform="translate(5.145 13.369)">
        <path id="Path_5270" data-name="Path 5270" d="M24.455,99.112l-.541-.353,0,0,0,0v0l-.019.051c-.023.053-.057.144-.1.264l-.008.021-.046.129v0l-.042.127v0c-.027.08-.055.167-.08.26v0l0,0c-.015.051-.03.1-.042.156v0l-.03.106,0,.019c-.015.049-.025.1-.038.154h0a.889.889,0,0,0-.025.1l-.006.025,0,.025v0l-.019.08h0l-.015.08v0c-.011.055-.023.11-.032.167l0,.023-.011.068c-.011.072-.021.144-.03.215l0,0a4.939,4.939,0,0,0-.023,1.1l-.353-1.166-.055-.173-.008-.03-.023-.082-.114-.376h0l-.053-.171h0l-.023-.08-.065-.215v0l-.025-.076-.049-.163,0-.017-.055-.177,0,0,0-.017-.021-.068-.063-.209L22.4,98.88l0,0-.057-.188,0-.015-.057-.188-.019-.061-.239-.788,0-.006-.008,0-.614.228-.106.04-.11.03-.633.171-.008,0,0,.006.262.779.021.061.061.186.006.015.061.188,0,0,.019.055.07.2.021.068.006.017v0l.059.177.006.017.053.16.025.076,0,0,.072.213.025.078,0,0,.055.169h0l.125.372.027.082.011.03.059.171.386,1.155a4.965,4.965,0,0,0-.659-.885h0c-.049-.055-.1-.108-.15-.158l-.046-.049-.017-.017c-.04-.04-.082-.08-.122-.118l0,0-.059-.055v0l-.061-.055h0l-.019-.019-.019-.017-.08-.068v0c-.04-.034-.078-.07-.118-.1l-.015-.013-.084-.07,0,0-.125-.1-.006,0v0c-.074-.059-.148-.116-.215-.165l0,0-.108-.08,0,0-.114-.08-.017-.011c-.106-.074-.186-.127-.234-.158l-.046-.03v0l-.006,0v0l-.234.6-.22.56a4.723,4.723,0,0,1,.9.538c.025.017.051.036.074.055.055.044.11.089.158.133a3.684,3.684,0,0,1,.281.26c.025.023.046.044.07.07.046.049.091.1.135.146a6.382,6.382,0,0,1,1.442,3.172l1.144-.367.467-.148L25,104.776a6.362,6.362,0,0,1-.663-3.421q.009-.1.025-.2c0-.034.008-.065.015-.1.019-.125.046-.249.078-.374.015-.065.034-.133.053-.2.008-.027.017-.059.027-.089a4.772,4.772,0,0,1,.418-.959Z" transform="translate(-14.609 -91.845)" fill="#4a750e"/>
        <path id="Path_5271" data-name="Path 5271" d="M30.279,99.135a.2.2,0,0,0-.19-.2.189.189,0,0,0,.074-.177.2.2,0,0,0-.11-.15.182.182,0,0,0-.106-.019A.188.188,0,0,0,30,98.449a.158.158,0,0,0,0-.044.18.18,0,0,0-.044-.078.2.2,0,0,0-.192-.061.187.187,0,0,0,.023-.19.214.214,0,0,1-.253-.3.2.2,0,0,0-.264-.07.2.2,0,0,0-.3-.228.185.185,0,0,0-.053-.184.193.193,0,0,0-.272,0,.194.194,0,0,0-.348-.137.187.187,0,0,0-.1-.165.2.2,0,0,0-.264.074.19.19,0,0,0-.12-.15.2.2,0,0,0-.251.11.186.186,0,0,0-.139-.133.2.2,0,0,0-.234.141.2.2,0,0,0-.372.061A.192.192,0,0,0,26.643,97a.2.2,0,0,0-.188.2.193.193,0,0,0-.179-.068.2.2,0,0,0-.163.224.187.187,0,0,0-.186-.042.193.193,0,0,0-.133.217l-.011-.006v0a.2.2,0,0,0-.163-.222.194.194,0,0,0-.093-.363.189.189,0,0,0,.074-.177.184.184,0,0,0-.1-.146l-.011,0a.172.172,0,0,0-.1-.019.2.2,0,0,0,.055-.139.165.165,0,0,0-.006-.046.169.169,0,0,0-.044-.078.153.153,0,0,1-.167-.251.2.2,0,0,0-.253-.108.19.19,0,0,0,0-.192.2.2,0,0,0-.264-.072.2.2,0,0,0-.027-.192.2.2,0,0,0-.27-.034.195.195,0,0,0-.327-.184.194.194,0,0,0-.348-.137.194.194,0,0,0-.363-.091.2.2,0,0,0-.122-.152A.2.2,0,0,0,23,95.03a.186.186,0,0,0-.139-.133.2.2,0,0,0-.234.141.194.194,0,0,0-.37.059.2.2,0,0,0-.171-.091l-.021,0a.2.2,0,0,0-.167.2.2.2,0,0,0-.182-.065.2.2,0,0,0-.158.224.193.193,0,0,0-.321.173.2.2,0,0,0-.156-.017.2.2,0,0,0-.129.249l0,0a.2.2,0,0,0-.158-.019.2.2,0,0,0-.129.249.18.18,0,0,0,.059.082l.011.021a.19.19,0,0,0-.179-.038.2.2,0,0,0-.129.239.2.2,0,0,0-.07.323.193.193,0,0,0-.175.076.2.2,0,0,0,.04.272.192.192,0,0,0-.165.1.194.194,0,0,0,.076.262.19.19,0,0,0-.148.122.2.2,0,0,0,.106.249l-.036.017a.2.2,0,0,0-.093.125.316.316,0,0,0,0,.046c0,.008,0,.019,0,.027a.2.2,0,0,0,.141.16l0,0a.19.19,0,0,0-.11.154.2.2,0,0,0,.169.213.2.2,0,0,0-.087.171.2.2,0,0,0,.2.188.191.191,0,0,0-.065.179.208.208,0,0,0,.084.131.194.194,0,0,0-.236.11.19.19,0,0,0-.139-.133.2.2,0,0,0-.234.144.194.194,0,0,0-.37.059.193.193,0,0,0-.169-.091.2.2,0,0,0-.19.2.194.194,0,0,0-.182-.068.2.2,0,0,0-.158.224.193.193,0,0,0-.321.175.192.192,0,0,0-.156-.019.2.2,0,0,0-.129.249l0,.006a.189.189,0,0,0-.158-.019.2.2,0,0,0-.129.247.2.2,0,0,0,.059.084l.011.021a.189.189,0,0,0-.179-.038.2.2,0,0,0-.131.239.236.236,0,0,0-.07.046.2.2,0,0,0,0,.275.194.194,0,0,0-.135.348.2.2,0,0,0-.165.1.2.2,0,0,0,.076.264.187.187,0,0,0-.148.122.2.2,0,0,0,.106.249l-.034.015a.2.2,0,0,0-.093.127.346.346,0,0,0,0,.046l0,.025a.192.192,0,0,0,.139.16.208.208,0,0,0-.1.12l-.006.038a.2.2,0,0,0,.116.2.223.223,0,0,0,.051.013l-.03.027a.2.2,0,0,0-.055.146.2.2,0,0,0,.2.188.188.188,0,0,0-.063.179.2.2,0,0,0,.217.16.194.194,0,0,0-.034.186.2.2,0,0,0,.239.131.2.2,0,0,0,.243.285.192.192,0,0,0,.015.19.2.2,0,0,0,.264.061.2.2,0,0,0,.31.211.2.2,0,0,0,.336.167.187.187,0,0,0,.089.169.19.19,0,0,0,.264-.046.2.2,0,0,0,.372.074.188.188,0,0,0,.129.137.19.19,0,0,0,.243-.116.212.212,0,0,0,.148.122.2.2,0,0,0,.228-.148.2.2,0,0,0,.16.1.2.2,0,0,0,.207-.179.2.2,0,0,0,.353-.125.2.2,0,0,0,.184.053.2.2,0,0,0,.15-.226.2.2,0,0,0,.308-.213.2.2,0,0,0,.19,0,.2.2,0,0,0,.087-.258.19.19,0,0,0,.188-.023.186.186,0,0,0,.078-.125.183.183,0,0,0-.03-.139l0,0a.191.191,0,0,0,.186-.046.188.188,0,0,0,.042-.224.174.174,0,0,0-.032-.049.191.191,0,0,0,.179-.07.2.2,0,0,0-.023-.27h0a.166.166,0,0,0,.084-.019.19.19,0,0,0,.082-.076.2.2,0,0,0-.059-.264.192.192,0,0,0,.15-.116.171.171,0,0,0,.015-.1l.006,0a.2.2,0,0,0,.239-.089.2.2,0,0,0,.131.139.237.237,0,0,0,.038.006l0,0a.2.2,0,0,0,.2-.125l0,0a.189.189,0,0,0,.144.122.194.194,0,0,0,.228-.152.194.194,0,0,0,.365-.074.2.2,0,0,0,.175.078l.025,0a.2.2,0,0,0,.154-.2.193.193,0,0,0,.332-.171.2.2,0,0,0,.19.032l.032-.015a.193.193,0,0,0,.084-.232.206.206,0,0,0,.091.027.2.2,0,0,0,.165,0,.19.19,0,0,0,.008.192.2.2,0,0,0,.133.084.2.2,0,0,0,.135-.025.195.195,0,0,0,.31.209.2.2,0,0,0,.061.184.2.2,0,0,0,.275-.015.193.193,0,0,0,.084.171.2.2,0,0,0,.27-.051.183.183,0,0,0,.108.158l.006,0a.2.2,0,0,0,.253-.089.186.186,0,0,0,.129.141.2.2,0,0,0,.245-.12.2.2,0,0,0,.146.125.192.192,0,0,0,.226-.152.2.2,0,0,0,.165.1.2.2,0,0,0,.2-.18.192.192,0,0,0,.173.08.2.2,0,0,0,.179-.209.192.192,0,0,0,.184.059.2.2,0,0,0,.15-.232.183.183,0,0,0,.188.034.2.2,0,0,0,.116-.247.2.2,0,0,0,.194.006.2.2,0,0,0,.082-.262.193.193,0,0,0,.19-.019.191.191,0,0,0,.046-.268.209.209,0,0,0,.19-.044.2.2,0,0,0,.008-.277.2.2,0,0,0,.182-.068.2.2,0,0,0-.027-.272.189.189,0,0,0,.167-.093.2.2,0,0,0-.061-.268.192.192,0,0,0,.154-.114.213.213,0,0,1,.04-.391.194.194,0,0,0-.131-.239.2.2,0,0,0,.118-.152.2.2,0,0,0-.163-.222A.194.194,0,0,0,30.279,99.135Zm-9.844.021a.211.211,0,0,0-.032.049.2.2,0,0,0-.07-.061A.183.183,0,0,0,20.434,99.156Z" transform="translate(-17.02 -94.891)" fill="#909e13"/>
      </g>
      <g id="Group_638" data-name="Group 638" transform="translate(25.967)">
        <path id="Path_5272" data-name="Path 5272" d="M29.972,90.863a2.019,2.019,0,0,1-2.589-2.27,2.16,2.16,0,0,1,2.654,2.166Z" transform="translate(-26.327 -88.56)" fill="#4a750e"/>
        <path id="Path_5273" data-name="Path 5273" d="M28.582,90.291h0a.6.6,0,0,1,.566-.786h0a.6.6,0,0,1,.568.786h0A.6.6,0,0,1,28.582,90.291Z" transform="translate(-25.024 -87.51)" fill="#909e13"/>
        <path id="Path_5274" data-name="Path 5274" d="M28.8,90.017" transform="translate(-24.75 -86.941)" fill="none" stroke="#ff37ff" stroke-miterlimit="10" stroke-width="3"/>
        <path id="Path_5275" data-name="Path 5275" d="M26.881,92.974c0,1.932,1.529,3.849,2.973,3.849a1.563,1.563,0,0,0,1.075-.41,1.563,1.563,0,0,0,1.075.41c1.444,0,2.973-1.917,2.973-3.849s-.99-3.277-2.435-3.277a2.23,2.23,0,0,0-1.613.743,2.222,2.222,0,0,0-1.613-.743C27.871,89.7,26.881,91.042,26.881,92.974Z" transform="translate(-26.881 -87.297)" fill="#e94c3b"/>
      </g>
      <g id="Group_639" data-name="Group 639" transform="translate(17.103 17.005)">
        <path id="Path_5276" data-name="Path 5276" d="M30.766,103.549c1.153-2.589,1.039-5.429-.933-6.5-.025-.015-.053-.03-.078-.042h0l-.078-.042c-1.972-1.068-4.413.389-5.948,2.768-1.962,3.036-.908,5.184,1.064,6.252l.08.042h0l.076.042C26.921,107.143,29.3,106.852,30.766,103.549Zm-5.684-3.419a.21.21,0,1,1,.264-.1A.2.2,0,0,1,25.082,100.13Zm2.067-1.607a.2.2,0,0,1-.065-.272.19.19,0,1,1,.332.179A.2.2,0,0,1,27.149,98.524Zm-1.558,3.925a.2.2,0,0,1-.065-.275.19.19,0,1,1,.065.275Zm-.91,2.475a.2.2,0,0,1-.065-.272.19.19,0,1,1,.332.179A.2.2,0,0,1,24.681,104.924Zm3.976-6.943a.211.211,0,1,1,.266-.1A.2.2,0,0,1,28.657,97.981Zm.821.207a.19.19,0,1,1,.332.179.189.189,0,1,1-.332-.179Zm-3.575,7.4a.2.2,0,0,1-.068-.272.19.19,0,1,1,.334.179A.2.2,0,0,1,25.9,105.585Zm1.575-2.114a.21.21,0,0,1,.2-.367.2.2,0,0,1,.068.272A.2.2,0,0,1,27.479,103.471Zm2.435-3.452a.2.2,0,0,1-.068-.272.19.19,0,1,1,.332.179A.2.2,0,0,1,29.913,100.019Zm-.215,2.612a.2.2,0,0,1-.065-.275.189.189,0,1,1,.332.179A.2.2,0,0,1,29.7,102.631Z" transform="translate(-22.683 -96.613)" fill="#fdde7b"/>
        <path id="Path_5277" data-name="Path 5277" d="M26.247,97.6a.19.19,0,1,0-.332-.179.189.189,0,1,0,.332.179Z" transform="translate(-19.12 -95.845)" fill="#bc9c53"/>
        <path id="Path_5278" data-name="Path 5278" d="M26.356,98.063a.2.2,0,0,0-.266.1.189.189,0,1,0,.332.179A.2.2,0,0,0,26.356,98.063Z" transform="translate(-18.927 -95.025)" fill="#bc9c53"/>
        <path id="Path_5279" data-name="Path 5279" d="M26.255,99.3a.2.2,0,0,0-.266.093.19.19,0,1,0,.332.179A.2.2,0,0,0,26.255,99.3Z" transform="translate(-19.039 -93.651)" fill="#bc9c53"/>
        <path id="Path_5280" data-name="Path 5280" d="M25.2,99.7a.21.21,0,0,0-.2.367.2.2,0,0,0,.266-.1A.2.2,0,0,0,25.2,99.7Z" transform="translate(-20.209 -93.208)" fill="#bc9c53"/>
        <path id="Path_5281" data-name="Path 5281" d="M24.457,100.7a.2.2,0,0,0-.266.1.2.2,0,0,0,.068.272.21.21,0,0,0,.2-.367Z" transform="translate(-21.038 -92.095)" fill="#bc9c53"/>
        <path id="Path_5282" data-name="Path 5282" d="M25.761,97.1a.211.211,0,1,0,.068.275A.2.2,0,0,0,25.761,97.1Z" transform="translate(-19.588 -96.099)" fill="#bc9c53"/>
        <path id="Path_5283" data-name="Path 5283" d="M25.048,97.355a.2.2,0,0,0-.266.1.189.189,0,1,0,.332.179A.2.2,0,0,0,25.048,97.355Z" transform="translate(-20.381 -95.812)" fill="#bc9c53"/>
        <path id="Path_5284" data-name="Path 5284" d="M24.068,98.116a.21.21,0,1,0,.065.272A.2.2,0,0,0,24.068,98.116Z" transform="translate(-21.47 -94.967)" fill="#bc9c53"/>
        <path id="Path_5285" data-name="Path 5285" d="M24.31,99.214a.2.2,0,0,0-.266.093.19.19,0,1,0,.266-.093Z" transform="translate(-21.201 -93.746)" fill="#bc9c53"/>
        <path id="Path_5286" data-name="Path 5286" d="M23.879,100.386a.2.2,0,0,0-.266.1.189.189,0,1,0,.332.179A.2.2,0,0,0,23.879,100.386Z" transform="translate(-21.68 -92.443)" fill="#bc9c53"/>
      </g>
      <rect id="Rectangle_377" data-name="Rectangle 377" width="37.115" height="26.554" transform="translate(1.178 23.429)" fill="#754c24"/>
      <g id="Group_640" data-name="Group 640" transform="translate(1.093 23.43)">
        <path id="Path_5287" data-name="Path 5287" d="M22.785,109.077a.577.577,0,0,0,.334-.1l6.005-4.472a.3.3,0,0,0,.129-.232V102.51c0-.184-.207-.332-.462-.332H22.785c-.256,0-.465.148-.465.332v6.236a.353.353,0,0,0,.291.306A.592.592,0,0,0,22.785,109.077Z" transform="translate(-7.076 -96.853)" fill="#c69c6d"/>
        <path id="Path_5288" data-name="Path 5288" d="M32.028,103.928l-5.754,4.284a.29.29,0,0,0-.129.23v7.777c0,.182.207.332.462.332h5.754c.256,0,.465-.15.465-.332V104.158a.356.356,0,0,0-.291-.308A.594.594,0,0,0,32.028,103.928Z" transform="translate(-2.824 -95.021)" fill="#c69c6d"/>
        <path id="Path_5289" data-name="Path 5289" d="M19.08,114.9a.577.577,0,0,0,.334-.1l5.752-4.284a.293.293,0,0,0,.131-.23V102.51c0-.184-.207-.332-.465-.332H19.08c-.258,0-.465.148-.465.332v12.061a.356.356,0,0,0,.291.308A.672.672,0,0,0,19.08,114.9Z" transform="translate(-11.195 -96.853)" fill="#c69c6d"/>
        <path id="Path_5290" data-name="Path 5290" d="M15.566,118.382h5.349c.256,0,.465-.15.465-.332V102.51c0-.184-.209-.332-.465-.332H15.566c-.256,0-.465.148-.465.332v15.541C15.1,118.233,15.31,118.382,15.566,118.382Z" transform="translate(-15.101 -96.853)" fill="#c69c6d"/>
        <path id="Path_5291" data-name="Path 5291" d="M18.615,118.051c0,.182.207.332.465.332h2.582a.568.568,0,0,0,.334-.1l19.07-14.2a.29.29,0,0,0,.131-.23V102.51c0-.184-.209-.332-.465-.332H38.149a.559.559,0,0,0-.334.1l-19.07,14.2a.287.287,0,0,0-.131.23Z" transform="translate(-11.195 -96.853)" fill="#c69c6d"/>
        <path id="Path_5292" data-name="Path 5292" d="M52.058,110.241H15.566c-.256,0-.465.148-.465.332v3.839c0,.184.209.334.465.334H52.058c.256,0,.462-.15.462-.334v-3.839C52.521,110.389,52.314,110.241,52.058,110.241Zm-33.735,2.251c0-.437.5-.792,1.1-.792s1.1.355,1.1.792-.494.79-1.1.79S18.323,112.927,18.323,112.492Zm28.773,0c0-.437.494-.792,1.1-.792s1.1.355,1.1.792-.494.79-1.1.79S47.1,112.927,47.1,112.492Z" transform="translate(-15.101 -87.89)" fill="#c69c6d"/>
        <path id="Path_5293" data-name="Path 5293" d="M26.607,103.063a.568.568,0,0,0,.334-.1l.3-.222a.265.265,0,0,0,.093-.361.491.491,0,0,0-.424-.2h-.3c-.256,0-.462.148-.462.332v.22a.351.351,0,0,0,.289.308A.614.614,0,0,0,26.607,103.063Z" transform="translate(-2.824 -96.853)" fill="#c69c6d"/>
        <path id="Path_5294" data-name="Path 5294" d="M28.456,106.687l-6.005,4.472a.287.287,0,0,0-.131.23v1.763c0,.182.209.332.465.332H28.79c.255,0,.462-.15.462-.332v-6.236a.353.353,0,0,0-.289-.308A.6.6,0,0,0,28.456,106.687Z" transform="translate(-7.076 -91.954)" fill="#c69c6d"/>
        <path id="Path_5295" data-name="Path 5295" d="M52.058,99.656H15.566c-.256,0-.465.148-.465.332v3.839c0,.184.209.334.465.334H52.058c.256,0,.462-.15.462-.334V99.988C52.521,99.8,52.314,99.656,52.058,99.656Zm-33.735,2.253c0-.437.5-.79,1.1-.79s1.1.353,1.1.79-.494.79-1.1.79S18.323,102.344,18.323,101.909Zm28.773,0c0-.437.494-.79,1.1-.79s1.1.353,1.1.79-.494.79-1.1.79S47.1,102.344,47.1,101.909Z" transform="translate(-15.101 -99.656)" fill="#c69c6d"/>
        <path id="Path_5296" data-name="Path 5296" d="M35.663,102.178H30.315c-.258,0-.465.148-.465.332v15.541c0,.182.207.332.465.332h5.349c.256,0,.462-.15.462-.332V102.51C36.126,102.326,35.919,102.178,35.663,102.178Z" transform="translate(1.294 -96.853)" fill="#c69c6d"/>
        <path id="Path_5297" data-name="Path 5297" d="M21.627,109.535l-.3.22a.268.268,0,0,0-.093.361.5.5,0,0,0,.427.2h.3c.258,0,.465-.15.465-.332v-.222a.356.356,0,0,0-.289-.308A.6.6,0,0,0,21.627,109.535Z" transform="translate(-8.322 -88.788)" fill="#c69c6d"/>
      </g>
      <path id="Path_5298" data-name="Path 5298" d="M41.837,102.817l-.011-.017c-.133.38-.266.777-.408,1.191-1.248,3.685-2.663,7.861-5,8.206-1.176.173-2.392-.644-3.719-2.5-.484-.678-.957-.828-1.138-.718-.141.084-.188.386.042.849.718,1.434.874,2.278.492,2.656s-1.151.076-1.683-.2c-1.176-.6-2.777-1.5-3.461-1.884a.443.443,0,0,0-.6.072c-.122.19.021.477.367.733.576.424,2.321,1.453,3.066,1.892l.2.118a.7.7,0,0,1,.342.929.672.672,0,0,1-.912.256c-.553-.253-2.494-1.341-3.322-1.805l-.152-.087a.44.44,0,0,0-.593.074c-.125.19.021.479.367.735.623.458,3.129,1.873,3.856,2.259a.745.745,0,0,1,.437.969.623.623,0,0,1-.891.2c-.621-.31-2.817-1.522-3.465-1.886a.44.44,0,0,0-.593.074c-.125.19.021.477.367.733.629.465,3.254,1.936,3.871,2.266a.738.738,0,0,1,.395.963.606.606,0,0,1-.862.2c-.617-.306-2.844-1.537-3.467-1.888a.444.444,0,0,0-.593.074c-.125.19.021.479.367.735a22.771,22.771,0,0,0,4,2.226,14.352,14.352,0,0,0,13.018-.724A36.378,36.378,0,0,0,41.837,102.817Z" transform="translate(-3.306 -72.731)" fill="#fff"/>
      <path id="Path_5299" data-name="Path 5299" d="M15.723,102.817l.013-.017q.2.57.408,1.191c1.248,3.685,2.663,7.861,4.994,8.206,1.178.173,2.395-.644,3.721-2.5.484-.678.957-.828,1.138-.718.141.084.188.386-.042.849-.718,1.434-.874,2.278-.492,2.656s1.149.076,1.683-.2c1.174-.6,2.775-1.5,3.459-1.884a.445.445,0,0,1,.6.072c.122.19-.023.477-.37.733-.574.424-2.319,1.453-3.064,1.892l-.2.118a.7.7,0,0,0-.34.929.672.672,0,0,0,.912.256c.553-.253,2.492-1.341,3.319-1.805l.152-.087a.442.442,0,0,1,.6.074c.122.19-.021.479-.367.735-.625.458-3.129,1.873-3.858,2.259a.744.744,0,0,0-.435.969.62.62,0,0,0,.889.2c.623-.31,2.819-1.522,3.465-1.886a.443.443,0,0,1,.6.074c.122.19-.021.477-.367.733-.629.465-3.256,1.936-3.873,2.266a.737.737,0,0,0-.393.963.606.606,0,0,0,.862.2c.617-.306,2.842-1.537,3.465-1.888a.447.447,0,0,1,.6.074c.122.19-.021.479-.367.735a22.852,22.852,0,0,1-4,2.226,14.356,14.356,0,0,1-13.02-.724A36.435,36.435,0,0,1,15.723,102.817Z" transform="translate(-14.584 -72.731)" fill="#fff"/>
    </g>
  </g>
</svg>

