<?xml version="1.0" encoding="utf-8"?>
<!-- Generator: Adobe Illustrator 21.1.0, SVG Export Plug-In . SVG Version: 6.00 Build 0)  -->
<svg version="1.1" id="圖層_1" xmlns="http://www.w3.org/2000/svg" xmlns:xlink="http://www.w3.org/1999/xlink" x="0px" y="0px"
	 viewBox="0 0 23.4 26.8" style="enable-background:new 0 0 23.4 26.8;" xml:space="preserve" width="20" height="20">
<style type="text/css">
	.st0{fill:#6B2F07;}
</style>
<path id="Icon_awesome-trash" class="st0" d="M22.6,1.7h-6.3l-0.5-1C15.6,0.3,15.2,0,14.7,0h-6C8.2,0,7.8,0.3,7.6,0.7l-0.5,1H0.8
	C0.4,1.7,0,2,0,2.5v1.7C0,4.6,0.4,5,0.8,5h21.8c0.5,0,0.8-0.4,0.8-0.8V2.5C23.4,2,23.1,1.7,22.6,1.7z M2.8,24.4
	c0.1,1.3,1.2,2.4,2.5,2.4h12.9c1.3,0,2.4-1,2.5-2.4l1.1-17.7H1.7L2.8,24.4z"/>
</svg>
