<?xml version="1.0" encoding="utf-8"?>
<!-- Generator: Adobe Illustrator 21.1.0, SVG Export Plug-In . SVG Version: 6.00 Build 0)  -->
<svg version="1.1" id="Icon_ionic-ios-close-circle-outline"
	 xmlns="http://www.w3.org/2000/svg" xmlns:xlink="http://www.w3.org/1999/xlink" width="30" height="30" viewBox="0 0 60.4 60.4"
	 style="enable-background:new 0 0 60.4 60.4;" xml:space="preserve">
<style type="text/css">
	.st0{fill:#008000;}
	.st1{fill:#FFFFFF;}
</style>
<g>
	<g id="XMLID_1_">
		<g>
			<path class="st0" d="M56.4,30.2c0,6.9-2.8,13.6-7.7,18.5c-10.3,10.1-26.9,9.8-37-0.5c-9.9-10.1-9.9-26.3,0-36.5
				C16.6,6.8,23.3,4,30.2,4.1C44.6,4.1,56.4,15.8,56.4,30.2z M41.1,41.1c0.9-0.9,0.9-2.3,0-3.3c0,0,0,0,0,0l-7.7-7.6l7.7-7.7
				c0.9-0.9,0.9-2.4,0-3.3s-2.4-0.9-3.3,0l-7.7,7.6l-7.6-7.6c-0.9-0.9-2.4-0.9-3.3,0c-0.9,0.9-0.9,2.4,0,3.3l7.6,7.7l-7.6,7.6
				c-0.9,0.8-1,2.3-0.1,3.2c0,0,0.1,0.1,0.1,0.1c0.9,0.9,2.3,0.9,3.3,0c0,0,0,0,0,0l7.6-7.7l7.7,7.6C38.8,42.1,40.2,42.1,41.1,41.1z
				"/>
			<path class="st1" d="M41.2,37.9c0.9,0.9,0.9,2.4,0,3.3c-0.9,0.9-2.4,0.9-3.3,0l-7.7-7.6l-7.6,7.7c0,0,0,0,0,0
				c-0.9,0.9-2.4,0.9-3.3,0c0,0-0.1-0.1-0.1-0.1c-0.8-0.9-0.8-2.3,0.1-3.2l7.6-7.6l-7.6-7.7c-0.9-0.9-0.9-2.4,0-3.3
				c0.9-0.9,2.4-0.9,3.3,0l7.6,7.6l7.7-7.6c0.9-0.9,2.4-0.9,3.3,0s0.9,2.4,0,3.3l-7.7,7.7L41.2,37.9C41.2,37.9,41.2,37.9,41.2,37.9z
				"/>
		</g>
		<g>
		</g>
	</g>
</g>
</svg>
