<svg xmlns="http://www.w3.org/2000/svg" width="39.389" height="35.013" viewBox="0 0 39.389 35.013">
  <path id="Icon_awesome-shopping-cart" data-name="Icon awesome-shopping-cart" d="M36.115,20.605,39.348,6.382a1.641,1.641,0,0,0-1.6-2H10.887L10.26,1.312A1.641,1.641,0,0,0,8.653,0H1.641A1.641,1.641,0,0,0,0,1.641V2.735A1.641,1.641,0,0,0,1.641,4.377H6.42l4.8,23.486a3.83,3.83,0,1,0,4.585.586H30.145a3.829,3.829,0,1,0,4.349-.712l.377-1.66a1.641,1.641,0,0,0-1.6-2H14.916l-.448-2.188H34.515A1.641,1.641,0,0,0,36.115,20.605Z"/>
</svg>
