<svg xmlns="http://www.w3.org/2000/svg" width="395.083" height="91.29" viewBox="0 0 395.083 91.29">
  <g id="Group_901" data-name="Group 901" transform="translate(-470.296 -64.721)">
    <g id="Group_903" data-name="Group 903" transform="translate(470.296 64.721)">
      <path id="Path_5613" data-name="Path 5613" d="M804,69.3c.117.209.2.58.35.606,1.153.2,2.313.376,3.48.475.257.024.542-.269.937-.48l-.794-.473c2.644,0,5.216-.031,7.788.01,2.482.036,4.962.147,7.442.221,3.271.1,6.543.278,9.812.254,3.9-.031,7.793-.264,11.692-.368,1.105-.029,2.216.121,3.321.112,3.435-.026,6.871-.1,10.306-.14.364,0,.73.04,1.248.071l-.471,1.479a2.936,2.936,0,0,1,.739.052c.506.178,1.379-.083,1.412.67.021.5-.49,1.02-.77,1.545l3.495.637v2.121c.438.326.913.68,1.388,1.032l-.1.311-1.928.311c.637,1.155-1.491,1.274-.768,2.318-.637.466-1.175.849-1.7,1.251-.114.088-.166.364-.257.368-.944.045-.941.956-1.4,1.4a1.416,1.416,0,0,0-.252,2.059l-1.127.616.677.763-.038-.04c-.221.316-.44.632-.663.951.345.04.806.1,1.417.171a1.755,1.755,0,0,1-1.545.756,15.742,15.742,0,0,0-1.9.157,1.681,1.681,0,0,0-.963.464,2.05,2.05,0,0,0-.426,1.144c-.01.19.392.4.711.7l-1.607.354,1.517,1.193-2.073.361c-.3,1.086-.578,2.1-.858,3.117l.033-.048a6.374,6.374,0,0,1-1.317,1.236,6.023,6.023,0,0,1-2.014.521c-1.45.171-2.908.262-4.453.392.283.668.573,1.358.863,2.049l-1.536.321-.162-.682c-.078.024-.2.026-.226.078a4.335,4.335,0,0,1-.5.875,4.864,4.864,0,0,0-1.251,2.389,18.335,18.335,0,0,1-.88,2.228l.958,1.258-.889.984c-.93.081-.185-1.529-1.376-1.151l.25.571c-.295.09-.789.117-.839.278-.43,1.381-1.833,1.5-2.8,1.98a6.13,6.13,0,0,1-4.206.694c-3.079.8-6.41.319-9.312,1.876-.124.59-.25,1.2-.421,2.03l1.433-.188c-.029,1.158-.029,1.158-1.712,1.51a5.628,5.628,0,0,1,.922.169,10.737,10.737,0,0,1,1.063.656l-1.348.433.224.342,1.1.449c-.8.475-1.441.849-2.149,1.267l.259,1.279c-.057.117-.076.226-.143.276a6.2,6.2,0,0,0-.937.7,4.515,4.515,0,0,1-3.355,1.933c-1.184.055-2.323.8-3.521,1.046a22.8,22.8,0,0,1-3.133.2c-2.18.14-4.363.29-6.552.613l.865.333a2.611,2.611,0,0,1-2.354.944c-1.06-.414-2.116-.024-3.11-.376l-.255-.266c-.516-.254-.984-.744-1.638-.342l.036-.05a3.9,3.9,0,0,0-1.619-.245c-2.551.19-5.116.223-7.677.309-.732.026-1.538-.25-2.08.528-.492-.423-1.072-.214-1.65-.34-.064.473-.114.832-.152,1.113-.542.059-1.063.117-1.583.171l-.021.319.941.29c-.273.233-.7.423-.8.72a3.284,3.284,0,0,0,.069,1.227c.69.178.678.176.571.825-.021.116.124.254.169.39.226.661-.1,1.015-.7,1.151-.442.1-.9.126-1.422.193,0,.364,0,.659,0,.951,0,.566.074,1.1-.675,1.365a1.658,1.658,0,0,0-.763.972,3.4,3.4,0,0,1-.956,1.728c-.19.157-.8.9.09,1.265a.9.9,0,0,1-.121.447c-.7.934-1.415,1.854-2.247,2.939l.78,1.132-.837,1.743c-2.252-.157-1.393,1.873-1.9,2.955l-1.289-.5.031.048c-.264-.143-.528-.361-.656.159a5.2,5.2,0,0,1-.352.823l.028-.048c-.076.071-.228.159-.216.214.133.618.147.991-.628,1.362a2.682,2.682,0,0,1-1.507.478q-2.935-.257-5.882-.407c-1.31-.067-2.625-.05-3.937-.064-.542-.007-1.063.048-1.324.635l.059-.04-.744-.67-.183,1.319c-.625.307-.532-.506-.939-.815l-.409.8-.409-.763-2.328.7-.433,1.063c-.157-.758-.257-1.239-.411-1.978l-.549,1.258c-.345-.131-.808-.735-.918.209-.114-.069-.221-.1-.257-.159a1.848,1.848,0,0,0-2.349-1,3.4,3.4,0,0,1-.78.029l.057.017-.944,1.393c-.107-.445-.171-.716-.276-1.155l-.571.673c-.171-.2-.366-.428-.647-.758-.159.395-.266.661-.359.889-1.022-1.341-2.584-.345-3.809-.927l-.354.782-.53-.844-.823,1.324c.114-.452.193-.585.157-.668-.062-.15-.178-.359-.3-.38a.777.777,0,0,0-.492.171c.112.813-.193.649-.87.654a32.94,32.94,0,0,1-5.207-.328,36.667,36.667,0,0,0-5.014-.112c-.421,0-.842,0-1.26-.038-.021,0,.014-.445-.031-.454a2.688,2.688,0,0,0-.732-.043c-.454.026-.908.882-1.358-.007a1.484,1.484,0,0,1-.288.25,3.075,3.075,0,0,1-1.072.483c-.846.05-1.7-.029-2.553-.055-.69-.024-.69-.024-1.158-.763v.792l-.2.09c-.2-.357-.392-.713-.554-1-1.453.328-109.888.654-111.322.977-.361-.637-.708.052-1.065.01a8.671,8.671,0,0,0-1.431-.157c-.435.021-.929.383-1.274.257-.5-.181-1.146.307-1.541-.433-.162-.3-.709.528-1.094,0-2.078.689-4.272.207-6.388.6-.428.078-.854-.019-.951.473-.176.906-.918.468-.994.252-.314-.913-.727.024-1.139-.116l.328-1.22c-.927.05-1.759.045-2.575.166-.269.04-.49.407-.732.625l.043.606c-.25.6-.689.333-.782.019-.25-.861-.913-.642-1.458-.651a3.457,3.457,0,0,0-1.8.2c-.606.388-.944-.126-1.766-.086.763-.454,1.253-.744,1.74-1.032l-.017-.281a11.641,11.641,0,0,0-1.735-.152,10.554,10.554,0,0,0-1.6.342c-.1.024-.3-.024-.3,0-.4,1.377-1.733.785-2.591,1.167a17.309,17.309,0,0,1-3.065.768l-1.564.882a6.435,6.435,0,0,0-.887.071,8.591,8.591,0,0,1-.968.307c-2.418.214-4.836.461-7.256.537-.437.012-.882.823-1.334.071l-.021.045a2.451,2.451,0,0,0-.147-.492c-.587.057-1.17.152-1.755.24l-3.737-.309c-.135.216-.278.7-.492.735a28.3,28.3,0,0,1-4.962.4l.592-.506c-.39-.782-.782-.043-1.167-.014a5.011,5.011,0,0,0-1.234.078,6.2,6.2,0,0,0-1.2.72c-.447-.88-1.479-.086-1.914-.815l-2.1,1.008c.012-.038-.071.212-.166.492-.174-.2-.335-.38-.621-.7-.214,1.529-1.472,1.2-2.468,1.491-.323-.487-.692-1.041-1.127-1.7,1.676-.944,3.528-1.039,5.58-1.315-.483-.43-.846-.758-1.348-1.208l3.3-.854q-.392-1.566-.872-3.464c-1.117-.157-2.361-.131-3.516-.326-2.839-.48-5.544.119-8.293.459-1.082.131-2.144.418-3.212.651a.878.878,0,0,0-.535.259c-.224.376-.385.749-.8.185a4.529,4.529,0,0,1-.818.8,2.854,2.854,0,0,1-1.189.38c-.825.057-1.655.017-2.651.017l-.228-.654-.261.787c-.2.544-.775-.927-.946.169-.017.1-.72.069-1.1.128-.454.071-.9.171-1.393.266a3.183,3.183,0,0,0-1.464-.949,2.491,2.491,0,0,1,.426-.447,2.228,2.228,0,0,1,.587-.159c-.587-.982-1.448-.571-2.221-.9.561-.135,1.122-.271,1.778-.428-.447-.782-1.322-.442-2.014-.911.7-.311,1.013-.927,1.436-1.45.8.416,1.417-.1,2.354-.426l-1.514-.568c.447-.5,1.072-.9,1.115-1.348.05-.509-.423-1.067-.7-1.671l-1.552.231V139.92l2.125-.83H520.8c.017-.226.048-.592.078-.984l.944.29c-.247-.685-.426-1.174-.635-1.75l1.108-.568c-.518-.4-1.018-.78-1.51-1.155-.183.587-.6.345-1.039-.074l-.1.834c-.566-.445-1.265-.262-1.992-.4-2.009-.373-3.8.737-5.689.606-.758-.052-1.084.361-1.614.516-.464.136-.8.568-1.41.121-.235-.174-.9.283-1.381.392a7.018,7.018,0,0,0-1.4.209c-1.838.875-3.916.421-5.787,1.115a5.071,5.071,0,0,1-1.545-.033c-.713.009-1.426.059-2.244.1l.193.9c-.654.233-1.307.464-1.852.656-.231-.338-.347-.711-.58-.815a3.227,3.227,0,0,0-3.685.763l-.678.43c-.889.87-2.244,1.048-3.046,2.049a1.682,1.682,0,0,0-1.878.965.6.6,0,0,1-.575.124c-.735-.516-1.641.178-2.33-.33-.744-.547-1.455-.116-2.142.029-.948.2-1.845.656-2.8.849-.7.14-1.564-.307-1.926.716-1.5-.39-2.5.777-3.744,1.186-.342.112-.83-.219-1.222-.338-.19-1.072.654-1.343,1.253-1.774a1.544,1.544,0,0,1,2.016.1l-.126-.987c.708.109,1.229-.036,1.274-.908.012-.183.483-.342.744-.514.7.647.7.647,1.607.126l-1.624-.078c.292-.5.613-.982.87-1.5a1.256,1.256,0,0,1,1.184-.863,3.535,3.535,0,0,0,1.25-.53c.138-.069.323-.3.361-.273a.966.966,0,0,0,1.481-.235,7.6,7.6,0,0,0,.452-2.028c-.773.618-1.284-.732-1.831.352-.107-.221-.364-.509-.3-.649a11.992,11.992,0,0,1,.915-1.415l-.823.157v-2.018a1.8,1.8,0,0,0-1.945-.233,4.553,4.553,0,0,1-1.346.34,2.4,2.4,0,0,1-.873-.311l0-.33,2.5-1.094c-.335-.124-.571-.3-.706-.245-.768.328-1.041-.05-1.217-.723a2.25,2.25,0,0,1,.73-2.166,3.959,3.959,0,0,1,1.379-.029c-.028-.4-.062-.827-.088-1.2-1.141-.459-1.224.83-2.047,1a.95.95,0,0,1-.342-1.251,5,5,0,0,1,2.378-2.615,1.686,1.686,0,0,0,.73-.818c-.38.052-.761.1-1.224.166l-.416-.742c.594-1.305,1.125-2.477,1.764-3.885-.9.064-1.7.119-2.663.185.109-.309.188-.528.347-.979a6.178,6.178,0,0,1-1.362-.036,4.955,4.955,0,0,1-1.113-.659c.335-.487.635-.9.906-1.324.376-.592,1.068-.858,1.113-1.84.031-.7,1.037-1.336,1.938-1.631,4.011-1.315,8.017-2.656,12.02-3.989.39-.131.773-.281,1.379-.5l-1.2-.751c.48-.521.925-1,1.381-1.493-.459-.718-.849-1.329-1.239-1.938a5.543,5.543,0,0,1,3.759-.882c-.271-1.393-1.593.01-2.09-1.013l.169-.927a8.507,8.507,0,0,0-.742-.464c-1.424-.708-1.327-2.14-1.567-3.378-.147-.763.5-1.26,1.044-1.543a21.791,21.791,0,0,1,2.86-1.039,6.583,6.583,0,0,0-.854-2.192,1.841,1.841,0,0,1-.062-2.725c.15-.2.271-.428.411-.651-.449-.216-.849-.407-1.248-.6l.088-.333c.323.017.647.033,1.015.055a2.878,2.878,0,0,0-.406-2.912c-.53-.67-.466-.775-.021-1.581l-.666-.128c12.943-1.358,25.814-3.029,38.712-4.786-.109-.416-.174-.659-.245-.925.521-.14,1.02-.276,1.519-.414-1.716.309-3.248-.361-4.812-.832-.043-.5-.088-1-.145-1.671l2.836-.637-.561-1.7c.689-.121,1.391-.278,2.1-.364,4.879-.59,9.752-1.2,14.638-1.733,3.131-.34,6.274-.556,9.415-.811,5.318-.433,10.637-.877,15.96-1.274,4.47-.333,8.944-.6,13.416-.911,2.582-.178,5.161-.4,7.743-.571,2.213-.147,4.429-.288,6.647-.38,5.585-.238,118.171-.459,123.756-.663,6.124-.221,12.249-.456,18.373-.611,3.473-.088,6.952-.026,10.427-.033,1.205,0,2.411-.045,3.614-.026,4.272.074,8.545.083,12.81.281,3.053.14,6.1.511,9.134.844a2.257,2.257,0,0,1,1.988,1.8c1.8.14,3.519.311,5.245.4,5.173.266,10.349.5,15.525.737a7.145,7.145,0,0,0,.78-.045l-.766,1.163c.709-.1,1.215-.176,1.8-.262-.361-.349-.647-.628-.932-.906q2.724.214,5.449.433l-.007.216L804,69.3c-.668.038-1.336.074-2.337.128C802.735,69.952,803.422,70.068,804,69.3Zm-74.621,79.728-.019-.364-3.062.185A4.383,4.383,0,0,0,729.381,149.023Zm89.974-34.356.014-.183-2.235-.181.212,1.006C818.084,115.073,818.719,114.869,819.356,114.667Zm-2.71-44.946c-.395.5-.606.77-.889,1.132C816.624,71.029,816.752,70.651,816.645,69.721Zm-77.248,80.4.024-.347-1.184.171.014.176Z" transform="translate(-470.296 -64.721)" fill="#5f8b25"/>
      <path id="Path_5614" data-name="Path 5614" d="M591.962,100.387l-.059.04c.991-.048,2.04-.364,2.922.611-.887.7-1.838.071-2.765.357C592.022,101,591.991,100.693,591.962,100.387Z" transform="translate(-302.788 -15.657)" fill="#5f8b25"/>
      <path id="Path_5615" data-name="Path 5615" d="M490.055,100.605c.8-.963,1.823-.668,2.848-.839-.133.792-.723.609-1.058.7A9.516,9.516,0,0,1,490.055,100.605Z" transform="translate(-443.078 -16.448)" fill="#5f8b25"/>
      <path id="Path_5616" data-name="Path 5616" d="M478.576,96.8l.678-.43c.438-.262.756-.04.789.364A4.962,4.962,0,0,1,479.7,98.1Z" transform="translate(-458.89 -21.278)" fill="#5f8b25"/>
      <path id="Path_5617" data-name="Path 5617" d="M492.088,99.9H489.6C491.458,99.031,492.015,99.1,492.088,99.9Z" transform="translate(-443.699 -17.128)" fill="#5f8b25"/>
      <path id="Path_5618" data-name="Path 5618" d="M479.405,97.455l-.071-.83c.456-.1.918-.207,1.4-.316C481.077,97.655,479.945,97.1,479.405,97.455Z" transform="translate(-457.845 -21.21)" fill="#5f8b25"/>
      <path id="Path_5619" data-name="Path 5619" d="M520.434,101.657l-.043-.606,1.831-.166C521.789,102.077,521.011,101.578,520.434,101.657Z" transform="translate(-401.292 -14.908)" fill="#5f8b25"/>
      <path id="Path_5620" data-name="Path 5620" d="M479.493,74.228l-.739.152c.121-1.037.121-1.037,1.239-.737l-.5.592Z" transform="translate(-458.644 -52.669)" fill="#5f8b25"/>
      <path id="Path_5621" data-name="Path 5621" d="M510.839,102.291a1.743,1.743,0,0,1-1.612.58c-.1,0-.2-.34-.3-.523.183-.076.409-.262.542-.209.442.171,1.008-.525,1.348.2Z" transform="translate(-417.081 -13.37)" fill="#5f8b25"/>
      <path id="Path_5622" data-name="Path 5622" d="M609.643,90.319l.255.266c-.552-.043-1.108-.062-1.652-.15-.093-.017-.138-.33-.2-.509l-.036.05A1.776,1.776,0,0,0,609.643,90.319Z" transform="translate(-280.608 -30.001)" fill="#5f8b25"/>
      <path id="Path_5623" data-name="Path 5623" d="M489.506,100.685l.946-.63C490.55,100.847,489.927,100.642,489.506,100.685Z" transform="translate(-443.834 -16.05)" fill="#5f8b25"/>
      <path id="Path_5624" data-name="Path 5624" d="M587.481,100.374l-.057-.017c.193.421.385.844.58,1.265l-.447.124Z" transform="translate(-308.957 -15.634)" fill="#5f8b25"/>
      <path id="Path_5625" data-name="Path 5625" d="M501.273,101.7c.4-.1.808-.193,1.488-.357C502.212,102.171,501.715,101.791,501.273,101.7Z" transform="translate(-427.626 -14.272)" fill="#5f8b25"/>
      <path id="Path_5626" data-name="Path 5626" d="M604.646,90.846c.326.074.651.15,1.034.238H604.6Z" transform="translate(-285.301 -28.735)" fill="#5f8b25"/>
      <path id="Path_5627" data-name="Path 5627" d="M598.544,99.031a3.629,3.629,0,0,1-.1.92c-.207.525-.525.552-.844.062l-.028.048,1.008-.982Z" transform="translate(-294.986 -17.461)" fill="#5f8b25"/>
      <path id="Path_5628" data-name="Path 5628" d="M479.408,73.795c.074.226.147.454.242.747-.116.017-.345.052-.834.128l.592-.88Z" transform="translate(-458.559 -52.229)" fill="#5f8b25"/>
      <path id="Path_5629" data-name="Path 5629" d="M630.891,78.13l.7-.552.235.216c-.223.259-.447.521-.768.9-.069-.328-.1-.471-.131-.611Z" transform="translate(-249.084 -47.011)" fill="#5f8b25"/>
      <path id="Path_5630" data-name="Path 5630" d="M479.418,74.533c-.162.147-.321.3-.492.435l-.183-.19c.14-.171.295-.326.447-.487Z" transform="translate(-458.66 -51.539)" fill="#5f8b25"/>
      <path id="Path_5631" data-name="Path 5631" d="M633.616,74.231l.59-.592.2.345-.832.207Z" transform="translate(-245.383 -52.437)" fill="#5f8b25"/>
    </g>
  </g>
</svg>
