<svg xmlns="http://www.w3.org/2000/svg" xmlns:xlink="http://www.w3.org/1999/xlink" width="91" height="84" viewBox="0 0 91 84">
  <defs>
    <clipPath id="clip-delete">
      <rect width="91" height="84"/>
    </clipPath>
  </defs>
  <g id="delete" clip-path="url(#clip-delete)">
    <rect width="91" height="84" fill="#fff"/>
    <rect id="Rectangle_713" data-name="Rectangle 713" width="74" height="74" rx="12" transform="translate(9 5)" fill="#fff353"/>
    <g id="Icon_feather-trash-2" data-name="Icon feather-trash-2" transform="translate(28 22)">
      <path id="Path_1960" data-name="Path 1960" d="M4.5,9H40.271" transform="translate(-4.5 -1.051)" fill="none" stroke="#754d00" stroke-linecap="round" stroke-linejoin="round" stroke-width="3"/>
      <path id="Path_1961" data-name="Path 1961" d="M35.322,10.949V38.771a3.975,3.975,0,0,1-3.975,3.975H11.475A3.975,3.975,0,0,1,7.5,38.771V10.949m5.962,0V6.975A3.975,3.975,0,0,1,17.436,3h7.949A3.975,3.975,0,0,1,29.36,6.975v3.975" transform="translate(-3.525 -3)" fill="none" stroke="#754d00" stroke-linecap="round" stroke-linejoin="round" stroke-width="3"/>
      <path id="Path_1962" data-name="Path 1962" d="M15,16.5V28.424" transform="translate(-1.089 1.386)" fill="none" stroke="#754d00" stroke-linecap="round" stroke-linejoin="round" stroke-width="3"/>
      <path id="Path_1963" data-name="Path 1963" d="M21,16.5V28.424" transform="translate(0.86 1.386)" fill="none" stroke="#754d00" stroke-linecap="round" stroke-linejoin="round" stroke-width="3"/>
    </g>
  </g>
</svg>
