<svg xmlns="http://www.w3.org/2000/svg" width="60" height="57.141" viewBox="0 0 60 57.141">
  <path id="Icon_simple-line" data-name="Icon simple-line" d="M48.412,24.085a1.576,1.576,0,0,1,0,3.153H44.025v2.813h4.388a1.574,1.574,0,1,1,0,3.148H42.447a1.578,1.578,0,0,1-1.568-1.573V19.7a1.58,1.58,0,0,1,1.575-1.575H48.42a1.575,1.575,0,0,1-.007,3.15H44.025v2.813h4.388Zm-9.637,7.54a1.573,1.573,0,0,1-1.08,1.49,1.615,1.615,0,0,1-.5.077,1.546,1.546,0,0,1-1.275-.625l-6.108-8.292v7.35a1.571,1.571,0,1,1-3.142,0V19.7a1.567,1.567,0,0,1,1.075-1.488,1.454,1.454,0,0,1,.485-.083,1.617,1.617,0,0,1,1.238.635l6.155,8.325V19.7a1.575,1.575,0,1,1,3.15,0Zm-14.353,0a1.573,1.573,0,1,1-3.145,0V19.7a1.573,1.573,0,1,1,3.145,0ZM18.258,33.2H12.292a1.584,1.584,0,0,1-1.575-1.573V19.7a1.575,1.575,0,1,1,3.15,0V30.051h4.39a1.574,1.574,0,0,1,0,3.148M60,25.213C60,11.785,46.537.858,30,.858S0,11.785,0,25.213c0,12.028,10.675,22.1,25.087,24.02.978.2,2.307.645,2.645,1.475a6.107,6.107,0,0,1,.095,2.7l-.41,2.55c-.112.752-.6,2.965,2.623,1.612S47.33,47.375,53.63,40.133c4.31-4.722,6.37-9.56,6.37-14.92" transform="translate(0 -0.858)" fill="#4a8507"/>
</svg>
