<svg xmlns="http://www.w3.org/2000/svg" width="60" height="59.986" viewBox="0 0 60 59.986">
  <path id="Icon_awesome-instagram" data-name="Icon awesome-instagram" d="M30,16.851a15.38,15.38,0,1,0,15.38,15.38A15.355,15.355,0,0,0,30,16.851ZM30,42.23a10,10,0,1,1,10-10,10.017,10.017,0,0,1-10,10ZM49.6,16.222a3.587,3.587,0,1,1-3.587-3.587A3.579,3.579,0,0,1,49.6,16.222Zm10.186,3.641c-.228-4.805-1.325-9.062-4.846-12.569s-7.764-4.6-12.569-4.846c-4.953-.281-19.8-.281-24.75,0-4.792.228-9.049,1.325-12.569,4.832S.446,15.044.206,19.85c-.281,4.953-.281,19.8,0,24.75C.433,49.4,1.531,53.661,5.051,57.168s7.764,4.6,12.569,4.846c4.953.281,19.8.281,24.75,0,4.805-.228,9.062-1.325,12.569-4.846s4.6-7.764,4.846-12.569c.281-4.953.281-19.784,0-24.736Zm-6.4,30.05a10.123,10.123,0,0,1-5.7,5.7c-3.949,1.566-13.318,1.2-17.682,1.2s-13.747.348-17.682-1.2a10.123,10.123,0,0,1-5.7-5.7c-1.566-3.949-1.2-13.318-1.2-17.682s-.348-13.747,1.2-17.682a10.123,10.123,0,0,1,5.7-5.7c3.949-1.566,13.318-1.2,17.682-1.2s13.747-.348,17.682,1.2a10.123,10.123,0,0,1,5.7,5.7c1.566,3.949,1.2,13.318,1.2,17.682S54.952,45.978,53.386,49.913Z" transform="translate(0.005 -2.238)" fill="#4a8507"/>
</svg>
