<svg xmlns="http://www.w3.org/2000/svg" viewBox="0 0 70.02 71"><defs><style>.cls-1{fill:#3f2727;}.cls-2,.cls-3{fill:#ff5b3b;}.cls-3{stroke:#ff5b3b;stroke-width:0.5px;}.cls-11,.cls-3{stroke-miterlimit:10;}.cls-4{fill:#ff6e2e;}.cls-5{fill:#ff7c3b;}.cls-6{fill:#ff8f40;}.cls-7{fill:#909e13;}.cls-8{fill:#7b8710;}.cls-9{fill:#e6e2e0;}.cls-10{fill:#4a750e;}.cls-11{fill:none;stroke:#ff37ff;stroke-width:3px;}.cls-12{fill:#e94c3b;}.cls-13{fill:#fdde7b;}.cls-14{fill:#bc9c53;}.cls-15{fill:#754c24;}.cls-16{fill:#c69c6d;}.cls-17{fill:#fff;}</style></defs><title>資產 2</title><g id="圖層_2" data-name="圖層 2"><g id="圖層_1-2" data-name="圖層 1"><path class="cls-1" d="M10.77,65.78a.4.4,0,0,1,.24.74L9.41,67.6a.34.34,0,0,0-.09.5L10.62,70a.52.52,0,0,1-.42.81A1.84,1.84,0,0,1,8.67,70L5,64.67a.67.67,0,0,0-.55-.29H2a.37.37,0,0,0-.35.37v3.59a.3.3,0,0,0,.35.29l2-.39a.65.65,0,0,1,.79.64,1,1,0,0,1-.79,1l-2.58.56A1.1,1.1,0,0,1,0,69.37l0-11.5a1.34,1.34,0,0,1,1.34-1.35H4.44a.29.29,0,0,0,.29-.3v-.28a.81.81,0,0,1,.81-.81.79.79,0,0,1,.8.81v.28a.29.29,0,0,0,.3.29H9.32a1.35,1.35,0,0,1,1.35,1.34l0,5.2a1.34,1.34,0,0,1-1.34,1.33H7.08a.18.18,0,0,0-.15.3L8,66.3a.29.29,0,0,0,.39.05,3.31,3.31,0,0,1,1.86-.58ZM9,58.45a.35.35,0,0,0-.35-.37l-6.76,0a.37.37,0,0,0-.35.37v.83a.35.35,0,0,0,.35.35l6.76,0a.34.34,0,0,0,.35-.35Zm-7.1,2.81a.37.37,0,0,0-.35.37v.83A.35.35,0,0,0,2,62.8l6.76,0a.34.34,0,0,0,.35-.35V61.6a.35.35,0,0,0-.35-.37Z"/><path class="cls-1" d="M22.73,62.77a.7.7,0,0,1-.68.7h-.48a.2.2,0,0,0-.18.28L22.48,66a.5.5,0,0,1-.46.72A1.29,1.29,0,0,1,20.86,66l-.26-.57a.09.09,0,0,0-.17,0l0,4.63a.69.69,0,1,1-1.38,0l0-4.18a.07.07,0,0,0-.13,0l-.64,1.72a1.12,1.12,0,0,1-1.07.72.55.55,0,0,1-.52-.74L18,63.74a.18.18,0,0,0-.18-.26h-.39a.7.7,0,1,1,0-1.4h1.25a.35.35,0,0,0,.37-.35v-.64a.37.37,0,0,0-.37-.37h-.81a.7.7,0,1,1,0-1.4h.81A.37.37,0,0,0,19,59v-.68a.35.35,0,0,0-.37-.35H17.55a.7.7,0,0,1-.7-.7.68.68,0,0,1,.7-.68h1.14a.33.33,0,0,0,.33-.33v-.53a.69.69,0,0,1,1.38,0v.53a.33.33,0,0,0,.33.33h1.12a.68.68,0,0,1,.7.68.7.7,0,0,1-.7.7H20.75a.35.35,0,0,0-.35.35V59a.36.36,0,0,0,.35.35h.81a.7.7,0,0,1,0,1.4h-.81a.37.37,0,0,0-.35.37v.64a.35.35,0,0,0,.35.35H22A.7.7,0,0,1,22.73,62.77Zm9.25,1a.74.74,0,1,1,0,1.47h-.61a.35.35,0,0,0-.37.35L31,70a.74.74,0,1,1-1.47,0l0-4.35a.35.35,0,0,0-.37-.35h-1.8a.46.46,0,0,0-.44.35L26,70a.93.93,0,0,1-.92.74A.6.6,0,0,1,24.5,70l.89-4.35a.3.3,0,0,0-.3-.35h-.81a.74.74,0,1,1,0-1.47h.92a.35.35,0,0,0,.35-.35V59.84a.33.33,0,0,0-.33-.33h-.53a.74.74,0,1,1,0-1.47h.53a.33.33,0,0,0,.33-.33V55.79a.75.75,0,0,1,1.49,0v1.9a.34.34,0,0,0,.35.35h1.77a.35.35,0,0,0,.37-.35v-1.9a.74.74,0,1,1,1.47,0v2a.29.29,0,0,0,.3.28h.35a.74.74,0,0,1,0,1.47h-.35a.29.29,0,0,0-.29.3v3.65a.35.35,0,0,0,.37.35ZM27,63.45a.34.34,0,0,0,.35.35h1.77a.35.35,0,0,0,.37-.35V59.85a.37.37,0,0,0-.37-.35H27.38a.35.35,0,0,0-.35.35Z"/><path class="cls-1" d="M41,66a.4.4,0,0,0-.39.37v1.18a.36.36,0,0,0,.39.35L43,67.61a.65.65,0,0,1,.74.66.84.84,0,0,1-.73.85l-6,.89a.62.62,0,0,1-.74-.62.89.89,0,0,1,.73-.87l1.93-.28a.42.42,0,0,0,.37-.43V66.4a.4.4,0,0,0-.37-.37H37.39a.73.73,0,0,1-.76-.73.75.75,0,0,1,.75-.76h1.47a.38.38,0,0,0,.37-.37V63a.38.38,0,0,0-.37-.37H37.78a1.31,1.31,0,0,1-1.31-1.32V57.16a1.31,1.31,0,0,1,1.3-1.33l4.28,0a1.32,1.32,0,0,1,1.33,1.32v4.11a1.32,1.32,0,0,1-1.32,1.33H41a.39.39,0,0,0-.39.37v1.22a.39.39,0,0,0,.39.37h1.47a.75.75,0,0,1,.76.75.73.73,0,0,1-.75.74ZM39.2,57.52a.4.4,0,0,0-.37-.39h-.7a.39.39,0,0,0-.37.39v.59a.39.39,0,0,0,.37.39h.7a.4.4,0,0,0,.37-.39Zm-1.42,3.4a.39.39,0,0,0,.37.38h.7a.4.4,0,0,0,.37-.39v-.63a.38.38,0,0,0-.37-.37h-.7a.37.37,0,0,0-.37.37Zm3.92-2.43a.4.4,0,0,0,.38-.39v-.59a.4.4,0,0,0-.39-.39H41a.4.4,0,0,0-.39.39v.59a.4.4,0,0,0,.39.39Zm-1.08,2.42a.4.4,0,0,0,.39.38h.7a.4.4,0,0,0,.38-.39v-.63a.39.39,0,0,0-.39-.37H41a.39.39,0,0,0-.39.37Zm8.46-.34a.47.47,0,0,0,.39.18h1.09a1.06,1.06,0,0,1,1,1.29l-.33,1.46a.9.9,0,0,1-.9.7.61.61,0,0,1-.59-.75l.18-.85a.31.31,0,0,0-.3-.37l-4.85,0a.71.71,0,0,1-.72-.73.72.72,0,0,1,.72-.74h2.27a.21.21,0,0,0,.18-.31l-1-1.49a.46.46,0,0,1,.37-.72h.2a1.33,1.33,0,0,1,1.09.6c0,.07.18.05.22,0l.77-1.39a.24.24,0,0,0-.22-.33H45a.71.71,0,0,1,0-1.42l5.18,0a.77.77,0,0,1,.69,1.14l-1.81,3.32A.43.43,0,0,0,49.07,60.56Zm-10.7,7.77"/><path class="cls-1" d="M65.83,55.69a.2.2,0,0,0,.2.2H69.3a.73.73,0,0,1,0,1.46H66a.2.2,0,0,0-.2.2v0a.74.74,0,1,1-1.47,0v0a.2.2,0,0,0-.2-.2H60.48a.21.21,0,0,0-.2.2v0a.74.74,0,1,1-1.47,0v0a.21.21,0,0,0-.2-.2H55.33a.73.73,0,1,1,0-1.46h3.26a.2.2,0,0,0,.2-.2v0a.74.74,0,1,1,1.47,0v0a.2.2,0,0,0,.2.2h3.68a.2.2,0,0,0,.2-.2v0a.74.74,0,1,1,1.47,0Z"/><path class="cls-1" d="M62.38,63.85a.7.7,0,0,1,.7.72.2.2,0,0,0,.2.18l5.58,0a.76.76,0,0,1,.76.75.77.77,0,0,1-.75.76H65.19a.14.14,0,0,0-.09.24l2.74,2.63a.44.44,0,0,1-.29.76,2.81,2.81,0,0,1-1.9-.75l-2.29-2.2a.15.15,0,0,0-.26.11v3.22a.74.74,0,0,1-1.47,0V67.21a.15.15,0,0,0-.26-.11l-2.13,2.05a2.73,2.73,0,0,1-1.88.76.46.46,0,0,1-.32-.75l2.75-2.64a.14.14,0,0,0-.11-.24H55.83a.77.77,0,0,1-.76-.75.76.76,0,0,1,.75-.76l5.58,0a.2.2,0,0,0,.2-.18.7.7,0,0,1,.7-.72Z"/><path class="cls-1" d="M57.25,61a.73.73,0,0,1-.76-.72.82.82,0,0,1,.75-.81l9.84-.53a.72.72,0,0,1,.76.72.8.8,0,0,1-.75.79Z"/><path class="cls-2" d="M58.49,63.62a1.14,1.14,0,0,1-1.07-.73l-.11-.29a.55.55,0,0,1,.51-.76,1.16,1.16,0,0,1,1.09.75l.11.28A.57.57,0,0,1,58.49,63.62Z"/><path class="cls-2" d="M62.45,63.17a1.13,1.13,0,0,1-1.07-.75l-.13-.35a.55.55,0,0,1,.51-.74,1.16,1.16,0,0,1,1.09.75l.11.33A.55.55,0,0,1,62.45,63.17Z"/><path class="cls-1" d="M66,63.6a.49.49,0,0,1-.43-.73l.55-1a1.46,1.46,0,0,1,1.27-.74.5.5,0,0,1,.44.73l-.57,1A1.44,1.44,0,0,1,66,63.6Z"/><path class="cls-1" d="M46.63,69.1a.28.28,0,0,0,.24-.26l0-5.38a.74.74,0,0,1,1.47,0l0,5.8a1.27,1.27,0,0,1-1.29,1.28h-.55a.72.72,0,0,1,0-1.44Z"/><circle class="cls-3" cx="5.57" cy="55.57" r="0.92" transform="translate(-0.2 0.02) rotate(-0.21)"/><path class="cls-4" d="M26.77,17.57a10.21,10.21,0,0,1,1.59,3.51v0A8.39,8.39,0,0,1,28.58,23a6.88,6.88,0,0,1-.2,1.71,5.22,5.22,0,0,1-1.32,2.43,4.63,4.63,0,0,1-.65.55c-2.75,1.92-7.06.52-9.61-3.14s-2.4-8.18.36-10.11a4.63,4.63,0,0,1,.91-.49,5.3,5.3,0,0,1,2.64-.33A7,7,0,0,1,22.3,14a8.39,8.39,0,0,1,1.65.83l0,0A10.21,10.21,0,0,1,26.77,17.57Z"/><path class="cls-5" d="M27.89,16.87a12.79,12.79,0,0,1,2.18,5.06,7.54,7.54,0,0,1,.11,1.73.28.28,0,0,1,0,0,4.77,4.77,0,0,1-.34,1.52,3,3,0,0,1-2.79,1.9c-2.19.06-5-1.73-7.11-4.7S17.12,16,18.06,13.93a3,3,0,0,1,1-1.23,2.91,2.91,0,0,1,1.08-.46,3.3,3.3,0,0,1,.57-.07,4.41,4.41,0,0,1,1,.08l.49.12h0a7.45,7.45,0,0,1,1.46.61A12.66,12.66,0,0,1,27.89,16.87Z"/><ellipse class="cls-4" cx="30.52" cy="14.85" rx="6.08" ry="8.08" transform="translate(-3 20.16) rotate(-34.94)"/><ellipse class="cls-5" cx="28.47" cy="16.37" rx="4.85" ry="8.47" transform="translate(-4.25 19.26) rotate(-34.94)"/><path class="cls-6" d="M28.92,16.15a15.83,15.83,0,0,1,2.77,6.15,4.64,4.64,0,0,1,0,1.55A1.72,1.72,0,0,1,31.07,25h0a1.66,1.66,0,0,1-1.22.23,4.44,4.44,0,0,1-1.46-.53,15.69,15.69,0,0,1-4.88-4.75,15.47,15.47,0,0,1-2.8-6.34,5.15,5.15,0,0,1,0-.84,3.15,3.15,0,0,1,.07-.6,1.94,1.94,0,0,1,.29-.71,1.38,1.38,0,0,1,.34-.35h0a1.34,1.34,0,0,1,.42-.19,1.88,1.88,0,0,1,.74,0,3.15,3.15,0,0,1,.64.15,5.27,5.27,0,0,1,.73.31A15.41,15.41,0,0,1,28.92,16.15Z"/><path class="cls-7" d="M23.21,10.17c.09.12,0,.34-.21.61a5,5,0,0,1-.91.86l-.23.17-.31.2a4.78,4.78,0,0,1-1.07.52c-.32.1-.55.1-.63,0s0-.28.12-.5a2.87,2.87,0,0,1,.35-.42h0a6.14,6.14,0,0,1,.85-.71h0a6.21,6.21,0,0,1,.88-.52,3.35,3.35,0,0,1,.51-.2C22.91,10,23.13,10.05,23.21,10.17Z"/><rect class="cls-7" x="19.43" y="8.37" width="2.01" height="3.04" transform="translate(-1.98 13.49) rotate(-34.94)"/><path class="cls-8" d="M40.48,12.4c-1.09.94-2.48,2.72-3.28,3.27-.25.17-.44.22-.55.1a.63.63,0,0,1-.08-.12A1.93,1.93,0,0,1,36.4,15a6.16,6.16,0,0,1,2.21-5.12c1.33-1.23,3-1.23,3.57-.76l.06.06C42.7,9.74,41.91,11.17,40.48,12.4Z"/><path class="cls-8" d="M47.27,9.49c-.46.53.33,2,1.75,3.19s3.37,3.9,3.83,3.37.69-3.41-2-5.86C49.51,8.91,47.73,9,47.27,9.49Z"/><path class="cls-7" d="M52.7,17.46a8.12,8.12,0,0,1-7.49,8.09l-.63,0h-.48a8.12,8.12,0,0,1-7.54-9.36c0-.15.05-.3.08-.44a8.12,8.12,0,0,1,15.89.09q.08.4.12.82T52.7,17.46Z"/><ellipse class="cls-9" cx="44.59" cy="18.56" rx="0.62" ry="7"/><path class="cls-9" d="M42.94,16.7a7.08,7.08,0,0,1-1.5-2.3c.1-.12.93.7,1.86,1.85a7.07,7.07,0,0,1,1.5,2.3C44.7,18.67,43.86,17.84,42.94,16.7Z"/><path class="cls-9" d="M42.72,20.87a7.07,7.07,0,0,1-1.5-2.3c.1-.12.93.7,1.86,1.85a7.07,7.07,0,0,1,1.5,2.3C44.48,22.85,43.64,22,42.72,20.87Z"/><path class="cls-9" d="M46.33,16.7a7.08,7.08,0,0,0,1.5-2.3c-.1-.12-.93.7-1.86,1.85a7.07,7.07,0,0,0-1.5,2.3C44.57,18.67,45.4,17.84,46.33,16.7Z"/><path class="cls-9" d="M46.55,20.87a7.08,7.08,0,0,0,1.5-2.3c-.1-.12-.93.7-1.86,1.85a7.08,7.08,0,0,0-1.5,2.3C44.79,22.85,45.62,22,46.55,20.87Z"/><path class="cls-10" d="M44.11,25.56c-.13,0-11.17.95-9.75-8.53.27-1.84,1-2.07,2-1.44l.25.18a6.75,6.75,0,0,1,.55.47C39.78,18.65,43.26,24.93,44.11,25.56Z"/><path class="cls-10" d="M45.2,25.56S56.38,26.56,55,17C54,10.39,46.5,24.6,45.2,25.56Z"/><path class="cls-10" d="M29.94,20.65l-.54-.35h0l0,.05-.1.27v0l0,.13h0l0,.13h0l-.08.26h0l0,.16h0l0,.11v0l0,.15h0l0,.1v.05h0l0,.08h0l0,.08h0l0,.17v.09c0,.07,0,.14,0,.21h0a5,5,0,0,0,0,1.1l-.35-1.17-.05-.17v0l0-.08-.11-.38h0l-.05-.17h0l0-.08-.07-.22h0l0-.08L28,21v0L28,20.77h0v0l0-.07-.06-.21,0-.06h0l-.06-.19v0L27.76,20l0-.06-.24-.79h0l-.62.23-.11,0-.11,0-.63.17h0l.26.78,0,.06.06.19v0l.06.19h0l0,.05.07.21,0,.07v0h0l.06.18v0l.05.16,0,.08h0l.07.21,0,.08h0l.06.17h0l.12.37,0,.08v0l.06.17.39,1.15A4.94,4.94,0,0,0,26.8,23h0l-.15-.16,0,0,0,0-.12-.12h0l-.06-.06h0l-.06-.05h0l0,0,0,0-.08-.07h0l-.12-.1h0L26,22.3h0l-.13-.1h0L25.65,22h0l-.11-.08h0l-.11-.08h0l-.23-.16,0,0h0l-.24.6-.22.56a4.77,4.77,0,0,1,.9.54l.07.06.16.13.28.26.07.07.14.15a6.37,6.37,0,0,1,1.44,3.17l1.14-.37.47-.15,1.15-.37a6.37,6.37,0,0,1-.66-3.42c0-.07,0-.13,0-.2l0-.1c0-.12,0-.25.08-.37s0-.13.05-.2l0-.09a4.81,4.81,0,0,1,.42-1Z"/><path class="cls-7" d="M33.35,17.62a.2.2,0,0,0-.19-.2.19.19,0,0,0,.07-.18.19.19,0,0,0-.11-.15.19.19,0,0,0-.11,0,.19.19,0,0,0,.06-.14.16.16,0,0,0,0,0,.2.2,0,0,0-.24-.14.19.19,0,0,0-.23-.3.19.19,0,0,0-.27-.26A.19.19,0,0,0,32,16a.19.19,0,0,0-.33-.18.19.19,0,0,0-.35-.14.19.19,0,0,0-.1-.17.2.2,0,0,0-.26.07.19.19,0,0,0-.37,0,.19.19,0,0,0-.14-.13.19.19,0,0,0-.23.14.19.19,0,0,0-.37.06.19.19,0,0,0-.17-.09.2.2,0,0,0-.19.2.19.19,0,0,0-.18-.07.2.2,0,0,0-.16.22.19.19,0,0,0-.32.17h0a.2.2,0,0,0-.16-.22.19.19,0,0,0-.09-.36.2.2,0,0,0,.07-.18.19.19,0,0,0-.1-.15h0a.19.19,0,0,0-.1,0,.2.2,0,0,0,.06-.14.17.17,0,0,0,0,0,.18.18,0,0,0,0-.08.2.2,0,0,0-.19-.06.19.19,0,0,0-.23-.3.19.19,0,0,0,0-.19.2.2,0,0,0-.26-.07.19.19,0,0,0-.3-.23.19.19,0,0,0-.33-.18.19.19,0,0,0-.35-.14.19.19,0,0,0-.36-.09.19.19,0,0,0-.37,0,.19.19,0,0,0-.37,0,.19.19,0,0,0-.37.06.2.2,0,0,0-.17-.09h0a.2.2,0,0,0-.17.2.19.19,0,0,0-.34.16.19.19,0,0,0-.19,0,.2.2,0,0,0-.13.22.2.2,0,0,0-.29.23h0a.19.19,0,0,0-.16,0,.19.19,0,0,0-.07.33v0a.19.19,0,0,0-.18,0,.2.2,0,0,0-.13.24l-.07,0a.2.2,0,0,0,0,.28.19.19,0,0,0-.18.08.2.2,0,0,0,0,.27.19.19,0,0,0-.16.1.2.2,0,0,0,.08.26A.19.19,0,0,0,23,16a.2.2,0,0,0,.11.25l0,0a.2.2,0,0,0-.09.13.22.22,0,0,0,0,0v0a.19.19,0,0,0,.14.16h0a.19.19,0,0,0-.11.16.2.2,0,0,0,.17.21.19.19,0,0,0-.09.17.2.2,0,0,0,.2.19.2.2,0,0,0-.06.18.2.2,0,0,0,.08.13.2.2,0,0,0-.24.11.19.19,0,0,0-.14-.13.2.2,0,0,0-.24.14.2.2,0,0,0-.16-.11.2.2,0,0,0-.21.17.19.19,0,0,0-.17-.09.2.2,0,0,0-.19.2.19.19,0,0,0-.18-.07.2.2,0,0,0-.16.22.19.19,0,0,0-.32.18.2.2,0,0,0-.29.23h0a.19.19,0,0,0-.16,0,.19.19,0,0,0-.07.33v0a.19.19,0,0,0-.18,0,.2.2,0,0,0-.13.24l-.07,0a.2.2,0,0,0,0,.28.19.19,0,0,0-.18.08.2.2,0,0,0,0,.27.19.19,0,0,0-.09.36.19.19,0,0,0-.15.12.2.2,0,0,0,.11.25l0,0a.2.2,0,0,0-.09.13.28.28,0,0,0,0,0,.12.12,0,0,0,0,0,.19.19,0,0,0,.14.16.2.2,0,0,0-.1.12v0a.19.19,0,0,0,.12.2h.05l0,0a.2.2,0,0,0,.14.33.19.19,0,0,0-.06.18.2.2,0,0,0,.22.16.2.2,0,0,0,.2.32.2.2,0,0,0,0,.19.2.2,0,0,0,.25.1.2.2,0,0,0,.28.25.2.2,0,0,0,.31.21.2.2,0,0,0,.34.17.19.19,0,0,0,.09.17.19.19,0,0,0,.26,0,.2.2,0,0,0,.37.07.2.2,0,0,0,.37,0,.2.2,0,0,0,.15.12.2.2,0,0,0,.23-.15.19.19,0,0,0,.16.1.2.2,0,0,0,.21-.18.2.2,0,0,0,.35-.13.2.2,0,0,0,.18.05.2.2,0,0,0,.15-.23.19.19,0,0,0,.19,0,.2.2,0,0,0,.12-.24.19.19,0,0,0,.19,0,.2.2,0,0,0,.09-.26.19.19,0,0,0,.19,0,.2.2,0,0,0,.08-.13.19.19,0,0,0,0-.14h0a.19.19,0,0,0,.19,0,.19.19,0,0,0,0-.22l0,0a.19.19,0,0,0,.16-.34h0l.08,0a.19.19,0,0,0,.08-.07.2.2,0,0,0-.06-.27.19.19,0,0,0,.15-.12.18.18,0,0,0,0-.1h0a.19.19,0,0,0,.24-.09.2.2,0,0,0,.13.14h0a.2.2,0,0,0,.21-.12h0a.19.19,0,0,0,.14.12.2.2,0,0,0,.23-.15.19.19,0,0,0,.16.1.19.19,0,0,0,.2-.18.2.2,0,0,0,.18.08h0a.2.2,0,0,0,.15-.2.19.19,0,0,0,.18.06.2.2,0,0,0,.15-.23.19.19,0,0,0,.19,0l0,0a.19.19,0,0,0,.09-.23l.09,0a.19.19,0,0,0,.16,0,.19.19,0,0,0,.14.28.2.2,0,0,0,.14,0,.19.19,0,0,0,.31.21.19.19,0,0,0,.06.18.2.2,0,0,0,.27,0,.19.19,0,0,0,.08.17.2.2,0,0,0,.27-.05.19.19,0,0,0,.11.16h0a.2.2,0,0,0,.25-.09.19.19,0,0,0,.13.14.2.2,0,0,0,.25-.12.19.19,0,0,0,.37,0,.2.2,0,0,0,.37-.08.19.19,0,0,0,.17.08.2.2,0,0,0,.18-.21.2.2,0,0,0,.18.06.2.2,0,0,0,.15-.23.19.19,0,0,0,.19,0,.2.2,0,0,0,.12-.25.2.2,0,0,0,.28-.26.19.19,0,0,0,.19,0,.2.2,0,0,0,0-.27.19.19,0,0,0,.2-.32.19.19,0,0,0,.15-.34.19.19,0,0,0,.17-.09.2.2,0,0,0-.06-.27.19.19,0,0,0,.06-.37.19.19,0,0,0,0-.38.19.19,0,0,0,0-.37A.19.19,0,0,0,33.35,17.62Zm-9.85,0,0,0a.19.19,0,0,0-.07-.06A.2.2,0,0,0,23.5,17.64Z"/><path class="cls-10" d="M44.57,2.3A2,2,0,0,1,42,0,2.16,2.16,0,0,1,44.63,2.2Z"/><path class="cls-7" d="M44.48,2.78h0A.6.6,0,0,1,45,2h0a.6.6,0,0,1,.57.78h0A.6.6,0,0,1,44.48,2.78Z"/><path class="cls-11" d="M45,3.08"/><path class="cls-12" d="M40.92,5.68c0,1.93,1.53,3.85,3,3.85A1.56,1.56,0,0,0,45,9.12,1.56,1.56,0,0,0,46,9.53c1.44,0,3-1.92,3-3.85S48,2.4,46.58,2.4A2.23,2.23,0,0,0,45,3.15a2.23,2.23,0,0,0-1.61-.75C41.91,2.4,40.92,3.75,40.92,5.68Z"/><path class="cls-13" d="M40.14,24c1.15-2.59,1-5.43-.93-6.5l-.08,0h0l-.08,0c-2-1.07-4.42.39-6,2.77-2,3-.91,5.19,1.07,6.26l.08,0h0l.08,0C36.29,27.55,38.67,27.26,40.14,24Zm-5.69-3.42a.21.21,0,1,1,.27-.09A.2.2,0,0,1,34.45,20.53Zm2.07-1.61a.21.21,0,1,1,.27-.09A.2.2,0,0,1,36.52,18.93ZM35,22.85a.21.21,0,1,1,.27-.09A.2.2,0,0,1,35,22.85ZM34,25.33a.21.21,0,1,1,.27-.09A.2.2,0,0,1,34,25.33Zm4-6.95a.21.21,0,1,1,.27-.09A.2.2,0,0,1,38,18.38Zm.82.21a.19.19,0,1,1,.07.27A.2.2,0,0,1,38.85,18.59ZM35.27,26a.21.21,0,1,1,.27-.09A.2.2,0,0,1,35.27,26Zm1.58-2.12a.21.21,0,1,1,.27-.09A.2.2,0,0,1,36.85,23.88Zm2.44-3.45a.21.21,0,1,1,.27-.09A.2.2,0,0,1,39.28,20.42ZM39.07,23a.21.21,0,1,1,.27-.09A.2.2,0,0,1,39.07,23Z"/><ellipse class="cls-14" cx="39.01" cy="18.68" rx="0.21" ry="0.19" transform="translate(4.01 44.09) rotate(-61.56)"/><ellipse class="cls-14" cx="39.38" cy="20.24" rx="0.21" ry="0.19" transform="translate(2.82 45.22) rotate(-61.55)"/><ellipse class="cls-14" cx="39.17" cy="22.85" rx="0.21" ry="0.19" transform="translate(0.42 46.41) rotate(-61.56)"/><ellipse class="cls-14" cx="36.95" cy="23.69" rx="0.21" ry="0.19" transform="translate(-1.49 44.89) rotate(-61.55)"/><ellipse class="cls-14" cx="35.37" cy="25.81" rx="0.21" ry="0.19" transform="translate(-4.17 44.61) rotate(-61.54)"/><ellipse class="cls-14" cx="38.13" cy="18.2" rx="0.21" ry="0.19" transform="translate(3.98 43.08) rotate(-61.59)"/><ellipse class="cls-14" cx="36.62" cy="18.74" rx="0.21" ry="0.19" transform="translate(2.7 42.01) rotate(-61.56)"/><ellipse class="cls-14" cx="34.55" cy="20.35" rx="0.21" ry="0.19" transform="translate(0.22 41.07) rotate(-61.62)"/><ellipse class="cls-14" cx="35.06" cy="22.67" rx="0.21" ry="0.19" transform="translate(-1.58 42.69) rotate(-61.55)"/><ellipse class="cls-14" cx="34.15" cy="25.15" rx="0.21" ry="0.19" transform="translate(-4.24 43.17) rotate(-61.51)"/><rect class="cls-15" x="16.12" y="23.44" width="37.14" height="26.57"/><path class="cls-16" d="M31.75,35.67a.57.57,0,0,0,.33-.1l6-4.48a.29.29,0,0,0,.13-.23V29.1c0-.18-.21-.33-.46-.33h-6c-.26,0-.46.15-.46.33v6.24a.35.35,0,0,0,.29.31Z"/><path class="cls-16" d="M45.25,32.35l-5.76,4.29a.29.29,0,0,0-.13.23v7.78c0,.18.21.33.46.33h5.76c.26,0,.46-.15.46-.33V32.59a.35.35,0,0,0-.29-.31A.6.6,0,0,0,45.25,32.35Z"/><path class="cls-16" d="M23.92,41.5a.57.57,0,0,0,.33-.1L30,37.11a.29.29,0,0,0,.13-.23V29.1c0-.18-.21-.33-.46-.33H23.92c-.26,0-.46.15-.46.33V41.17a.35.35,0,0,0,.29.31Z"/><path class="cls-16" d="M16.5,45h5.35c.26,0,.46-.15.46-.33V29.1c0-.18-.21-.33-.46-.33H16.5c-.26,0-.46.15-.46.33V44.65C16,44.84,16.24,45,16.5,45Z"/><path class="cls-16" d="M23.46,44.65c0,.18.21.33.46.33H26.5a.57.57,0,0,0,.33-.1L45.92,30.68a.29.29,0,0,0,.13-.23V29.1c0-.18-.21-.33-.46-.33H43a.57.57,0,0,0-.33.1L23.59,43.08a.29.29,0,0,0-.13.23Z"/><path class="cls-16" d="M53,45.81H16.5c-.26,0-.46.15-.46.33V50c0,.18.21.33.46.33H53c.26,0,.46-.15.46-.33V46.14C53.47,46,53.27,45.81,53,45.81ZM19.26,48.06c0-.44.49-.79,1.1-.79s1.1.36,1.1.79-.49.79-1.1.79S19.26,48.49,19.26,48.06Zm28.79,0c0-.44.49-.79,1.1-.79s1.1.36,1.1.79-.49.79-1.1.79S48,48.49,48,48.06Z"/><path class="cls-16" d="M39.83,29.66a.57.57,0,0,0,.33-.1l.3-.22a.27.27,0,0,0,.09-.36.49.49,0,0,0-.43-.2h-.3c-.26,0-.46.15-.46.33v.22a.35.35,0,0,0,.29.31Z"/><path class="cls-16" d="M37.42,38.18l-6,4.48a.29.29,0,0,0-.13.23v1.76c0,.18.21.33.46.33h6c.26,0,.46-.15.46-.33V38.41a.35.35,0,0,0-.29-.31A.6.6,0,0,0,37.42,38.18Z"/><path class="cls-16" d="M53,23.44H16.5c-.26,0-.46.15-.46.33v3.84c0,.18.21.33.46.33H53c.26,0,.46-.15.46-.33V23.78C53.47,23.59,53.27,23.44,53,23.44ZM19.26,25.7c0-.44.49-.79,1.1-.79s1.1.35,1.1.79-.49.79-1.1.79S19.26,26.13,19.26,25.7ZM48,25.7c0-.44.49-.79,1.1-.79s1.1.35,1.1.79-.49.79-1.1.79S48,26.13,48,25.7Z"/><path class="cls-16" d="M53,28.77H47.66c-.26,0-.46.15-.46.33V44.65c0,.18.21.33.46.33H53c.26,0,.46-.15.46-.33V29.1C53.47,28.92,53.27,28.77,53,28.77Z"/><path class="cls-16" d="M29.34,44.2l-.3.22a.27.27,0,0,0-.09.36.49.49,0,0,0,.43.2h.3c.26,0,.46-.15.46-.33v-.22a.35.35,0,0,0-.29-.31A.6.6,0,0,0,29.34,44.2Z"/><path class="cls-17" d="M53.49,30.1v0l-.41,1.19c-1.25,3.69-2.67,7.87-5,8.21-1.18.17-2.39-.65-3.72-2.5-.48-.68-1-.83-1.14-.72s-.19.39,0,.85c.72,1.44.87,2.28.49,2.66s-1.15.08-1.68-.2c-1.18-.6-2.78-1.5-3.46-1.88a.45.45,0,0,0-.6.07c-.12.19,0,.48.37.73.58.42,2.32,1.45,3.07,1.89l.2.12a.71.71,0,0,1,.34.93.67.67,0,0,1-.91.25c-.55-.25-2.49-1.34-3.32-1.81l-.15-.09a.44.44,0,0,0-.6.07c-.12.19,0,.48.37.73.62.46,3.13,1.87,3.86,2.26a.75.75,0,0,1,.44,1,.62.62,0,0,1-.89.2c-.62-.31-2.82-1.52-3.47-1.89a.44.44,0,0,0-.6.07c-.12.19,0,.48.37.73.63.46,3.26,1.94,3.87,2.27a.74.74,0,0,1,.39,1,.61.61,0,0,1-.86.2c-.62-.31-2.84-1.54-3.47-1.89a.44.44,0,0,0-.6.07c-.12.19,0,.48.37.73a22.77,22.77,0,0,0,4,2.23,14.36,14.36,0,0,0,13-.73A36.42,36.42,0,0,0,53.49,30.1Z"/><path class="cls-17" d="M16.08,30.1v0l.41,1.19c1.25,3.69,2.67,7.87,5,8.21,1.18.17,2.39-.65,3.72-2.5.48-.68,1-.83,1.14-.72s.19.39,0,.85c-.72,1.44-.87,2.28-.49,2.66s1.15.08,1.68-.2c1.18-.6,2.78-1.5,3.46-1.88a.45.45,0,0,1,.6.07c.12.19,0,.48-.37.73-.58.42-2.32,1.45-3.07,1.89l-.2.12a.71.71,0,0,0-.34.93.67.67,0,0,0,.91.25c.55-.25,2.49-1.34,3.32-1.81L32,39.8a.44.44,0,0,1,.6.07c.12.19,0,.48-.37.73-.62.46-3.13,1.87-3.86,2.26a.75.75,0,0,0-.44,1,.62.62,0,0,0,.89.2c.62-.31,2.82-1.52,3.47-1.89a.44.44,0,0,1,.6.07c.12.19,0,.48-.37.73-.63.46-3.26,1.94-3.87,2.27a.74.74,0,0,0-.39,1,.61.61,0,0,0,.86.2c.62-.31,2.84-1.54,3.47-1.89a.44.44,0,0,1,.6.07c.12.19,0,.48-.37.73a22.77,22.77,0,0,1-4,2.23,14.36,14.36,0,0,1-13-.73A36.42,36.42,0,0,1,16.08,30.1Z"/></g></g></svg>