<?xml version="1.0" encoding="utf-8"?>
<!-- Generator: Adobe Illustrator 21.1.0, SVG Export Plug-In . SVG Version: 6.00 Build 0)  -->
<svg version="1.1" id="圖層_1" xmlns="http://www.w3.org/2000/svg" xmlns:xlink="http://www.w3.org/1999/xlink" x="0px" y="0px"
	 viewBox="0 0 165 170" style="enable-background:new 0 0 165 170;" xml:space="preserve">
<style type="text/css">
	.st0{fill:none;}
	.st1{fill:#FFE3A1;}
	.st2{fill:#8CC63F;stroke:#8CC63F;stroke-miterlimit:10;}
	.st3{fill:#FFFFFF;}
	.st4{stroke:#000000;stroke-width:0.5;stroke-miterlimit:10;}
	.st5{enable-background:new    ;}
	.st6{fill:#8CC63F;}
	.st7{fill:none;stroke:#8CC63F;stroke-miterlimit:10;}
</style>
<rect class="st0" width="165" height="170"/>
<g id="Group_1044" transform="translate(13.175 8.676)">
	<path id="Path_5444" class="st1" d="M132.6,64.5c1.5,10.6,1.2,21.4-0.9,31.8c-2.6,13.2-7.7,24.2-18.8,31.9
		c-11.1,7.7-24.9,10.4-38.1,10.4c-1.1,0-2.1,0-3.2,0c-14.6-0.4-28.8-3.8-40.5-13.5c-3.4-2.8-6.5-6.1-9.1-9.7
		c-17.3-24.1-12-62.4,8.3-83c21.4-21.7,54.4-19.4,78.8-4.9c1,0.6,2.1,1.3,3.1,1.9C124.3,37.3,130.4,50.4,132.6,64.5z"/>
	<path id="Path_5445" class="st2" d="M94.5,100.8c-3.6,2.1-7.5,3.5-11.6,4c-6.3,0.7-12.7-0.3-18.4-3.1c-4.8-2.3-9-5.7-12.2-9.9
		c-5.1-6.2-7.6-14.2-7.1-22.2c0-0.2,0-0.3,0-0.5c1-10.6,6.6-20,16.9-23.7c1.4-0.4,2.6-1.5,3.1-3c0.8-2.2,1.3-4.5,1.4-6.9
		c0-0.2,0-0.4-0.2-0.6c-0.3-0.2-0.5-0.3-0.9-0.3c-2.3-0.4-4.6-0.2-6.9-0.6c-2.9-0.6-5.6-2.2-7.5-4.4c-0.2-0.2-0.3-0.4-0.3-0.5
		c0.1-0.4,0.9-0.5,1.6-0.6c5.5,0,11.1,1.7,14.6,4.5c0.2,0.2,0.4,0.2,0.6,0.3c0.2,0,0.4-0.1,0.6-0.2c4.3-2.2,10.8-2.8,16.3-1.5
		c0.5,0.1,1.1,0.3,1.1,0.7c0,0.2-0.2,0.3-0.4,0.4c-2.8,2-6.2,3-9.7,2.8c-2-0.1-3.9-0.7-5.8-0.7c-0.3,0-0.7,0-1,0.1
		c-0.3,0.2-0.5,0.4-0.5,0.8c-0.5,2.1-1.2,4.5-0.7,6.7c0.6,2.6,3.2,2.9,5.3,3.5c3,1,6,2.2,8.7,3.8c9.5,5,19.5,13,23.7,23.1
		C109.3,82.6,106,94.1,94.5,100.8z"/>
	<ellipse id="Ellipse_127" class="st3" cx="60.1" cy="63.7" rx="6.2" ry="5.7"/>
	<ellipse id="Ellipse_128" class="st4" cx="61.9" cy="64.5" rx="4.3" ry="4"/>
	<ellipse id="Ellipse_129" class="st3" cx="80" cy="64.1" rx="6.2" ry="5.7"/>
	<ellipse id="Ellipse_130" class="st4" cx="81.7" cy="65" rx="4.3" ry="4"/>
	<g class="st5">
		<path class="st6" d="M59.5,125.8c-0.4,0-0.7-0.1-1-0.4s-0.4-0.6-0.4-1v-13.2c0-0.1-0.1-0.2-0.2-0.2h-3.4c-0.4,0-0.7-0.1-1-0.4
			s-0.4-0.6-0.4-1v-0.2c0-0.4,0.1-0.7,0.4-1s0.6-0.4,1-0.4h10.8c0.4,0,0.7,0.1,1,0.4s0.4,0.6,0.4,1v0.2c0,0.4-0.1,0.7-0.4,1
			s-0.6,0.4-1,0.4h-3.5c-0.1,0-0.2,0.1-0.2,0.2v13.2c0,0.4-0.1,0.7-0.4,1s-0.6,0.4-1,0.4H59.5z"/>
		<path class="st6" d="M81.7,123.6c-1.5,1.7-3.4,2.5-5.8,2.5s-4.3-0.8-5.8-2.5s-2.2-3.9-2.2-6.8s0.7-5.1,2.2-6.7s3.4-2.4,5.8-2.4
			s4.3,0.8,5.8,2.4s2.2,3.9,2.2,6.7S83.1,121.9,81.7,123.6z M72.8,121.3c0.8,1.1,1.8,1.7,3.2,1.7s2.4-0.6,3.2-1.7s1.2-2.6,1.2-4.5
			s-0.4-3.4-1.2-4.5s-1.8-1.6-3.2-1.6s-2.4,0.5-3.2,1.6s-1.2,2.6-1.2,4.5S72,120.2,72.8,121.3z"/>
		<path class="st6" d="M88.7,125.8c-0.4,0-0.7-0.1-1-0.4s-0.4-0.6-0.4-1v-15c0-0.4,0.1-0.7,0.4-1s0.6-0.4,1-0.4h4.5
			c4.6,0,7,1.9,7,5.6c0,1.3-0.3,2.4-0.9,3.3s-1.4,1.6-2.4,2s-2.2,0.6-3.5,0.6h-2.2c-0.1,0-0.2,0.1-0.2,0.2v4.8c0,0.4-0.1,0.7-0.4,1
			s-0.6,0.4-1,0.4H88.7z M90.9,116.5c0,0.1,0.1,0.2,0.2,0.2h2c2.4,0,3.6-1,3.6-3.1c0-1-0.3-1.7-0.9-2.1s-1.5-0.6-2.8-0.6h-1.9
			c-0.1,0-0.2,0.1-0.2,0.2V116.5z"/>
	</g>
	<g class="st5">
		<path class="st7" d="M59.5,125.8c-0.4,0-0.7-0.1-1-0.4s-0.4-0.6-0.4-1v-13.2c0-0.1-0.1-0.2-0.2-0.2h-3.4c-0.4,0-0.7-0.1-1-0.4
			s-0.4-0.6-0.4-1v-0.2c0-0.4,0.1-0.7,0.4-1s0.6-0.4,1-0.4h10.8c0.4,0,0.7,0.1,1,0.4s0.4,0.6,0.4,1v0.2c0,0.4-0.1,0.7-0.4,1
			s-0.6,0.4-1,0.4h-3.5c-0.1,0-0.2,0.1-0.2,0.2v13.2c0,0.4-0.1,0.7-0.4,1s-0.6,0.4-1,0.4H59.5z"/>
		<path class="st7" d="M81.7,123.6c-1.5,1.7-3.4,2.5-5.8,2.5s-4.3-0.8-5.8-2.5s-2.2-3.9-2.2-6.8s0.7-5.1,2.2-6.7s3.4-2.4,5.8-2.4
			s4.3,0.8,5.8,2.4s2.2,3.9,2.2,6.7S83.1,121.9,81.7,123.6z M72.8,121.3c0.8,1.1,1.8,1.7,3.2,1.7s2.4-0.6,3.2-1.7s1.2-2.6,1.2-4.5
			s-0.4-3.4-1.2-4.5s-1.8-1.6-3.2-1.6s-2.4,0.5-3.2,1.6s-1.2,2.6-1.2,4.5S72,120.2,72.8,121.3z"/>
		<path class="st7" d="M88.7,125.8c-0.4,0-0.7-0.1-1-0.4s-0.4-0.6-0.4-1v-15c0-0.4,0.1-0.7,0.4-1s0.6-0.4,1-0.4h4.5
			c4.6,0,7,1.9,7,5.6c0,1.3-0.3,2.4-0.9,3.3s-1.4,1.6-2.4,2s-2.2,0.6-3.5,0.6h-2.2c-0.1,0-0.2,0.1-0.2,0.2v4.8c0,0.4-0.1,0.7-0.4,1
			s-0.6,0.4-1,0.4H88.7z M90.9,116.5c0,0.1,0.1,0.2,0.2,0.2h2c2.4,0,3.6-1,3.6-3.1c0-1-0.3-1.7-0.9-2.1s-1.5-0.6-2.8-0.6h-1.9
			c-0.1,0-0.2,0.1-0.2,0.2V116.5z"/>
	</g>
</g>
</svg>
