<svg xmlns="http://www.w3.org/2000/svg" viewBox="0 0 106.67 138.75"><defs><style>.cls-1{fill:#34a62a;}.cls-2{fill:#ed8026;}.cls-3,.cls-6{fill:none;stroke-linecap:round;stroke-linejoin:round;}.cls-3{stroke:#683b11;stroke-width:8px;}.cls-4{fill:#783a07;}.cls-5{fill:#ff5571;}.cls-6{stroke:#fff;stroke-width:10px;opacity:0.2;}</style></defs><title>橘子</title><g id="圖層_2" data-name="圖層 2"><g id="OBJECTS"><path class="cls-1" d="M59.32,6.34a21.63,21.63,0,0,0-6,19.22A21.66,21.66,0,0,0,78.54.35a21.64,21.64,0,0,0-19.22,6"/><circle class="cls-2" cx="53.33" cy="85.42" r="53.33"/><path class="cls-3" d="M53.33,36.09a19.52,19.52,0,0,0-9.77-16.91"/><circle class="cls-4" cx="33.21" cy="79.3" r="5"/><circle class="cls-4" cx="73.46" cy="79.3" r="5"/><path class="cls-4" d="M53.33,96.54A12.43,12.43,0,0,1,40.92,84.13V81.8a2.5,2.5,0,0,1,2.5-2.5H63.25a2.5,2.5,0,0,1,2.5,2.5v2.33A12.43,12.43,0,0,1,53.33,96.54Z"/><path class="cls-5" d="M53.33,88.64A7.88,7.88,0,0,0,47,91.78a9.89,9.89,0,0,0,12.59,0A7.88,7.88,0,0,0,53.33,88.64Z"/><path class="cls-6" d="M31.55,48a43.45,43.45,0,0,0-10,8"/></g></g></svg>