<svg xmlns="http://www.w3.org/2000/svg" viewBox="0 0 110.97 128.55"><defs><style>.cls-1{fill:#e0bac5;}.cls-2{fill:#f5e3ef;}.cls-3{fill:#f9eef5;}.cls-4{fill:#6f5159;}.cls-5{fill:#ff5571;}.cls-6{fill:none;stroke:#fff;stroke-linecap:round;stroke-linejoin:round;stroke-width:10px;opacity:0.2;}</style></defs><title>青蘋果</title><g id="圖層_2" data-name="圖層 2"><g id="OBJECTS"><path class="cls-1" d="M94.72,33.83,60.89,0l-5.4,5.4L50.08,0,16.25,33.83a55.48,55.48,0,1,0,78.47,0Z"/><path class="cls-2" d="M81.64,33.83,59.8,1.08,55.48,5.4,51.16,1.08,29.33,33.83c-14.45,21.67-14.44,56.8,0,78.47s37.87,21.67,52.31,0S96.09,55.5,81.64,33.83Z"/><path class="cls-3" d="M68.56,33.83,58.18,2.7l-2.7,2.7-2.7-2.7L42.41,33.83c-7.22,21.67-7.22,56.8,0,78.47s18.93,21.67,26.16,0S75.78,55.5,68.56,33.83Z"/><circle class="cls-4" cx="35.36" cy="58.15" r="5"/><circle class="cls-4" cx="75.61" cy="58.15" r="5"/><path class="cls-4" d="M55.48,75.39A12.43,12.43,0,0,1,43.07,63V60.65a2.5,2.5,0,0,1,2.5-2.5H65.4a2.5,2.5,0,0,1,2.5,2.5V63A12.43,12.43,0,0,1,55.48,75.39Z"/><path class="cls-5" d="M55.48,67.49a7.88,7.88,0,0,0-6.3,3.14,9.89,9.89,0,0,0,12.59,0A7.88,7.88,0,0,0,55.48,67.49Z"/><path class="cls-6" d="M10.06,73.88A45.65,45.65,0,0,0,12.71,88.5"/></g></g></svg>