<svg xmlns="http://www.w3.org/2000/svg" viewBox="0 0 179.89 171.15"><defs><style>.cls-1{fill:#056e31;}.cls-2{fill:#f38100;}.cls-3{fill:#f39200;}.cls-4{fill:#7d480c;}.cls-5{fill:#ff5571;}.cls-6{fill:none;stroke:#fff;stroke-linecap:round;stroke-linejoin:round;stroke-width:10px;opacity:0.2;}</style></defs><title>南瓜_1</title><g id="圖層_2" data-name="圖層 2"><g id="OBJECTS"><path class="cls-1" d="M97,0h-14A31.18,31.18,0,0,1,51.75,31.18v17h76.39v-17A31.18,31.18,0,0,1,97,0Z"/><ellipse class="cls-2" cx="51.75" cy="101.16" rx="51.75" ry="69.98"/><ellipse class="cls-2" cx="128.14" cy="101.16" rx="51.75" ry="69.98"/><path class="cls-3" d="M98.15,31.18H81.73c-28.58,0-51.75,31.33-51.75,70s23.17,70,51.75,70H98.15c28.58,0,51.75-31.33,51.75-70S126.74,31.18,98.15,31.18Z"/><circle class="cls-4" cx="69.82" cy="80.33" r="5"/><circle class="cls-4" cx="110.07" cy="80.33" r="5"/><path class="cls-4" d="M89.94,97.57A12.43,12.43,0,0,1,77.53,85.15V82.83a2.5,2.5,0,0,1,2.5-2.5H99.86a2.5,2.5,0,0,1,2.5,2.5v2.33A12.43,12.43,0,0,1,89.94,97.57Z"/><path class="cls-5" d="M89.94,89.66a7.88,7.88,0,0,0-6.3,3.14,9.89,9.89,0,0,0,12.59,0A7.88,7.88,0,0,0,89.94,89.66Z"/><path class="cls-6" d="M53.18,57.62A62.62,62.62,0,0,0,45.63,71.2"/></g></g></svg>