<svg xmlns="http://www.w3.org/2000/svg" viewBox="0 0 115.24 129.43"><defs><style>.cls-1{fill:#8fce28;}.cls-2{fill:#486714;}.cls-3{fill:#ff5571;}.cls-4{fill:#34a62a;}.cls-5,.cls-6{fill:none;stroke-linecap:round;stroke-linejoin:round;}.cls-5{stroke:#683b11;stroke-width:7px;}.cls-6{stroke:#fff;stroke-width:10px;opacity:0.2;}</style></defs><title>資產 7</title><g id="圖層_2" data-name="圖層 2"><g id="OBJECTS"><path class="cls-1" d="M77.2,27.68a36.49,36.49,0,0,0-16.05,3.71l0,0a8,8,0,0,1-7,0l0,0A36.49,36.49,0,0,0,38,27.68C17,27.68,0,45.51,0,67.5a55.45,55.45,0,0,0,2.74,17,64.21,64.21,0,0,0,3,7.6c5.69,12.24,14.94,23,24.49,31.69a21.37,21.37,0,0,0,14.41,5.62,21.08,21.08,0,0,0,7.58-1.4A14.7,14.7,0,0,1,62.85,128a21.17,21.17,0,0,0,9.3,1.42,21.91,21.91,0,0,0,13.2-5.85c9.44-8.68,18.54-19.29,24.17-31.4a64.22,64.22,0,0,0,3-7.6,55.46,55.46,0,0,0,2.74-17c0-22-17-39.82-38-39.82"/><circle class="cls-2" cx="37.5" cy="72.44" r="5"/><circle class="cls-2" cx="77.75" cy="72.44" r="5"/><path class="cls-2" d="M57.62,89.68A12.43,12.43,0,0,1,45.21,77.27V74.94a2.5,2.5,0,0,1,2.5-2.5H67.53a2.5,2.5,0,0,1,2.5,2.5v2.33A12.43,12.43,0,0,1,57.62,89.68Z"/><path class="cls-3" d="M57.62,81.77a7.88,7.88,0,0,0-6.3,3.14,9.89,9.89,0,0,0,12.59,0A7.88,7.88,0,0,0,57.62,81.77Z"/><path class="cls-4" d="M63.61,6.34a21.63,21.63,0,0,0-6,19.22A21.66,21.66,0,0,0,82.83.35a21.64,21.64,0,0,0-19.22,6"/><path class="cls-5" d="M57.62,36.09a19.53,19.53,0,0,0-9.77-16.91"/><path class="cls-6" d="M24.51,41.41A29.16,29.16,0,0,0,13.77,52.59"/></g></g></svg>