<svg xmlns="http://www.w3.org/2000/svg" viewBox="0 0 110.4 147.34"><defs><style>.cls-1,.cls-7{fill:none;stroke-linecap:round;stroke-linejoin:round;}.cls-1{stroke:#079241;stroke-width:7px;}.cls-2{fill:#079241;}.cls-3{fill:#ffab16;}.cls-4{fill:#f6bd16;}.cls-5{fill:#80560b;}.cls-6{fill:#ff5571;}.cls-7{stroke:#fff;stroke-width:10px;opacity:0.2;}</style></defs><title>甜椒</title><g id="圖層_2" data-name="圖層 2"><g id="OBJECTS"><path class="cls-1" d="M68.45,3.5A13.25,13.25,0,0,0,55.2,16.75v25"/><polygon class="cls-2" points="76.83 41.79 55.2 20.17 33.58 41.79 76.83 41.79"/><path class="cls-3" d="M80.19,139.75h0a18.13,18.13,0,0,1-18-16.26l-6-58.4A21.6,21.6,0,0,1,77.6,41.27H88.79a21.6,21.6,0,0,1,21.15,26l-12,58.05a18.13,18.13,0,0,1-17.75,14.46"/><path class="cls-3" d="M30.21,139.75h0a18.13,18.13,0,0,0,18-16.26l6-58.4A21.6,21.6,0,0,0,32.8,41.27H21.61a21.6,21.6,0,0,0-21.15,26l12,58.05a18.13,18.13,0,0,0,17.75,14.46"/><path class="cls-4" d="M55.2,147.34h0a26.42,26.42,0,0,1-26.28-23.7L22.08,57.5A21.6,21.6,0,0,1,43.56,33.68H66.83A21.6,21.6,0,0,1,88.32,57.5l-6.84,66.14a26.42,26.42,0,0,1-26.28,23.7"/><circle class="cls-5" cx="35.07" cy="67.28" r="5"/><circle class="cls-5" cx="75.32" cy="67.28" r="5"/><path class="cls-5" d="M55.2,84.52A12.43,12.43,0,0,1,42.79,72.11V69.78a2.5,2.5,0,0,1,2.5-2.5H65.11a2.5,2.5,0,0,1,2.5,2.5v2.33A12.43,12.43,0,0,1,55.2,84.52Z"/><path class="cls-6" d="M55.2,76.62a7.88,7.88,0,0,0-6.3,3.14,9.89,9.89,0,0,0,12.59,0A7.88,7.88,0,0,0,55.2,76.62Z"/><path class="cls-7" d="M34.95,47.51a11.46,11.46,0,0,1,8.61-3.83"/></g></g></svg>