<svg xmlns="http://www.w3.org/2000/svg" viewBox="0 0 105.33 157.86"><defs><style>.cls-1{isolation:isolate;}.cls-2{fill:#b88357;}.cls-3{fill:#6c4727;}.cls-4{fill:#ff5571;}.cls-5,.cls-7{fill:none;stroke-linecap:round;stroke-linejoin:round;}.cls-5{stroke:#fff;stroke-width:10px;opacity:0.2;}.cls-6{opacity:0.4;mix-blend-mode:multiply;}.cls-7{stroke:#b88357;stroke-width:7px;}</style></defs><title>馬鈴薯</title><g class="cls-1"><g id="圖層_2" data-name="圖層 2"><g id="OBJECTS"><path class="cls-2" d="M102.22,87.33c-4.76-13.19-7.31-27.12-6.37-41.12q.1-1.45.1-2.94a43.28,43.28,0,1,0-86.55,0q0,1.48.1,2.94c.94,14-1.61,27.93-6.37,41.12a52.67,52.67,0,1,0,99.11,0"/><circle class="cls-3" cx="32.54" cy="51.35" r="5"/><circle class="cls-3" cx="72.79" cy="51.35" r="5"/><path class="cls-3" d="M52.67,68.59A12.43,12.43,0,0,1,40.25,56.18V53.85a2.5,2.5,0,0,1,2.5-2.5H62.58a2.5,2.5,0,0,1,2.5,2.5v2.33A12.43,12.43,0,0,1,52.67,68.59Z"/><path class="cls-4" d="M52.67,60.69a7.88,7.88,0,0,0-6.3,3.14,9.9,9.9,0,0,0,12.59,0A7.88,7.88,0,0,0,52.67,60.69Z"/><path class="cls-5" d="M36.61,14.16A33.54,33.54,0,0,0,23.87,26.64"/><g class="cls-6"><line class="cls-7" x1="24.01" y1="84.84" x2="31.76" y2="84.84"/><line class="cls-7" x1="79.45" y1="84.84" x2="81.38" y2="84.84"/><line class="cls-7" x1="29.82" y1="117.42" x2="31.76" y2="117.42"/><line class="cls-7" x1="77.45" y1="117.42" x2="81.32" y2="117.42"/><line class="cls-7" x1="48.82" y1="101.13" x2="56.57" y2="101.13"/><line class="cls-7" x1="48.82" y1="133.71" x2="56.57" y2="133.71"/></g></g></g></g></svg>