<svg xmlns="http://www.w3.org/2000/svg" width="35" height="35" viewBox="0 0 35 35">
  <g id="Group_646" data-name="Group 646" transform="translate(0)">
    <g id="Group_641" data-name="Group 641" transform="translate(7.841)">
      <g id="Group_640" data-name="Group 640">
        <path id="Path_5249" data-name="Path 5249" d="M114.7,0l12.954,9.632L140.611,0Z" transform="translate(-114.703)" fill="#fff"/>
      </g>
    </g>
    <g id="Group_643" data-name="Group 643" transform="translate(6.59 1.625)">
      <g id="Group_642" data-name="Group 642">
        <path id="Path_5250" data-name="Path 5250" d="M111.218,33.881a1.025,1.025,0,0,1-1.224,0L96.4,23.773v11.21a11.308,11.308,0,0,1,17.264,8.985h10.121a1.025,1.025,0,0,0,1.025-1.025V23.773Z" transform="translate(-96.401 -23.773)" fill="#fff"/>
      </g>
    </g>
    <g id="Group_645" data-name="Group 645" transform="translate(0 13.18)">
      <g id="Group_644" data-name="Group 644">
        <path id="Path_5251" data-name="Path 5251" d="M12.558,192.8a9.257,9.257,0,0,0-7.231,15.044L.3,212.871a1.025,1.025,0,0,0,1.45,1.45l5.026-5.026A9.261,9.261,0,1,0,12.558,192.8Zm0,16.475a7.212,7.212,0,1,1,7.212-7.212A7.22,7.22,0,0,1,12.558,209.276Z" transform="translate(0 -192.801)" fill="#fff"/>
      </g>
    </g>
  </g>
</svg>
