<?xml version="1.0" encoding="utf-8"?>
<!-- Generator: Adobe Illustrator 21.1.0, SVG Export Plug-In . SVG Version: 6.00 Build 0)  -->
<svg version="1.1" xmlns="http://www.w3.org/2000/svg" xmlns:xlink="http://www.w3.org/1999/xlink" x="20px" y="20px"
	 viewBox="0 0 127.3 121.3" style="enable-background:new 0 0 127.3 121.3;" xml:space="preserve">
<style type="text/css">
	.st0{fill:#FAF4D2;}
	.st1{fill:#FFFFFF;}
	.st2{fill:#FFD561;}
	.st3{fill:#E06C4F;}
	.st4{fill:#292929;}
	.st5{fill:#8CBBE8;}
	.st6{fill:#D6674C;}
	.st7{fill:#FEFEFE;}
	.st8{fill:#FDFDFD;}
	.st9{fill:#292A2A;}
	.st10{fill:#FF919B;}
	.st11{fill:#2A2A2A;}
	.st12{fill:#FFB340;}
	.st13{fill:#EBEBEB;}
	.st14{fill:#99C458;}
</style>
<g id="Background">
</g>
<g id="Graphic_Elements">
	<g>
		<path class="st1" d="M115.8,59.1c-0.1,4.4-0.2,8.8-0.5,13.2c-0.3,4.3-2,8.1-3.7,11.9c-1.9,4.2-4.6,7.8-6.9,11.8
			c-0.4,0.6-0.7,1.2-1.1,1.9c-2.3,4.4-5.8,7.5-10.4,9.4c-2.1,0.9-4.2,1.8-6.3,2.9c-2.5,1.3-5.2,1.9-7.9,2.6
			c-2.7,0.7-5.4,0.7-8.1,0.8c-3.6,0.1-7.2,0.4-10.8,0.4c-3.7,0.1-7.3-0.6-10.9-1.5c-4.6-1.1-8.5-3.4-12.6-5.6
			c-2.1-1.1-4.3-2.1-6.2-3.5c-2.8-2.1-5.1-4.6-7.3-7.3c-1.4-1.7-2.6-3.4-3.8-5.2c-1.9-2.8-2.7-6-3.4-9.2c-0.7-3.4-0.7-6.9-0.8-10.4
			c0-1.3-0.1-2.5-0.6-3.8c-0.6-1.6-0.4-3.2-0.5-4.9c-0.6-6.7,0.3-13.1,2.2-19.5c0.4-1.2,0.5-2.5,0.8-3.8c0.3-1.8,0.9-3.5,1.4-5.2
			c0.4-1.5,1.2-2.6,2.1-3.7c0.6-0.8,1-1.7,1.7-2.5c1.7-1.9,3.8-3.3,5.9-4.7c2.8-1.9,5.9-3,9-4.3c3.5-1.5,7.2-2.9,10.8-4.2
			c3.9-1.4,8-2.2,12.2-2.3c3,0,5.9-0.2,8.9-0.3c3.1-0.1,6.1,0.3,9.1,0.6c2.4,0.3,4.8,0.4,7,1.2c5,1.7,9.7,3.9,13.6,7.6
			c1.6,1.5,3.1,3,4.7,4.4c2.3,2,3.9,4.6,5.3,7.2c2.8,5.2,5,10.7,6.4,16.5c0.5,2.1,0.4,4.2,0.6,6.4C115.9,56.9,115.8,58,115.8,59.1z"
			/>
		<path class="st1" d="M74.9,41.8c0.2,0.4,0.5,0.7,0.8,0.9c1.1,1,2.4,1.9,3.9,2.2c1.5,0.4,3.1,0.2,4.4-0.7c1.2-0.9,2-2.5,1.6-4
			c-0.2-0.6-0.5-1.1-0.8-1.6c-1.5-2.1-4.4-4.1-7.1-3.3C75.4,36,73.9,39.7,74.9,41.8z"/>
		<path class="st1" d="M43.2,45c0.6,0.6,1.3,0.9,2.1,1.3c0.6,0.3,1.3,0.6,2,0.5c1.1-0.1,2-0.9,2.7-1.7c0.6-0.7,1.2-1.5,1.7-2.3
			c0.5-0.8,1-1.8,0.7-2.7c-0.2-0.5-0.6-1-1-1.3c-1.9-1.7-6-4.3-8.3-2C41.1,38.9,41.1,43.1,43.2,45z"/>
		<path class="st4" d="M57,55.6c0-1.6-0.3-3.3-1.1-4.7c-0.6-1-0.7-1-1.5-0.2c-1,1-2.1,2.1-2.6,3.5c-0.1,0.2-0.2,0.3-0.1,0.5
			c0.2,1.1-0.5,1-1.2,1c-0.5,0-0.9,0-1.4,0c-0.7,0-0.9-0.3-0.7-0.9c0.2-0.8,0.5-1.5,1-2.2c0.8-1.2,1.8-2.1,2.8-3.1
			c0.9-0.9,2.1-0.8,3.3-0.9c2.2,0,3.5,1.1,4.2,3.1c0.1,0.4,0.3,0.4,0.7,0.3c1.8-0.7,3.6-0.6,5.5-0.3c0.1,0,0.3,0.1,0.4,0.2
			c0.7,0.9,1.2,0.4,1.8-0.1c1.2-0.9,2.6-1.2,4.1-1.4c0.5-0.1,1-0.1,1.6-0.1c1.3,0,2.2,0.4,3.1,1.5c0.9,1.2,2.1,2.2,2.2,3.8
			c0,0.6-0.1,1.2,0.2,1.7c0.1,0.2-0.1,0.3-0.3,0.4c-0.3,0-0.6,0-0.8,0c-1.9,0-2.4,0.2-2.3-2c0.1-1-0.4-2-1.2-2.7
			c-0.2-0.2-0.3-0.4-0.5-0.5c-0.4-0.3-0.6-1.1-1.2-1c-0.8,0.1-1.5,0.5-2,1.1c-1,1.2-1.5,2.6-1.5,4.1c0,1.6,0,1.8-1.6,1.7
			c-1.8-0.1-2,0.3-1.8-1.7c0.1-1.8-0.9-2.8-2-3.8c-0.3-0.3-0.6-0.2-0.9,0c-0.6,0.3-1,0.9-1.3,1.5c-0.3,0.7-0.7,1.3-0.9,2.1
			c-0.2,1-0.7,1.3-1.6,1.2c-0.1,0-0.1,0-0.2,0C56.6,57.3,57,57.4,57,55.6z"/>
		<path class="st4" d="M82.8,45.7c-0.1,0-0.3,0-0.4,0c-0.7,0-1.2,0-1.5-0.9c-0.2-0.8-0.9-1.4-1.2-2.2c-0.1-0.4-0.4-0.5-0.7-0.2
			c-0.1,0.1-0.2,0.2-0.3,0.3c-1,1.4-2.4,1.4-3.9,1.3c-0.2,0-0.4,0-0.5-0.2c-0.1-0.3,0.2-0.4,0.3-0.5c1-0.9,2.1-1.8,3.2-2.7
			c0.4-0.3,0.4-0.6,0.1-1c-0.7-1.1-1.3-2.3-1.9-3.5c-0.3-0.5-0.1-0.7,0.4-0.8c0.7-0.1,1.4,0,2.1,0c0.3,0,0.5,0.2,0.6,0.5
			c0.3,0.6,0.7,1.2,0.9,1.8c0.2,0.5,0.4,0.4,0.7,0.1c0.6-0.8,1.5-1.2,2.3-1.8c0.6-0.4,1.4-0.2,2.1-0.2c0.4,0,1-0.2,1.1,0.2
			c0.1,0.5-0.5,0.6-0.9,0.8c-1.3,0.9-2.4,2.2-3.6,3.2c-0.4,0.3-0.1,0.6,0.1,0.9c0.8,1.3,1.5,2.6,2.3,3.9c0.4,0.7,0.1,0.8-0.5,0.9
			C83.5,45.7,83.1,45.7,82.8,45.7C82.8,45.7,82.8,45.7,82.8,45.7z"/>
		<path class="st4" d="M51,44.4c-1.6,0.4-2.3-1.1-3.4-1.9c-0.6-0.4-0.8-0.4-1.2,0.2c-0.2,0.4-0.5,0.7-0.8,1.1
			c-0.3,0.4-0.5,1-1.1,1.1c-0.9,0.2-1.8,0.2-2.7,0c-0.4-0.1-0.2-0.3-0.1-0.5c0.9-1.1,1.7-2.3,2.6-3.5c0.4-0.5,0.4-0.9-0.1-1.3
			c-1.2-0.8-2.2-1.7-3.2-2.8c-0.1-0.1-0.5-0.2-0.3-0.5c0.1-0.2,0.4-0.2,0.6-0.2c1.5-0.2,2.9,0,3.9,1.4c0.4,0.6,0.7,0.7,1.1-0.1
			c0.3-0.6,0.7-1.1,1.1-1.7c0.2-0.3,0.4-0.4,0.7-0.4c0.6,0,1.2,0,1.7,0c0.3,0,0.6,0,0.8,0.2c0.2,0.3-0.1,0.6-0.3,0.8
			c-0.8,0.9-1.2,2-1.8,3.1c-0.2,0.5-0.2,0.7,0.2,1.1c1.2,1,2.4,2,3.5,3c0.2,0.2,0.5,0.3,0.4,0.6c-0.1,0.2-0.4,0.2-0.7,0.2
			C51.7,44.3,51.4,44.4,51,44.4z"/>
		<path class="st4" d="M92.8,36.4c-0.9,0.2-1.4-0.2-1.8-1.2c-0.6-1.3-1.6-2.4-2.2-3.8c-0.3-0.7-0.1-0.8,0.5-0.9
			c2.3-0.1,2.3-0.2,3.3,1.9c0.5,0.9,1.2,1.7,1.6,2.6c0.6,1.2,0.5,1.3-0.8,1.3C93.3,36.4,93.1,36.4,92.8,36.4z"/>
		<path class="st4" d="M34.2,33.7c-0.3,0-0.6,0-0.8,0c-0.3,0-0.7,0.1-0.8-0.3c-0.1-0.3,0.3-0.5,0.5-0.7c1.3-0.9,2.6-1.8,3.8-2.7
			c0.5-0.4,2.9-0.5,3.4-0.2c0.2,0.1,0.4,0.3,0.1,0.5c-1.5,0.7-2.8,1.8-4.1,2.8C35.6,33.6,35,33.8,34.2,33.7z"/>
	</g>
</g>
</svg>
