<svg xmlns="http://www.w3.org/2000/svg" xmlns:xlink="http://www.w3.org/1999/xlink" viewBox="0 0 572.67 514.11"><defs><style>.cls-1,.cls-4{fill:none;}.cls-2{fill:#fff;}.cls-3{clip-path:url(#clip-path);}.cls-4{stroke:#5e3418;stroke-linecap:round;stroke-linejoin:round;stroke-width:10px;}.cls-5{fill:#749cd2;}.cls-6{fill:#ea5150;}.cls-7{fill:#fde7d1;}.cls-8{fill:#9abf80;}.cls-9{fill:#dbdbdb;}.cls-10{fill:#f4aeaf;}.cls-11{fill:#5e3418;}.cls-12{fill:#d1d1d1;}.cls-13{fill:#e8403d;}</style><clipPath id="clip-path" transform="translate(0 0)"><rect class="cls-1" width="572.66" height="514.11"/></clipPath></defs><title>資產 1</title><g id="圖層_2" data-name="圖層 2"><g id="レイヤー_1" data-name="レイヤー 1"><path class="cls-2" d="M199.63,324c-29.26,18.06-47.9,47.95-59.75,78.3-6.1,15.63-45.19-15.95-48.23-1.62C84.81,433,119.16,505.28,119.16,505.28l370.17-1.38S516.15,368.3,450,318.49" transform="translate(0 0)"/><g class="cls-3"><path class="cls-4" d="M199.63,324c-29.26,18.06-47.9,47.95-59.75,78.3-6.1,15.63-45.19-15.95-48.23-1.62C84.81,433,119.16,505.28,119.16,505.28l370.17-1.38S516.15,368.3,450,318.49" transform="translate(0 0)"/></g><polyline class="cls-5" points="372.89 440.3 411.1 329.55 453.99 337.85 427.27 442"/><polyline class="cls-4" points="372.89 440.3 411.1 329.55 453.99 337.85 427.27 442"/><polyline class="cls-5" points="231.84 433.49 227.99 350.31 186.48 354.46 182.55 438.59"/><polyline class="cls-4" points="231.84 433.49 227.99 350.31 186.48 354.46 182.55 438.59"/><path class="cls-5" d="M173.51,505.28,182,431.95s180.9-9.69,245.15,8.3l8.44,62.26-262.05,2.76Z" transform="translate(0 0)"/><g class="cls-3"><path class="cls-4" d="M173.51,505.28,182,431.95s180.9-9.69,245.15,8.3l8.44,62.26-262.05,2.76Z" transform="translate(0 0)"/></g><path class="cls-6" d="M473.58,295.89s53.5-28.6,94.09-20.3c0,0,1.84,75.65-97.78,48.89" transform="translate(0 0)"/><g class="cls-3"><path class="cls-4" d="M473.58,295.89s53.5-28.6,94.09-20.3c0,0,1.84,75.65-97.78,48.89" transform="translate(0 0)"/></g><path class="cls-6" d="M473.8,321.58S528,348.76,544.7,386.7c0,0-60.69,45.19-96.37-51.6" transform="translate(0 0)"/><g class="cls-3"><path class="cls-4" d="M473.8,321.58S528,348.76,544.7,386.7c0,0-60.69,45.19-96.37-51.6" transform="translate(0 0)"/></g><path class="cls-6" d="M177.08,340.1s36.9,89.48,89.48,118.09c0,0,135.6-31.37,178-113.47" transform="translate(0 0)"/><path class="cls-4" d="M177.08,340.1s36.9,89.48,89.48,118.09c0,0,135.6-31.37,178-113.47" transform="translate(0 0)"/><path class="cls-7" d="M182.55,175.18l-33.14,67.11s-51.85,22.94-29.75,67.14,102,68,215.84,69.68c98.57,1.48,198.84-39.08,147-110.47l-28-93.46" transform="translate(0 0)"/><g class="cls-3"><path class="cls-4" d="M182.55,175.18l-33.14,67.11s-51.85,22.94-29.75,67.14,102,68,215.84,69.68c98.57,1.48,198.84-39.08,147-110.47l-28-93.46" transform="translate(0 0)"/></g><path class="cls-8" d="M458.37,207.33s21.84-34.58,74.3-14.58l28.06-.08s-11.92,74.6-97.39,59.78" transform="translate(0 0)"/><g class="cls-3"><path class="cls-4" d="M458.37,207.33s21.84-34.58,74.3-14.58l28.06-.08s-11.92,74.6-97.39,59.78" transform="translate(0 0)"/></g><path class="cls-8" d="M435,184.94s-5.15-40.58,48.06-58.51l21.6-17.9s38.25,65.14-37.13,108.07" transform="translate(0 0)"/><g class="cls-3"><path class="cls-4" d="M435,184.94s-5.15-40.58,48.06-58.51l21.6-17.9s38.25,65.14-37.13,108.07" transform="translate(0 0)"/></g><path class="cls-9" d="M218.24,195.56c-2.55.85-68.82,46.73-68.82,46.73s17-65.42,34.83-78.17l34,31.44Z" transform="translate(0 0)"/><path class="cls-4" d="M218.24,195.56c-2.55.85-68.82,46.73-68.82,46.73s17-65.42,34.83-78.17l34,31.44Z" transform="translate(0 0)"/><path class="cls-9" d="M417.08,208.3l65.43,60.33s2.55-70.52-17.84-91.77l-48.44,26.34" transform="translate(0 0)"/><path class="cls-4" d="M417.08,208.3l65.43,60.33s2.55-70.52-17.84-91.77l-48.44,26.34" transform="translate(0 0)"/><path class="cls-8" d="M163.85,195.56l318.65,26.76s-8.93-122.17-144-128.73c-131.28-6.38-161.87,67.56-174.62,102Z" transform="translate(0 0)"/><path class="cls-4" d="M163.85,195.56l318.65,26.76s-8.93-122.17-144-128.73c-131.28-6.38-161.87,67.56-174.62,102Z" transform="translate(0 0)"/><line class="cls-2" x1="342.3" y1="189.18" x2="477.41" y2="199.39"/><line class="cls-4" x1="342.3" y1="189.18" x2="477.41" y2="199.39"/><path class="cls-7" d="M310.44,249.09s-19.12-8.92-22.94,11.47" transform="translate(0 0)"/><path class="cls-4" d="M310.44,249.09s-19.12-8.92-22.94,11.47m-25.11,53.61s34.39,27.57,68,5.44" transform="translate(0 0)"/><path class="cls-10" d="M247.14,283.09a51.84,51.84,0,1,1-51.84-51.83,51.83,51.83,0,0,1,51.84,51.83Z" transform="translate(0 0)"/><path class="cls-10" d="M467.21,294.13a51.84,51.84,0,1,1-51.84-51.83,51.84,51.84,0,0,1,51.84,51.83Z" transform="translate(0 0)"/><path class="cls-11" d="M256.9,244.63c0,11.6-6.84,21-15.29,21s-15.3-9.43-15.3-21,6.85-21,15.3-21,15.29,9.41,15.29,21Z" transform="translate(0 0)"/><path class="cls-11" d="M385.64,252.91c0,11.61-6.85,21-15.29,21s-15.3-9.42-15.3-21,6.85-21,15.3-21,15.29,9.41,15.29,21Z" transform="translate(0 0)"/><path class="cls-9" d="M338.9,278.83s-57.78-8.49-64.58-5.1-19.55,18.7-11.9,22.94,79,11.89,84.13,8.5-7.65-26.34-7.65-26.34Z" transform="translate(0 0)"/><path class="cls-4" d="M338.9,278.83s-57.78-8.49-64.58-5.1-19.55,18.7-11.9,22.94,79,11.89,84.13,8.5-7.65-26.34-7.65-26.34Z" transform="translate(0 0)"/><path class="cls-7" d="M163.32,379c0,13.47-6.71,24.38-15,24.38s-15-10.91-15-24.37,6.71-24.38,15-24.38,15,10.91,15,24.38Z" transform="translate(0 0)"/><path class="cls-4" d="M163.32,379c0,13.47-6.71,24.38-15,24.38s-15-10.91-15-24.37,6.71-24.38,15-24.38,15,10.91,15,24.38Z" transform="translate(0 0)"/><g class="cls-3"><path class="cls-12" d="M91.91,235.38,89.82,199s-63.19-4.88-74.56-33.44S3.41,21.38,6.9,18.74,24.4,5.57,31.37,21c0,0,7,122.51,14.34,123.31s34.44-.75,34.44-.75L75.47,11.17c17.62-10.71,30.67,4.35,30.67,4.35l9.68,127.23s23-2.52,30.18-4.15.22-124.14.22-124.14c5.18-16.11,20.3-7.24,24.06-5s16.43,117.09,8.38,146.78-62.15,41.28-62.15,41.28l2.08,36.4" transform="translate(0 0)"/><path class="cls-4" d="M91.91,235.38,89.82,199s-63.19-4.88-74.56-33.44S3.41,21.38,6.9,18.74,24.4,5.57,31.37,21c0,0,7,122.51,14.34,123.31s34.44-.75,34.44-.75L75.47,11.17c17.62-10.71,30.67,4.35,30.67,4.35l9.68,127.23s23-2.52,30.18-4.15.22-124.14.22-124.14c5.18-16.11,20.3-7.24,24.06-5s16.43,117.09,8.38,146.78-62.15,41.28-62.15,41.28l2.08,36.4" transform="translate(0 0)"/></g><path class="cls-13" d="M84.14,255.29a23.14,23.14,0,0,1,21.78-24.43h0a23.17,23.17,0,0,1,24.44,21.8l18,253.07c-.61.92-47.28,5.09-46.23,2.64l-18-253.07Z" transform="translate(0 0)"/><g class="cls-3"><path class="cls-4" d="M84.14,255.29a23.14,23.14,0,0,1,21.78-24.43h0a23.17,23.17,0,0,1,24.44,21.8l18,253.07c-.61.92-47.28,5.09-46.23,2.64l-18-253.07Z" transform="translate(0 0)"/></g><path class="cls-7" d="M131.65,378.42c0,28.65-14.83,51.88-33.12,51.88S65.4,407.07,65.4,378.42s14.83-51.88,33.13-51.88,33.12,23.22,33.12,51.88Z" transform="translate(0 0)"/><path class="cls-4" d="M131.65,378.42c0,28.65-14.83,51.88-33.12,51.88S65.4,407.07,65.4,378.42s14.83-51.88,33.13-51.88,33.12,23.22,33.12,51.88Z" transform="translate(0 0)"/></g></g></svg>