<svg xmlns="http://www.w3.org/2000/svg" viewBox="0 0 138.28 172.12"><defs><style>.cls-1{fill:#a4ce4e;}.cls-2{fill:none;stroke:#fff;stroke-linecap:round;stroke-linejoin:round;stroke-width:12px;opacity:0.2;}.cls-3{fill:#4a611b;}.cls-4{fill:#ff5571;}</style></defs><title>大白菜</title><g id="圖層_2" data-name="圖層 2"><g id="OBJECTS"><path class="cls-1" d="M132.51,75.63a1.45,1.45,0,0,1,.19-2.37,11.51,11.51,0,0,0-2.18-20.75,1.45,1.45,0,0,1-.67-2.28,11.51,11.51,0,0,0-9.47-18.59,1.45,1.45,0,0,1-1.45-1.88,11.51,11.51,0,0,0-15.51-14,1.45,1.45,0,0,1-2-1.24A11.51,11.51,0,0,0,81.91,7.08a1.44,1.44,0,0,1-2.33-.43,11.51,11.51,0,0,0-20.87,0,1.44,1.44,0,0,1-2.33.43,11.51,11.51,0,0,0-19.48,7.48,1.45,1.45,0,0,1-2,1.24,11.51,11.51,0,0,0-15.51,14,1.44,1.44,0,0,1-1.44,1.88A11.51,11.51,0,0,0,8.44,50.24a1.44,1.44,0,0,1-.67,2.28A11.51,11.51,0,0,0,5.59,73.27a1.45,1.45,0,0,1,.19,2.37A11.51,11.51,0,0,0,14,95.93a1.43,1.43,0,0,1,1.52,1.16l6.91,36.37a47.53,47.53,0,0,0,93.4,0l6.91-36.37a1.43,1.43,0,0,1,1.52-1.16,11.51,11.51,0,0,0,8.24-20.3M123,95.77Z"/><polyline class="cls-2" points="69.14 127.11 69.14 157.12 69.14 157.12"/><circle class="cls-3" cx="49.02" cy="90.97" r="5"/><circle class="cls-3" cx="89.27" cy="90.97" r="5"/><path class="cls-3" d="M69.14,108.21A12.43,12.43,0,0,1,56.73,95.8V93.47a2.5,2.5,0,0,1,2.5-2.5H79.05a2.5,2.5,0,0,1,2.5,2.5V95.8A12.43,12.43,0,0,1,69.14,108.21Z"/><path class="cls-4" d="M69.14,100.31a7.88,7.88,0,0,0-6.3,3.14,9.89,9.89,0,0,0,12.59,0A7.88,7.88,0,0,0,69.14,100.31Z"/></g></g></svg>