<svg xmlns="http://www.w3.org/2000/svg" viewBox="0 0 112.24 209.8"><defs><style>.cls-1{fill:#34a62a;}.cls-2,.cls-6{fill:none;stroke-linecap:round;stroke-linejoin:round;}.cls-2{stroke:#59c412;stroke-width:7px;}.cls-3{fill:#c80748;}.cls-4{fill:#7c1135;}.cls-5{fill:#ff5571;}.cls-6{stroke:#fff;stroke-width:10px;opacity:0.2;}</style></defs><title>甜菜跟</title><g id="圖層_2" data-name="圖層 2"><g id="OBJECTS"><path class="cls-1" d="M78.66,20.09A22.72,22.72,0,0,0,58.7.14a23.47,23.47,0,0,0-5.17,0A22.68,22.68,0,0,0,37.9,36.2a14.57,14.57,0,0,1,2.77,11.16A15.66,15.66,0,0,0,43,58.58a15.3,15.3,0,0,1,2.53,9.82,10.68,10.68,0,0,0,9.43,11.66,11.26,11.26,0,0,0,2.42,0A10.67,10.67,0,0,0,66.76,68.4a15.3,15.3,0,0,1,2.53-9.82,15.66,15.66,0,0,0,2.29-11.23A14.56,14.56,0,0,1,74.34,36.2a22.64,22.64,0,0,0,4.32-16.12"/><line class="cls-2" x1="56.12" y1="122.38" x2="56.12" y2="36.2"/><path class="cls-1" d="M110.79,52.74a17.69,17.69,0,0,0-5.69-21.21,18.26,18.26,0,0,0-1.69-1.1,18,18,0,0,0-1.8-.91A17.66,17.66,0,0,0,77,47.74a11.33,11.33,0,0,1-2.48,8.6,12.31,12.31,0,0,0-1.21,1.73,12.12,12.12,0,0,0-1.62,6.73,11.91,11.91,0,0,1-2.12,7.6,8.31,8.31,0,0,0,1.82,11.53,8.06,8.06,0,0,0,.79.52,7.93,7.93,0,0,0,.84.43A8.31,8.31,0,0,0,84,80.68,11.92,11.92,0,0,1,89.48,75a12.21,12.21,0,0,0,5.92-6.68,11.33,11.33,0,0,1,6.21-6.44,17.62,17.62,0,0,0,9.19-9.18"/><line class="cls-2" x1="51.09" y1="121.03" x2="89.32" y2="54.83"/><path class="cls-1" d="M31.85,35.19a17.69,17.69,0,0,0-21.22-5.68,18.2,18.2,0,0,0-3.48,2,17.66,17.66,0,0,0,3.49,30.4,11.33,11.33,0,0,1,6.21,6.44A12.21,12.21,0,0,0,22.76,75a11.9,11.9,0,0,1,5.53,5.64A8.31,8.31,0,0,0,40,84.44a8.78,8.78,0,0,0,.79-.52A8.31,8.31,0,0,0,42.63,72.4a11.92,11.92,0,0,1-2.12-7.6,12.22,12.22,0,0,0-2.82-8.46,11.33,11.33,0,0,1-2.48-8.6,17.61,17.61,0,0,0-3.36-12.55"/><line class="cls-2" x1="61.15" y1="121.03" x2="22.93" y2="54.83"/><path class="cls-3" d="M108.36,141.45c0-26.59-23.39-48.14-52.24-48.14S3.88,114.87,3.88,141.45c0,20.62,14.07,38.21,33.84,45.06a14.24,14.24,0,0,1,8.53,8.26l4.5,11.39a5.76,5.76,0,0,0,10.71,0L66,194.77a14.24,14.24,0,0,1,8.53-8.25c19.78-6.86,33.85-24.44,33.85-45.06"/><circle class="cls-4" cx="35.99" cy="135.33" r="5"/><circle class="cls-4" cx="76.24" cy="135.33" r="5"/><path class="cls-4" d="M56.12,152.57a12.43,12.43,0,0,1-12.41-12.41v-2.33a2.5,2.5,0,0,1,2.5-2.5H66a2.5,2.5,0,0,1,2.5,2.5v2.33A12.43,12.43,0,0,1,56.12,152.57Z"/><path class="cls-5" d="M56.12,144.67a7.88,7.88,0,0,0-6.3,3.14,9.89,9.89,0,0,0,12.59,0A7.88,7.88,0,0,0,56.12,144.67Z"/><path class="cls-6" d="M34.47,108.73a40.65,40.65,0,0,0-14.91,13.65"/></g></g></svg>