<svg xmlns="http://www.w3.org/2000/svg"  width="68.416" height="100.978" viewBox="0 0 68.416 100.978">
  <g id="Group_1045"  data-name="Group 1045" transform="translate(-570 -551.914)">
    <g id="Group_690" data-name="Group 690" transform="translate(602.407 573.622)">
      <line id="Line_72" data-name="Line 72" y2="9.054" transform="translate(1.8 1.8)" fill="#96c71f"/>
      <path id="Path_5421" data-name="Path 5421" d="M607.8,588.683a1.8,1.8,0,0,1-1.8-1.8v-9.053a1.8,1.8,0,0,1,3.6,0v9.053A1.8,1.8,0,0,1,607.8,588.683Z" transform="translate(-606 -576.029)" fill="#96c71f"/>
    </g>
    <path id="Path_5422" data-name="Path 5422" d="M638.416,615.092c0-14.916-15.315-27.006-34.208-27.006S570,600.177,570,615.092c0,10.427,7.487,19.468,18.448,23.965a26.459,26.459,0,0,1,15.569,16.8c.122.411.191.64.191.64s.069-.229.191-.64a26.459,26.459,0,0,1,15.569-16.8C630.929,634.56,638.416,625.519,638.416,615.092Z" transform="translate(0 -3.61)" fill="#ff4d38"/>
    <path id="Path_5423" data-name="Path 5423" d="M605.347,565.294c3.061,8.409.466,17.073.466,17.073s-7.556-4.97-10.617-13.379-.466-17.074-.466-17.074S602.286,556.884,605.347,565.294Z" transform="translate(-2.366 0)" fill="#96c71f"/>
    <path id="Path_5424" data-name="Path 5424" d="M609.2,565.294c-3.061,8.409-.466,17.073-.466,17.073s7.556-4.97,10.617-13.379.466-17.074.466-17.074S612.257,556.884,609.2,565.294Z" transform="translate(-3.763 0)" fill="#96c71f"/>
    <path id="Path_5425" data-name="Path 5425" d="M638.675,601.63H627.8a1.8,1.8,0,0,1,0-3.6h7.436A26.952,26.952,0,0,1,638.675,601.63Z" transform="translate(-5.588 -4.602)" fill="#dd2c1f"/>
    <path id="Path_5426" data-name="Path 5426" d="M643.56,626.119a23.569,23.569,0,0,1-1.584,3.511H635.8a1.8,1.8,0,0,1,0-3.6H643A1.876,1.876,0,0,1,643.56,626.119Z" transform="translate(-6.387 -7.396)" fill="#dd2c1f"/>
    <path id="Path_5427" data-name="Path 5427" d="M592.6,611.63H581.8a1.8,1.8,0,0,1,0-3.6h10.8a1.8,1.8,0,1,1,0,3.6Z" transform="translate(-0.998 -5.6)" fill="#dd2c1f"/>
    <path id="Path_5428" data-name="Path 5428" d="M588.138,627.829a1.806,1.806,0,0,1-1.8,1.8H572.96a22.979,22.979,0,0,1-1.62-3.6h15A1.806,1.806,0,0,1,588.138,627.829Z" transform="translate(-0.134 -7.396)" fill="#dd2c1f"/>
    <path id="Path_5429" data-name="Path 5429" d="M622.254,575.122c-8.645,2.316-14.254,9.412-14.254,9.412s8.405,3.339,17.05,1.022,14.253-9.411,14.253-9.411S630.9,572.806,622.254,575.122Z" transform="translate(-3.792 -2.234)" fill="#96c71f"/>
    <path id="Path_5430" data-name="Path 5430" d="M590.276,575.122c-8.644-2.316-17.049,1.023-17.049,1.023s5.609,7.095,14.253,9.411,17.05-1.022,17.05-1.022S598.921,577.439,590.276,575.122Z" transform="translate(-0.322 -2.234)" fill="#96c71f"/>
    <path id="Path_5431" data-name="Path 5431" d="M605.4,611.63h-3.6a1.8,1.8,0,0,1,0-3.6h3.6a1.8,1.8,0,0,1,0,3.6Z" transform="translate(-2.994 -5.6)" fill="#dd2c1f"/>
    <path id="Path_5432" data-name="Path 5432" d="M625.4,629.63h-3.6a1.8,1.8,0,0,1,0-3.6h3.6a1.8,1.8,0,0,1,0,3.6Z" transform="translate(-4.99 -7.396)" fill="#dd2c1f"/>
  </g>
</svg>
