<svg xmlns="http://www.w3.org/2000/svg" width="357.802" height="111.034" viewBox="0 0 357.802 111.034">
  <g id="Group_904" data-name="Group 904" transform="matrix(0.999, 0.035, -0.035, 0.999, -463.5, -145.491)">
    <path id="Path_5632" data-name="Path 5632" d="M495.773,158.908c-.146.039-.408.063-.417.119a3.6,3.6,0,0,1-1.192,1.985c-.513-.211-.912-.48-.432-1.084a11.525,11.525,0,0,1,2.135-2.467c1.179-.821,1.644-2.108,2.514-3.112.065-.076-.1-.347-.191-.643-.995.458-1.93.875-2.849,1.318a1.033,1.033,0,0,0-.452.462c-.289.721-.337,1.474-1.083,2.063-.56.443-.714,1.4-1.149,2.349a7.889,7.889,0,0,1-.875-.736c-.641-.727-.341-1.872-1.105-2.562-.067-.063-.041-.33.035-.432,1.027-1.366,1.272-3.12,2.447-4.464a10.053,10.053,0,0,1,4.751-3.086,18.3,18.3,0,0,1,6.362-1.194c1.116.063,2.252-.53,3.4-.7,2.76-.4,5.537-.688,8.295-1.1,3.5-.525,6.972-1.214,10.477-1.678,3.757-.5,7.535-.823,11.3-1.214,2.76-.289,5.52-.578,8.282-.836.758-.069,1.526,0,2.286-.046,2.823-.176,5.643-.393,8.466-.556,1.2-.069,2.4-.013,3.6-.067,3.785-.174,7.567-.432,11.352-.547,5.15-.156,10.305-.284,15.458-.289,3.585,0,102.116-7.4,105.7-7.3,2.97.08,5.943.054,8.911.159,4.443.156,8.883.532,13.326.545a128.254,128.254,0,0,0,14.031-.245c4.523-.48,9.066-.767,13.6-1.1,3.885-.282,7.758-.7,11.645-.962,3.138-.211,6.284-.28,9.426-.447,2.471-.13,4.938-.339,7.409-.46,2.938-.145,5.88-.228,8.818-.356a24.583,24.583,0,0,1,2.571-.189c.684.041,1.464-.491,2.067.241.658-.6,1.461-.3,2.206-.354.76-.052,1.52-.08,2.28-.128s1.511-.126,2.269-.161,1.526-.009,2.286-.043c.81-.037,1.618-.119,2.428-.169a14.418,14.418,0,0,1,5.52.3c3.872,1.255,8.036,1.526,11.749-.141,1.746-.786,3.7-.4,5.415-.271a8.13,8.13,0,0,0,.721,1.429c.152.2.727.352.849.241,1.094-1.005,1.5.226,2.2.769-.686.208-1.37.419-2.339.717,1.1.148,1.262.756,1.075,1.542l2.7.189c-.072.945-.562,1.9-.039,2.864.083.154-.2.541-.369.786-.3.443-.628.8-.447,1.461a1.3,1.3,0,0,1-.634,1.057c-1.04.5-2.15.851-3.233,1.262l-.187-.258c-.376.686-.749,1.372-1.162,2.132.184.289.393.61.638.99a6.875,6.875,0,0,0-1.874,3.164,39.857,39.857,0,0,1-2.543,5.324c-.274.489-1.051.706-1.611,1.023-.332.187-.693.326-1.134.528l.423.56a6.527,6.527,0,0,0-.725,1.079c-.3.671-.79.775-1.448.821a2.929,2.929,0,0,0-1.82.5c-.767.862-1.735.78-2.662.984-.321.069-.823.367-.914.267-.556-.625-.953.185-1.476.1a9.731,9.731,0,0,0-2.193.182,9.479,9.479,0,0,1-2.021.106c-1.5-.193-2.647.771-4.006,1.073,8.9-.187,17.758.178,26.68.447-.226.979-.226.979.365,2.5.853-.454,1.461-.072,2.1.545.721.7,1.568,1.279,2.553,2.065-1.455.258-1.433,1.083-1.29,2.111.072.512-.308,1.088-.495,1.672.23.089.643.243,1.051.4-.271,1.064-.271,1.064-2.981,1.314-.169.408.623.806.043,1.277-.367.3-.538.827-.882,1.166-.547.541-1.164,1.01-2.017,1.733a5.2,5.2,0,0,0-3.624.91l1.051.747c-.256.389-.5.758-.755,1.151l.48.536c.332-.2.658-.545,1.016-.582a4.644,4.644,0,0,1,2.191.313c-.217.041-.528,0-.634.135a1.875,1.875,0,0,0-.432.94c-.022.252.217.525.363.832-.712.408-1.7.356-1.824,1.377.076-.261.15-.519.324-1.12l-1.19.934.864.182c-.508.206-.239,1.355-1.335.927.185.654.7,1.353-.28,1.676a4.753,4.753,0,0,1-1.183,2.276.9.9,0,0,1-.619.426c.148-.276.293-.552.458-.864-.977-.445-.743.647-1.112.925a.988.988,0,0,0-1-.208,11.366,11.366,0,0,1-4.124.139c-.942-.224-1.353.415-2.037.528a38.715,38.715,0,0,1-5.741.065c-.96.017-1.922,0-2.836,0-.148.641-.306,1.325-.5,2.182-1.494-1.016-2.614-.2-3.808.638.033-.167,0-.093.02-.085.248.159.5.308.91.554-.343.158-.58.267-.869.4a1.722,1.722,0,0,1,0,.38,2.092,2.092,0,0,1-.239.925c-.669.78-1.407,1.5-2.122,2.237-.866.141-.855.628-.495,1.253-.083.332-.165.664-.278,1.116-.328-.122-.586-.239-.856-.315a1.746,1.746,0,0,0-2.03.758c-.434.608-.979,1.277-1.683,1.264-.608-.011-1.238.686-1.954-.354l.178,1.01a29.924,29.924,0,0,0-3.159.706c-.958.319-2.082.2-2.864,1.081a1.77,1.77,0,0,1-1.14.3c-.7.026-1.418-.115-2.115-.046a17.9,17.9,0,0,0-2.293.558c.5-.686.862-1.173,1.344-1.826a17.672,17.672,0,0,0-2.48.02,31.045,31.045,0,0,1-4.688.217c-1.355-.007-1.47.172-1.6,1.5l-.152-1.136c-.532.065-1.025.113-1.511.189a2.764,2.764,0,0,0-.523.219l1.01.74a14.435,14.435,0,0,1-4.753.476v-.5l-1.718.786-.228-.213c.493-.456,1.146-.864.565-1.8l-.274.864c-1.978.072-3.952.011-5.923.18-1.146.1-2.306.065-3.459.07-2.262.007-4.527-.08-6.783.011-2.849.117-5.691.4-8.538.556-1.238.07-2.482,0-3.722.026-.185,0-.369.208-.547.328-.063.041-.135.163-.165.152-1.138-.445-1.138-.447-2.017-.074l.823.515c-1.1.191-2.024.352-2.907.508-.311.968.552.326.717.617-.041.082-.076.234-.124.239q-2.459.2-4.92.363a8,8,0,0,1-2.091-.367,12.827,12.827,0,0,0-3.109.1c-.243.015-.484.076-.782.126-.061-.358-.109-.636-.156-.916l-.515.489-.419-.282a2.135,2.135,0,0,0-2.039.608l.043.02v-.58c-.78.109-1.45.187-2.119.3-.6.1-1.494-.393-1.678.864.773-.087,1.45-.163,2.126-.241l-.6,1.3c-.289-.465-.886.463-1.123-.248l-.8.6c-.072-.469-.128-.829-.2-1.29-.224.523-.4.938-.578,1.353.007-.6.358-1.1-.165-1.7a3.059,3.059,0,0,0-1.5-.905c-.515-.161-1.042-.284-1.57-.4-.5-.113-.994-.478-1.474.182-.167.23-.717.187-1.09.269s-.727.165-1.109.252l-.083-.443c-1.107.36-2.091,1.1-3.346,1.016a10.026,10.026,0,0,0-2.378.53c-.334.059-.888-.415-1.138.352-.074.219-95.838,7.85-96.318,7.921-.549.08-1.1.152-1.655.191-.628.046-1.327.328-1.707-.543-.054-.126-.582-.172-.817-.076-1.283.53-2.549,1.057-3.917.263-.137.677-1.131-.371-1.194.584-.006.091-.636.145-.977.2-1.118.187-2.237.38-3.359.539a13.3,13.3,0,0,1-1.689.119,26.393,26.393,0,0,1-3.939.208,19.914,19.914,0,0,0-4.788.467c-.754.093-1.5.228-2.6.4l.834.428c-.046.074-.08.2-.141.213-.68.165-1.383.261-2.043.482a10.2,10.2,0,0,0-1.457.738c-.36-.775-.866-.575-1.4-.208h-2.412l1.576,1.051-3.268.3c.006-.68.006-.68,1.264-.8-.265-.606-.56-.76-1.275-.669-1.431.182-2.892.117-4.341.187a4.766,4.766,0,0,0-.949.243l-.076-.428c-.458.358-.99.747-1.485,1.179a9.352,9.352,0,0,0-.792.886l-.447-.493-.1.682a26.151,26.151,0,0,0-2.981.7c-.94.332-2.234-.141-2.721,1.485-.172-.486-.228-.651-.369-1.053A1.415,1.415,0,0,1,544.8,222.7a1.1,1.1,0,0,0-.423.035,5.336,5.336,0,0,1-3.88.393c.119-.235.239-.471.534-1.051-1.159.358-1.989.614-2.818.873l0,0c-.02.68-.287.588-.747.3-.595-.378-1.012-.252-.988.68l-1.038-.534a2.257,2.257,0,0,1-1.7.962,12.937,12.937,0,0,0-3.175.821,2.679,2.679,0,0,0-.819.367c-1.162.84-1.17.771-3,1.14-.617.126-1.134.749-1.7,1.144l.1-.067c-.879-.291-.99-.447-.6-1a2.078,2.078,0,0,1,.84-.819c.927-.317.977-.968.856-1.744.5.554.908.25,1.585-.334-.691.365-1.227-.371-1.555.376l-.608-.743,1.335-.888-.078-.224c-.558.063-1.118.124-1.781.2l.3-1.14c-2.074.324-4.008,1.464-6.217.284-.717.714-2.084,0-2.9.979-.793-.625-1.672.252-2.558-.191a4.761,4.761,0,0,0-1.982-.052l.584-.51c-.91.109-1.711.1-2.241-.916l2.569-.884a1.4,1.4,0,0,1-1.227-1.464c-.017-.7.513-.582.942-.632l.534-1.585a13.956,13.956,0,0,1-1.6-1.3c-.743-.786-1.57.224-2.365-.265-.271-.586-.4-1.105.463-1.524a2,2,0,0,0,.827-1.318q-.863.453-1.724.9l-.135-.187.517-.836c-1.016-.332-1.188-.2-1.379,1.29-.1-1.034-.352-1.507-1.183-1.238-1.34.432-2.857.117-4,.981l.515,1.351c-1.07.528-2.247.365-2.816,1.262-.638-.035-1.22-.054-1.8-.1-.686-.059-1.507.369-1.978-.571-.054-.111-.552,0-.845.009l0,0c.2-.117.4-.237.686-.406l-.812-.851c-1.5,1.526-3.383,1-5.144,1.075a3.478,3.478,0,0,1,2.673-1.238c.419.022,1.04-.619,1.283-1.1a5.5,5.5,0,0,1,2.87-2.4,7.667,7.667,0,0,1,1.976-.337c-.054-.621-.106-1.225-.152-1.752h-3.411l-.052-.237a7.881,7.881,0,0,1,1.272-.408c.376-.056.174-1.047.851-.489.05-.267.237-.632.126-.784a5.838,5.838,0,0,0-1.008-.9c.222-.465.426-.9.656-1.379-.625-.337-1.162-.606-1.183-1.435-.009-.371-.584-.727-1.016-1.22l1.2-1.576c-.158-.4-.4-1.016-.684-1.718-.452-.161-1.257,0-1.379-.971,1.522.248,2.128-1.16,3.357-1.748-1.555-1.133-2.829.415-4.191.119-.337-1.023,1.244-.5,1.094-1.411-.73.154-1.459.308-2.184.456.354-1.24,1.466-.827,2.28-1.057l.141-.011h.143a4.5,4.5,0,0,0,.962-2.215c-.475.063-.764.093-1.049.141-.971.163-1.861.751-2.845.714a2.334,2.334,0,0,0-1.82.647,2.764,2.764,0,0,0,.154.491,18.378,18.378,0,0,0,1.763.949,1.278,1.278,0,0,1,.28.324.863.863,0,0,1,.667,1.212l-1.453.185.317-1.133h-1.051l.23.727-1.2.291c-.167-.311-.354-.654-.6-1.107-.775.4-1.52.78-2.256,1.173a1.377,1.377,0,0,0,.087.265l.043-.03c-.975-.654-1.885.135-2.825.189-.66.039-1.288.628-2.072,1.044H483.5l.035.263-4.655,1.031c-.508-.842.135-1.129.415-1.67l-1.511-.2c-.356.986-1.841.432-2.33,1.381l-3.713-.243c.2-.345.334-.762.441-.753,1.1.087,2.176-1,3.281-.115-.083-.476,1.064-.458.547-1.183.2.072.4.143.6.213.12-.389.087-.693-.4-.753-.054-.773.53-.3.8-.434s.467-.447.719-.654a5.6,5.6,0,0,1,.766-.413l-.951-.208v-2.491c.473-.063,1.09-.124,1.7-.237.185-.035.341-.215.5-.332.5-.293,1.016-.578,1.526-.864l0-.163c-.643.1-1.283.2-2.071.324l.595.727c-.63-.4-1.272-.79-1.883-1.225a2.064,2.064,0,0,1-.478-.625c-.148-.239-.2-.636-.406-.725-.636-.278-.389-.749-.343-1.168.061-.549.174-1.094.276-1.713,1.629-.261,1.928-1.613,2.13-3.031q-.814-.085-1.629-.174l-.011-.187c.263-.074.526-.15.79-.226l.052-.215-2.575-.5c.35-.458-.046-1.255.827-1.474l-.258-.869a17.2,17.2,0,0,1,3-.847,2.521,2.521,0,0,0,2.132-1.613l-.942-.061-.128-1.7c-.254.065-.643.232-.691.163a2.861,2.861,0,0,1-.256-.862c-.6-.052-1.407.119-1.791-.743-.041-.089-.074-.241-.132-.254-1.453-.3-1.807-1.585-2.493-2.669a2.7,2.7,0,0,1,2.517-1.214c.087-.675.167-1.307.274-2.156,1.794-.347,3.674-.725,5.559-1.077,3.387-.63,6.781-1.238,10.169-1.872a2.182,2.182,0,0,0,1.956-1.585,11.7,11.7,0,0,1,1.205-2.189c-.182-.111-.549-.332-.916-.552l1.891.261c-.4-.578-.623-1.173-.843-1.17C496.3,157.97,495.628,158.081,495.773,158.908Zm1.848-6.106c-.688-.908-.688-.908-1.281,0l-.773-.046-.041.254c.323.1.645.191,1.166.347-.241-.358-.324-.482-.408-.606.432-.076.862.628,1.3,0,.91.278.469-.274.234-.654Zm286.344-18.6a13.652,13.652,0,0,0,6.729-.491C788.219,133.892,786.093,134.048,783.965,134.2ZM595.62,211.733c.313.575,95.654-7.189,96.086-7.244s1.218-.013,1.238.1c.156.86.775-.261,1.031.278.067.139.315.022.595-.775C693.251,204.09,596.962,211.733,595.62,211.733Zm221.95-31.848c-2.347-.9-2.467-.9-3.025,0ZM509.4,214.118c1.683.232,2.15.048,2.21-.78A2.691,2.691,0,0,0,509.4,214.118Zm-23.527-21.112c.267.971.988.621,1.444.656.523.037.595-.363.449-.84Zm305.2-59.272.017.256,2.467-.2-.024-.261Zm-16.446,66.694.1.426q1.058-.176,2.119-.354l-.041-.293Zm37.656-21.145-.161.289c.439.632,1.086.256,1.687.135Zm-243.963,37.81.031-.408c-.432.024-.862.05-1.294.076l0,.093ZM809.926,155.76l.176.145.814-.936-.241-.235Zm-236.1,59.476c-.445-.61-.756-.447-1.044-.119-.041.048,0,.172.013.293Zm-5.835.51-.019-.319c-.415.033-.827.065-1.242.1l.022.284Zm-79.937-22.628.313.217.43-.671a2.331,2.331,0,0,0-.356-.187A6.765,6.765,0,0,0,488.054,193.118Zm332.838-29.939-.143-.23-.849.532.135.2C820.321,163.512,820.6,163.344,820.892,163.179Zm-95.428,37.606-.011-.41-1.177.059,0,.252C724.669,200.718,725.066,200.751,725.464,200.785Zm-148.353,13.79-.017-.228h-1.186l.02.228Zm-5.8.84.028-.187a8.575,8.575,0,0,0-.936-.156,1.252,1.252,0,0,0-.432.15l.039.193Zm248.651-83.909.052.074h.931l-.006-.074Zm-4.234,51.759c-.2-.614-.2-.614-1.081-.217Zm-22.2-53.055-.135.2c.189.1.378.2.573.287l.122-.23Z" transform="translate(0)" fill="#3d8b25"/>
    <path id="Path_5633" data-name="Path 5633" d="M594.386,163.535a29.361,29.361,0,0,0,3.162-.33c.975-.2,1.891.324,3.075-.035-.908,1.312-2.139,1.025-3.207,1.246-1.188.25-1.939-.847-3.1-.532Z" transform="translate(143.587 39.887)" fill="#3d8b25"/>
    <path id="Path_5634" data-name="Path 5634" d="M584.281,163.8l.419.282c-.284.569-.571,1.138-.851,1.7a1.646,1.646,0,0,1-2.386-.973c.493.339.615-.113.823-.38l-.043-.02c.4.656.855.324,1.275.043A8.309,8.309,0,0,0,584.281,163.8Z" transform="translate(128.53 40.636)" fill="#3d8b25"/>
    <path id="Path_5635" data-name="Path 5635" d="M595.495,163.54c-.091.165-.163.46-.274.476-.736.1-1.481.15-2.221.215l-.05-.334,2.378-.641Z" transform="translate(141.985 40.003)" fill="#3d8b25"/>
    <path id="Path_5636" data-name="Path 5636" d="M598.563,163.177c-.052,1.236-.751.717-1.251.79C597.229,162.489,598.087,163.392,598.563,163.177Z" transform="translate(147.088 39.817)" fill="#3d8b25"/>
    <path id="Path_5637" data-name="Path 5637" d="M502.356,172.325l0,0,2.334.176c-.471.1-.944.185-1.411.3A.681.681,0,0,1,502.356,172.325Z" transform="translate(35.863 50.624)" fill="#3d8b25"/>
    <path id="Path_5638" data-name="Path 5638" d="M496.128,173.869l-1.65.664C494.658,173.435,495.3,173.882,496.128,173.869Z" transform="translate(26.637 52.341)" fill="#3d8b25"/>
    <path id="Path_5639" data-name="Path 5639" d="M511.213,170.726c-.258.949-1.073.387-1.594.621a1.553,1.553,0,0,1,1.607-.575Z" transform="translate(44.373 48.735)" fill="#3d8b25"/>
    <path id="Path_5640" data-name="Path 5640" d="M474.525,159.687l-1.555.341-.074-.228,1.526-.591.091.482Z" transform="translate(1.356 35.262)" fill="#3d8b25"/>
    <path id="Path_5641" data-name="Path 5641" d="M478.994,159.835l1.051.091,0,.276-1.44.208c.208-.3.313-.447.423-.6Z" transform="translate(8.05 35.965)" fill="#3d8b25"/>
    <path id="Path_5642" data-name="Path 5642" d="M511.912,171.544l-.708-.845C512.042,170.6,512.042,170.6,511.912,171.544Z" transform="translate(46.23 48.673)" fill="#3d8b25"/>
    <path id="Path_5643" data-name="Path 5643" d="M519.019,169.445l.895-.145.032.111-.836.341Z" transform="translate(55.384 47.082)" fill="#3d8b25"/>
    <path id="Path_5644" data-name="Path 5644" d="M496.395,174.557l-.1.067c.293-.03.588-.061.94-.1C496.712,174.908,496.712,174.908,496.395,174.557Z" transform="translate(28.765 53.202)" fill="#3d8b25"/>
    <path id="Path_5645" data-name="Path 5645" d="M483.083,168.625l.428.619-1.142.224c-.026-.145-.085-.282-.052-.308a1.161,1.161,0,0,1,.4-.219,1.877,1.877,0,0,1,.43-.035c-.02-.091-.037-.185-.061-.278Z" transform="translate(12.38 46.292)" fill="#3d8b25"/>
    <path id="Path_5646" data-name="Path 5646" d="M489.385,169.714l1.14-.4.039.111q-.544.176-1.088.356Z" transform="translate(20.671 47.096)" fill="#3d8b25"/>
    <path id="Path_5647" data-name="Path 5647" d="M485.082,169.38l-1.155-.106.017-.248,1.142.059Z" transform="translate(14.278 46.761)" fill="#3d8b25"/>
    <path id="Path_5648" data-name="Path 5648" d="M488.085,169.351l1.008-.235.05.256-1.036.111Z" transform="translate(19.149 46.867)" fill="#3d8b25"/>
    <path id="Path_5649" data-name="Path 5649" d="M623.055,157.169l-1.077-.067.006-.185h1.1Z" transform="translate(175.988 32.577)" fill="#3d8b25"/>
    <path id="Path_5650" data-name="Path 5650" d="M520.5,169.79l.328,1.034C520.007,170.711,520.294,170.355,520.5,169.79Z" transform="translate(56.858 47.656)" fill="#3d8b25"/>
    <path id="Path_5651" data-name="Path 5651" d="M474.391,153.794c.041.3.08.606.12.908l-.12.022-.208-.892Z" transform="translate(2.864 28.919)" fill="#3d8b25"/>
    <path id="Path_5652" data-name="Path 5652" d="M598.049,163.295l.892-.137.037.315-.9.08Z" transform="translate(147.958 39.888)" fill="#3d8b25"/>
    <path id="Path_5653" data-name="Path 5653" d="M514.532,171c-.078-.219-.182-.363-.15-.454s.206-.132.317-.193c.039.085.13.185.111.252A1.816,1.816,0,0,1,514.532,171Z" transform="translate(49.946 48.318)" fill="#3d8b25"/>
    <path id="Path_5654" data-name="Path 5654" d="M510.353,170.856l.013.046q.625-.153,1.249-.3C511.1,171.067,511.1,171.067,510.353,170.856Z" transform="translate(45.233 48.605)" fill="#3d8b25"/>
    <path id="Path_5655" data-name="Path 5655" d="M473.526,157.917l.855-.3.091.167a1.678,1.678,0,0,1-.376.267,2.317,2.317,0,0,1-.523.065Z" transform="translate(2.094 33.395)" fill="#3d8b25"/>
    <path id="Path_5656" data-name="Path 5656" d="M472.4,155.063l.091-.762.241.017v.78Z" transform="translate(0.779 29.513)" fill="#3d8b25"/>
    <path id="Path_5657" data-name="Path 5657" d="M581.416,164.286l.33,0c-.072.391-.146.784-.217,1.177l-.389-.08Z" transform="translate(128.151 41.209)" fill="#3d8b25"/>
    <path id="Path_5658" data-name="Path 5658" d="M482.254,159.154q.143-.511.287-1.027l.33.082c-.111.313-.221.623-.332.934H482.4Z" transform="translate(12.318 33.995)" fill="#3d8b25"/>
  </g>
</svg>
