<svg xmlns="http://www.w3.org/2000/svg" xmlns:xlink="http://www.w3.org/1999/xlink" width="746" height="1203" viewBox="0 0 746 1203">
  <defs>
    <clipPath id="clip-Artboard_1">
      <rect width="746" height="1203"/>
    </clipPath>
  </defs>
  <g id="Artboard_1" data-name="Artboard – 1" clip-path="url(#clip-Artboard_1)">
    <rect width="746" height="1203" fill="#fff"/>
    <g id="Group_1040" data-name="Group 1040" transform="translate(-129.077 559.416) rotate(-51)" opacity="0.27">
      <path id="Path_5659" data-name="Path 5659" d="M999.021,65.269c-4.451.918-7.461,3.7-11.482,5.356-4.084,1.675-8.589,1.809-12.83,4.142-70.146,38.6-95.744,59.439-127.176,120.432-26.05,50.541-18.562,41.974-56.138,90.132-8.24,10.56-16.278,21.271-22.884,32.95-13.036,23.031-34.863,40.523-53.277,59.318,48.651-87.849,24.885-120.6,40.38-164.108,10.788-30.286,25.906-55.068,30.9-77.517,2.978-13.39,2.3-20.179,1.742-19.861.193-.09-1.048,1.755-.233.77-1.375,3.471-2.723.739-5.808,1.9-2.723,1.021-5.177,4.724-7.031,6.789C764.02,138,747.616,154.56,725.386,184.1c-19.928,26.484-44.925,50.4-58.691,80.921C640.9,322.2,649.736,383.968,650.282,421.379c.125,8.562,1.993,16.959,2.311,25.423.354,9.413,2.651-6.829-88.068,114.588,15.056-60.111,21.9-79.085,13.627-116.984-9.87-45.234-16.2-62.068-10.349-119.483,2.109-20.662,6.269-41.181,7.743-61.893.613-8.629-1.482-18.262.269-26.506,1.532-7.2,9.033-19.413,6.09-26.968-3.43-8.809-10.349-1.85-12.275,3.283-10.564,28.177-25.311,56.756-37.554,80.424-27.756,53.644-34.894,68.507-29.708,124.61-13.439-72.479-33.071-76.51-52.234-135.546-2.391-7.376-2.79-24.715-13.018-25.23-12.615-.631-8.746,18.159-7.971,25.75,5.924,58.028,18.929,56.756,12.3,122.331-2.759,27.308-6.314,33.963-10.027,51.566-7.214,34.227-7.913,75.52-1.474,109.6C434.1,588.357,439,600.3,446.919,616.8c3.739,7.792,6.059,29.31,15.539,51.642,11.4,26.856,15.58,18.011,17.411,34.733.5,4.545-.049,2.364-6.717,21.307-3.157,8.97-6.135,18.858-9.185,27.295-8.733,24.787-19.3,48.9-27.366,73.917-6.843-22.319-4.021-9.646-4.814-36.82-3.52-120.812-52.865-170.959-35.275-300.164,2.284-16.793,1.254-44.576,3.26-43.277-.878-.6-1.926,1.182-2.293,1.675,1.308-5,6.887-22.073-4.693-19.552-7.465,1.626-8.943,16.619-10.739,22.718-14.594,49.569-20.34,72.193-26.112,126.227-2.2,20.6-7.017,40.666-11.24,60.9C333,693.428,348.345,772.8,370.23,824.98c15.244,36.341,29.072,90.518,35.1,113.464,1.406,5.347,4.671,11.679,5.042,17.151.5,7.429-4.25,12.767-2.074,31.432.242,2.073,5.773,26.994,9,24.858a5.347,5.347,0,0,1-.229-.963c-1.388-6.726,6.982-15.781,12.593-39.291,7.51-31.45,5.925-32.471,7.9-35.3,2.132-3.054,5.687-4.053,7.591-7.909,2.727-5.517,1.084-11.818,3.184-17.133.891-2.253,4.877-4.568,6.86-6.31,52.74-46.331,89.071-54.5,127.208-85.157,25.082-20.161,46.085-45.328,69.036-67.8,55.5-54.334,72.883-90.894,79.233-97.49,16.789-17.434,24.755-19.4,27.854-25.9,2.091-4.393-.081-9.315-5.065-10.071-4.966-.757-10.855,3.35-15.011,5.566-57.334,30.626-77.706,53.237-131.865,78.874-54.437,25.768-83.514,30.635-136.777,113.168,41.835-102.3,40.662-109.8,77.809-169.047,4.205-6.708,4.044.228,35.087-6.955,46.837-10.842,54.37-14.438,67.715-21.061,37.147-18.405,22.5-14.12,56.609-29.323,24.885-11.088,42.959-18.275,60.93-37.276,4.787-5.065,17.819-12.225,34.791-26.48,25.356-21.294,41.275-29.775,70.706-54.5,5.553-4.666,18.759-12.042,15.024-20.949-6.973-16.636-24.751,8.589-102.824,36.3-72.3,25.66-125.3,21.8-183.055,74.15,19.484-27.192,38.432-54.6,59.529-80.581,50.711-62.462,28.692-45.1,46.13-48.234,18.217-3.274,72.8-36.591,104.091-47.84,14.088-5.065,28.235-10.8,40.877-18.9,19.359-12.409,52.345-41.356,69.976-65.176,8.213-11.1,14.895-21.943,21.513-32.274,12.969-20.255,19.019-26.368,24.863-38.271,3.6-7.34,14.464-14.393,6.381-23.546a11.389,11.389,0,0,0-11.639-3.175c-1.926.618-2.982,1.944-4.608,2.942-6,3.7-10.685-2.467-31.947,21.527-39.148,44.173-55.019,80.54-175.563,144.108,18.835-19.937,36.148-41.526,57.527-58.8,46.519-37.6,81.4-62.945,113.876-112.523C961.225,142.849,980.15,127,989.931,94.83c1.518-5,5.065-9.467,5.038-14.742C994.96,78,995.672,65.959,999.021,65.269ZM385.877,622.225c7.219,35.946,21.88,93.384,24.661,114.458C401.125,698.672,390.8,661.163,385.877,622.225Zm140.911,199.1c32.758-36,61.8-47.9,122.555-93.169-24.12,22.763-47.294,46.618-71.62,69.125-24.209,22.4-53.77,36.529-80.545,55.3C507.352,842.445,517.119,831.952,526.788,821.33ZM556.2,479.447c-1.532-40.335-18.58-63.344-4.1-132.192,1.7-8.061,2.185-18.7,6.041-25.969-13,105.627,20.743,120.938,10.685,169.8C564.14,512.4,558.453,533.745,552.9,554.95,551.888,524.816,557.239,506.89,556.2,479.447Zm-52.072-22.463c2.938-38.571-6.3-30.635,19.543,72.126,2.467,9.812,6.372,20.21,6.807,30.313.4,9.252.681,19.686,3.569,28.566,6.619,20.327,18.029-17.245-33.752,77.213-4.845-16.811-9.14-33.77-14.075-50.554-2.436-8.289-6.01-17.237-6.319-25.893C478.132,539.67,500.81,500.459,504.124,456.985ZM473.4,383.027c-1.836-1.133-2.669-7.331-3.282-9.471A95.7,95.7,0,0,1,473.4,383.027Zm147.4,179.911c43.12-29.341,75.39-33.3,100.123-39.206,59.636-14.236,49.426-15.472,20.734-.672-22.431,11.227-45.749,22.4-69.806,31.3-26.668,9.857-52.507,21.831-79.367,31.159A240.127,240.127,0,0,1,620.794,562.939Zm72.954-214.424c1.635-12.794,2.508-25.893,5.867-38.391,6.919-25.75,21.2-49.148,32.167-73.29-1.841,13.058-.211,26.26-.846,39.381-2.468,51.127-24.142,83.639-44.151,122.537C687.245,396.287,693.542,350.135,693.748,348.514ZM839.4,250.455c26.188-37.465,45.113-85.4,93.2-120.7C899.046,168.818,883.6,199.306,839.4,250.455Zm31.8-8.428c23.475-30.125,52.91-78.632,73-102.1C908.705,190.542,904.59,208.746,871.2,242.027Z" transform="translate(-340.665 -65.269)" fill="#e0dfca"/>
    </g>
  </g>
</svg>
