<svg xmlns="http://www.w3.org/2000/svg" width="44.916" height="39.888" viewBox="0 0 44.916 39.888">
  <g id="Group_494" data-name="Group 494" transform="translate(0 0)">
    <path id="Path_2243" data-name="Path 2243" d="M88.772,131.661H119.3a.779.779,0,0,0,.779-.778V114.772h2.73a.778.778,0,0,0,.747-1l-3.682-12.629a.779.779,0,0,0-.473-.511L104.5,95.015a.777.777,0,0,0-.549,0l-14.908,5.62a.778.778,0,0,0-.473.511l-3.682,12.629a.779.779,0,0,0,.748,1h2.36v16.111A.779.779,0,0,0,88.772,131.661Zm21.075-2.541-4.757-4.333,4.757-4.334Zm-1.232.984H99.253l4.681-4.264Zm-4.681-6.371-4.681-4.264h9.362Zm-1.156,1.053-4.757,4.333v-8.667Z" transform="translate(-81.765 -91.773)" fill="#fff"/>
    <path id="Path_2244" data-name="Path 2244" d="M128.493,119.169h-2.47a.78.78,0,0,0-.779.779v16.111h-7.121V124.646c0-.017,0-.034,0-.051a.583.583,0,0,0-.011-.085c0-.023-.011-.047-.017-.07a.433.433,0,0,0-.023-.075.418.418,0,0,0-.032-.07.6.6,0,0,0-.034-.064c-.017-.026-.034-.047-.051-.07s-.019-.028-.03-.04-.011-.006-.015-.011a.559.559,0,0,0-.064-.057c-.017-.015-.034-.03-.051-.043a.719.719,0,0,0-.068-.04.467.467,0,0,0-.064-.034c-.023-.011-.047-.017-.07-.026a.762.762,0,0,0-.075-.023c-.021,0-.045-.006-.066-.009a.606.606,0,0,0-.087-.009l-.017,0H103.96l-.017,0a.606.606,0,0,0-.087.009c-.021,0-.045,0-.066.009s-.051.015-.077.023-.045.015-.068.026a.466.466,0,0,0-.064.034.718.718,0,0,0-.068.04l-.053.043a.8.8,0,0,0-.062.057s-.011.006-.015.011-.019.028-.03.043-.034.043-.051.068a.606.606,0,0,0-.034.064.713.713,0,0,0-.034.07.76.76,0,0,0-.021.075c-.006.023-.015.047-.019.07s-.006.057-.008.085,0,.034,0,.051v11.413H96.269V119.948a.78.78,0,0,0-.779-.779h-2.1l3.281-11.26,14.269-5.379,14.271,5.379Z" transform="translate(-88.483 -97.728)" fill="#fff"/>
    <path id="Path_2245" data-name="Path 2245" d="M70.907,102.945a.779.779,0,0,0,.965-.53l4.237-14.533L92.8,81.588,109.5,87.882l4.237,14.533a.779.779,0,1,0,1.5-.436l-4.346-14.906a.779.779,0,0,0-.473-.511L93.079,80.027a.78.78,0,0,0-.549,0L75.2,86.562a.779.779,0,0,0-.473.511l-4.346,14.906A.778.778,0,0,0,70.907,102.945Z" transform="translate(-70.346 -79.977)" fill="#f7f7f7"/>
    <path id="Path_2246" data-name="Path 2246" d="M158.617,124.076h6.1a.779.779,0,0,0,.779-.779v-4.5a.779.779,0,0,0-.476-.718l-3.049-1.286a.779.779,0,0,0-.605,0l-3.049,1.286a.779.779,0,0,0-.476.718v4.5A.779.779,0,0,0,158.617,124.076Zm.779-4.765,2.271-.958,2.271.958v3.208H159.4Z" transform="translate(-139.208 -108.904)" fill="#fff"/>
  </g>
</svg>
