<svg xmlns="http://www.w3.org/2000/svg" width="39.434" height="37.778" viewBox="0 0 39.434 37.778">
  <g id="Icon_feather-shopping-cart" data-name="Icon feather-shopping-cart" transform="translate(1.5 1.5)">
    <path id="Path_3" data-name="Path 3" d="M15.312,31.656A1.656,1.656,0,1,1,13.656,30,1.656,1.656,0,0,1,15.312,31.656Z" transform="translate(-0.407 1.465)" fill="none" stroke="#754d00" stroke-linecap="round" stroke-linejoin="round" stroke-width="3"/>
    <path id="Path_4" data-name="Path 4" d="M31.812,31.656A1.656,1.656,0,1,1,30.156,30,1.656,1.656,0,0,1,31.812,31.656Z" transform="translate(1.309 1.465)" fill="none" stroke="#754d00" stroke-linecap="round" stroke-linejoin="round" stroke-width="3"/>
    <path id="Path_5" data-name="Path 5" d="M1.5,1.5H8.124l4.438,22.175a3.312,3.312,0,0,0,3.312,2.666h16.1a3.312,3.312,0,0,0,3.312-2.666L37.934,9.78H9.78" transform="translate(-1.5 -1.5)" fill="none" stroke="#754d00" stroke-linecap="round" stroke-linejoin="round" stroke-width="3"/>
  </g>
</svg>
