<svg xmlns="http://www.w3.org/2000/svg" width="42.408" height="41.722" viewBox="0 0 42.408 41.722">
  <g id="Group_7" data-name="Group 7" transform="translate(0 0)">
    <g id="Group_3" data-name="Group 3" transform="translate(0)">
      <path id="Path_17" data-name="Path 17" d="M-278.63,924.316l4.077,11H-281.4V923.2Z" transform="translate(316.961 -893.592)" fill="#754d00"/>
      <path id="Path_18" data-name="Path 18" d="M-391.736,793.553c.646,0,1.13.339,1.13.642s-.484.642-1.13.642H-419.28c-.646,0-1.13-.339-1.13-.642s.484-.642,1.13-.642h3.4l.074-.64c.581-5.153,2.134-10.352,4.29-10.352a2.835,2.835,0,0,1,1.692.766,8.249,8.249,0,0,0,4.3,1.684h.055a7.811,7.811,0,0,0,4.085-1.69,2.783,2.783,0,0,1,1.686-.791c2.126,0,3.683,5.216,4.283,10.385l.076.638Z" transform="translate(426.712 -782.53)" fill="#754d00"/>
      <path id="Path_19" data-name="Path 19" d="M-384.889,962.41v3.86H-410.65v-3.86h25.761Z" transform="translate(419.006 -924.549)" fill="#754d00"/>
      <path id="Path_20" data-name="Path 20" d="M-294.1,918.08v6.838h-1.558V917.45Z" transform="translate(328.219 -889.052)" fill="#754d00"/>
      <path id="Path_21" data-name="Path 21" d="M-376.632,910.735v8.6H-396.39v-8.628l1.339-.539.9-.352c.692,4.359,6.916,7.611,7.2,7.756l.33.168.331-.168c.282-.145,6.63-3.465,7.213-7.893l.7.347Z" transform="translate(407.748 -882.917)" fill="#754d00"/>
      <path id="Path_22" data-name="Path 22" d="M-372.9,847.86v5.572a12.565,12.565,0,0,1-1.41,4.222,7.61,7.61,0,0,1-7.057,4.161,7.64,7.64,0,0,1-6.807-4.144,14.494,14.494,0,0,1-1.661-4.266V847.86Z" transform="translate(402.576 -834.109)" fill="#754d00"/>
      <path id="Path_23" data-name="Path 23" d="M-366.888,909.745a9.057,9.057,0,0,1-3,3.964,21.016,21.016,0,0,1-2.993,2.06,21.131,21.131,0,0,1-2.993-2.06c-1.3-1.088-2.829-2.7-3.107-4.458a8.684,8.684,0,0,0,6.182,2.477A9.15,9.15,0,0,0-366.888,909.745Z" transform="translate(394.002 -882.578)" fill="#754d00"/>
      <path id="Path_24" data-name="Path 24" d="M-409.09,917.32v8.047h-1.56v-7.417Z" transform="translate(419.006 -888.949)" fill="#754d00"/>
      <path id="Path_25" data-name="Path 25" d="M-443.438,931.35v3.86h-6.912l4.077-11,2.835-1.143v8.28Z" transform="translate(450.35 -893.489)" fill="#754d00"/>
    </g>
  </g>
</svg>
