<?xml version="1.0" encoding="utf-8"?>
<!-- Generator: Adobe Illustrator 21.1.0, SVG Export Plug-In . SVG Version: 6.00 Build 0)  -->
<svg version="1.1" id="圖層_1" xmlns="http://www.w3.org/2000/svg" xmlns:xlink="http://www.w3.org/1999/xlink" x="0px" y="0px"
	 viewBox="0 0 132.8 110.9" style="enable-background:new 0 0 132.8 110.9;" xml:space="preserve">
<style type="text/css">
	.st0{fill:#FFBC53;}
	.st1{fill:#FF5B3B;}
	.st2{fill:#91C359;}
	.st3{fill:#FFFFFF;}
</style>
<g>
	<g>
		<path class="st0" d="M38.1,42.5C32.8,41,28,41.2,26.2,42.2l0,0c0,0-2.3,1.3-5.1,0.8c-0.2,0-0.3,0-0.5-0.2c-2.5-0.5-3-0.5-5.5,0.7
			c-2.8,1.5-2.6,5.3-2.6,6.5c0.2,1.7-0.8,3-1,3.1c-5,6.5-6.8,11.1-6.3,16.4c0.7,5.6,4.1,11.8,9.4,19.9c2.6,4,6,6.6,9.9,8.1
			c3.1,1.2,6.8,1.5,10.8,1c7.8-1,13.7-4.8,13.7-4.8c1-0.7,1.8-0.7,2.8-0.5c1,0,2,0.2,3-0.8l0.2-0.2c0.2-0.2,0.3-0.2,0.3-0.5
			c0.3-0.5,0.3-1.2,0.3-3.3c0-0.8,0.8-2.3,1.7-4c1.7-2.8,4-6.8,4.3-11.8c0.3-2.6,0-5.5-1-8.3c-1-3.3-2.8-6.6-5.5-9.9
			C49.7,47,42.9,43.9,38.1,42.5z"/>
	</g>
	<path class="st1" d="M94.7,28.8c-0.2-2.2-0.8-4.1-1.7-6.1c-0.7-1.8-1.3-3.5-2.5-5c-1-1.5-2.3-2.6-3.6-3.6c-1.8-1.2-3.8-2-5.8-2.6
		c-1.3-0.3-2.6-0.7-4-1c1.3-0.3,3-0.8,3.1-1.2c0,0,0-0.2-0.2-0.2c-0.8-0.5-4.3,0-5,0c0.5-0.5,2.5-2.8,2.2-3.1l-0.2-0.2
		c-0.8,0-3.3,2.3-3.6,2.6c-0.2-0.3-1.2-3-2.2-3.5c-0.2,0-0.3,0-0.3,0c-0.2,0.2-0.2,0.7,0,1.8c0,0.7,0.2,1.2,0.2,1.3
		c-0.5-0.2-3.3-1.2-4-0.7v0.2c0,0.3,0.7,0.7,1.8,1.2c0.7,0.3,1.3,0.5,1.7,0.7h-0.2c-1.3-0.2-2.8-0.3-4.1-0.5l0,0l0,0
		c-0.8,0-1.7,0.2-2.5,0.2c-1.8,0.3-3.6,0.7-5.5,1.5c-2.2,1.2-4,2.5-5.5,4.3c-0.8,1-1.5,2.2-2,3.5c-0.5,1.3-0.7,2.6-0.8,4
		c-0.3,2.3-0.7,4.6-0.8,7c-0.2,2.5-0.2,4.8,0,7.3c0.3,2.3,0.8,4.6,1.7,6.8c1,2.2,2.3,4.1,4.1,5.6c2.2,1.8,4.6,3.1,7.3,4
		c3.1,1,6.6,1.5,9.9,1.5c2.8,0,5.8-0.7,8.4-1.8c2.3-1,4.6-2.5,6.5-4.3c1.8-1.8,3.3-3.8,4.5-6c1.2-2.2,2-4.5,2.5-6.8
		C94.7,33.3,94.9,30.9,94.7,28.8z"/>
	<g>
		<path class="st2" d="M62.4,91.4c0.5-0.8,1.3-1.5,2.2-1.8c2.5-1,4.8-2.3,7.1-3.6C80,81.1,87.1,74.8,93,67.2
			c1.2-1.5,2.3-3.1,3.3-4.8c3.1-4.6,5.5-9.8,7.1-15.2c0.8-2.6,1.5-5.5,1.8-8.3c0.5-2.8,0.7-5.6,0.8-8.4c0.2-3.6,0.5-7.5,1.5-11.1
			c0.3-1.3,1-3,2.2-3.6c0.5-0.3,0.8-0.5,1.3-0.5c1.3-0.3,2.5,0.7,3.3,1.5c1.3,1.5,2.2,3.3,3,5c1,2,1.7,4.1,2.5,6.1
			c1,2.3,2,4.6,2.8,7c0.8,2.3,1.5,4.6,2.2,7c1.3,4.6,2.2,9.3,2.6,14.1c0.8,8.8,0.2,17.9-3.5,26.2c-1.8,4-4.1,7.6-7.1,10.8
			c-3.3,3.5-7.3,6.3-11.4,8.4c-7.8,4-16.6,5.8-25.2,4.3c-5.1-0.8-10.4-2.8-14.6-6.1c-0.8-0.7-1.5-1.3-2-2
			C62.4,95.7,61.4,93.4,62.4,91.4z"/>
		<path class="st2" d="M109.9,6.3c1.3,3.6,2.6,7.3,4,11.1c0.2,0.5,0.3,1,0.5,1.5c0,0.2-1.3,0.7-1.5,0.5c-1.3-3.6-2.6-7.3-4-11.1
			c-0.2-0.5-0.3-1-0.5-1.5C108.4,6.4,109.9,5.9,109.9,6.3z"/>
		<path class="st3" d="M115.1,38.6c2,0,3.5,1.5,3.8,3.5c0.5,2.5-0.5,5.1-2.3,6.8c-1.5,1.3-3.6,1.8-5.3,0.7c-2.2-1.5-2-4.6-1.2-6.8
			C110.9,40.7,112.7,38.7,115.1,38.6z"/>
		<path class="st3" d="M112.4,54.5c3.3,0,5.8,2.6,6.5,5.6c0.8,3.8-0.8,7.9-3.6,10.4c-2.5,2.2-6.1,3-8.8,0.8c-3.3-2.5-3.5-7.3-2-10.8
			C105.8,57.4,108.8,54.5,112.4,54.5z"/>
		<path class="st3" d="M92.9,78c2.3-2.5,6.1-4,9.4-2.8c3.1,1.2,4.6,4.3,4.3,7.5c-0.5,3.8-3.3,7.1-6.8,8.4c-3,1-6.5,0.5-8.4-2.2
			C88.9,85.6,90.2,80.9,92.9,78z"/>
		<path class="st3" d="M77.3,88.4c2-1,4.5-1.5,6.5-0.3c1.8,1.2,2.2,3.3,1.3,5.3c-1,2.3-3.6,4-6.1,4.1c-2,0.2-4-0.5-4.8-2.5
			C73,92.4,75.2,89.6,77.3,88.4z"/>
	</g>
</g>
</svg>
