<svg xmlns="http://www.w3.org/2000/svg" width="51.506" height="35.658" viewBox="0 0 51.506 35.658">
  <g id="Group_1091" data-name="Group 1091" transform="translate(-743.525 -7046.671)">
    <path id="Path_5" data-name="Path 5" d="M54.46,10.39,41.138,23.96a.239.239,0,0,0,0,.347l9.323,9.93a1.607,1.607,0,0,1,0,2.278,1.614,1.614,0,0,1-2.278,0L38.9,26.622a.254.254,0,0,0-.359,0l-2.266,2.3a9.969,9.969,0,0,1-7.107,3,10.169,10.169,0,0,1-7.255-3.083l-2.179-2.216a.254.254,0,0,0-.359,0l-9.286,9.893a1.614,1.614,0,0,1-2.278,0,1.607,1.607,0,0,1,0-2.278l9.323-9.93a.264.264,0,0,0,0-.347L3.8,10.39a.244.244,0,0,0-.421.173V37.716a3.974,3.974,0,0,0,3.962,3.962H50.919a3.974,3.974,0,0,0,3.962-3.962V10.563A.248.248,0,0,0,54.46,10.39Z" transform="translate(740.15 7040.651)" fill="#fff"/>
    <path id="Path_6" data-name="Path 6" d="M28.481,30.545a6.731,6.731,0,0,0,4.841-2.031L52.748,8.742A3.891,3.891,0,0,0,50.3,7.875H6.677a3.866,3.866,0,0,0-2.452.867L23.652,28.515A6.732,6.732,0,0,0,28.481,30.545Z" transform="translate(740.797 7038.796)" fill="#fff"/>
  </g>
</svg>
