<svg xmlns="http://www.w3.org/2000/svg" width="24.697" height="24.298" viewBox="0 0 24.697 24.298">
  <g id="Group_953" data-name="Group 953" transform="translate(0)">
    <g id="Group_3" data-name="Group 3" transform="translate(0)">
      <path id="Path_17" data-name="Path 17" d="M-279.787,923.85l2.374,6.4H-281.4V923.2Z" transform="translate(302.11 -905.957)" fill="#fff"/>
      <path id="Path_18" data-name="Path 18" d="M-403.711,788.95c.376,0,.658.2.658.374s-.282.374-.658.374h-16.041c-.376,0-.658-.2-.658-.374s.282-.374.658-.374h1.98l.043-.373c.338-3,1.243-6.028,2.5-6.028a1.651,1.651,0,0,1,.986.446,4.8,4.8,0,0,0,2.507.981h.032a4.55,4.55,0,0,0,2.379-.984,1.621,1.621,0,0,1,.982-.461c1.238,0,2.145,3.038,2.495,6.048l.044.371Z" transform="translate(424.08 -782.53)" fill="#fff"/>
      <path id="Path_19" data-name="Path 19" d="M-395.648,962.41v2.248h-15V962.41h15Z" transform="translate(415.516 -940.361)" fill="#fff"/>
      <path id="Path_20" data-name="Path 20" d="M-294.753,917.817V921.8h-.907V917.45Z" transform="translate(314.622 -900.912)" fill="#fff"/>
      <path id="Path_21" data-name="Path 21" d="M-384.884,910.294V915.3H-396.39v-5.025l.78-.314.523-.2c.4,2.539,4.028,4.433,4.191,4.517l.192.1.193-.1c.164-.085,3.861-2.018,4.2-4.6l.407.2Z" transform="translate(403.004 -894.094)" fill="#fff"/>
      <path id="Path_22" data-name="Path 22" d="M-379.977,847.86V851.1a7.318,7.318,0,0,1-.821,2.459,4.432,4.432,0,0,1-4.11,2.423,4.449,4.449,0,0,1-3.964-2.414,8.439,8.439,0,0,1-.967-2.485V847.86Z" transform="translate(397.257 -839.852)" fill="#fff"/>
      <path id="Path_23" data-name="Path 23" d="M-371.938,909.538a5.275,5.275,0,0,1-1.747,2.308,12.243,12.243,0,0,1-1.743,1.2,12.309,12.309,0,0,1-1.743-1.2,4.822,4.822,0,0,1-1.809-2.6,5.057,5.057,0,0,0,3.6,1.443A5.329,5.329,0,0,0-371.938,909.538Z" transform="translate(387.728 -893.717)" fill="#fff"/>
      <path id="Path_24" data-name="Path 24" d="M-409.742,917.32v4.686h-.908v-4.32Z" transform="translate(415.516 -900.798)" fill="#fff"/>
      <path id="Path_25" data-name="Path 25" d="M-446.325,927.892v2.248h-4.025l2.374-6.4,1.651-.666v4.822Z" transform="translate(450.35 -905.843)" fill="#fff"/>
    </g>
  </g>
</svg>
