<svg xmlns="http://www.w3.org/2000/svg" width="45.396" height="40.352" viewBox="0 0 45.396 40.352">
  <path id="Icon_awesome-shopping-cart" data-name="Icon awesome-shopping-cart" d="M41.622,23.747,45.348,7.355A1.892,1.892,0,0,0,43.5,5.044H12.547l-.722-3.532A1.891,1.891,0,0,0,9.972,0H1.891A1.891,1.891,0,0,0,0,1.891V3.152A1.891,1.891,0,0,0,1.891,5.044H7.4l5.536,27.067a4.414,4.414,0,1,0,5.284.675H34.742a4.412,4.412,0,1,0,5.012-.82l.435-1.913a1.892,1.892,0,0,0-1.844-2.311H17.19l-.516-2.522h23.1A1.891,1.891,0,0,0,41.622,23.747Z" fill="#754d00"/>
</svg>
