<svg xmlns="http://www.w3.org/2000/svg" width="257.844" height="352.699" viewBox="0 0 257.844 352.699">
  <g id="Group_932" data-name="Group 932" transform="translate(-1194.138 -3403.228)">
    <path id="Icon_metro-steps" data-name="Icon metro-steps" d="M9.045,0C4.05,0,0,5.052,0,11.284c0,3.467,1.132,7.145,2.261,12.822C3.146,28.554,5.3,32.24,9.045,32.24S15.3,29.782,15.3,25.29c0-1.53-1.661-3.967-1.735-6.046-.134-3.751,3.321-5.248,3.321-8.715C16.888,4.3,14.04,0,9.045,0ZM33.451,12.9c-4.995,0-7.843,4.3-7.843,10.528,0,3.467,3.455,4.964,3.321,8.715-.074,2.079-1.734,4.517-1.734,6.046,0,4.492,2.511,6.95,6.257,6.95S39.35,41.45,40.235,37C41.364,31.325,42.5,27.647,42.5,24.18,42.5,17.948,38.446,12.9,33.451,12.9Z" transform="translate(1430.792 3463.031) rotate(-152)" fill="#aea1a1"/>
    <path id="Icon_metro-steps-2" data-name="Icon metro-steps" d="M8.208,0C3.675,0,0,4.989,0,11.142,0,14.566,1.027,18.2,2.052,23.8c.8,4.392,2.756,8.031,6.156,8.031s5.678-2.427,5.678-6.863c0-1.511-1.507-3.917-1.574-5.971-.122-3.7,3.014-5.182,3.014-8.605C15.326,4.243,12.741,0,8.208,0ZM30.357,12.734c-4.533,0-7.118,4.243-7.118,10.4,0,3.424,3.136,4.9,3.014,8.605-.067,2.053-1.574,4.46-1.574,5.971,0,4.436,2.278,6.863,5.678,6.863s5.354-3.64,6.156-8.031c1.025-5.606,2.052-9.238,2.052-12.662,0-6.154-3.675-11.142-8.208-11.142Z" transform="translate(1386.75 3528.881) rotate(-158)" fill="#aea1a1"/>
    <path id="Icon_metro-steps-3" data-name="Icon metro-steps" d="M9.042,0C4.048,0,0,5.367,0,11.987c0,3.683,1.132,7.591,2.26,13.622C3.145,30.334,5.3,34.25,9.042,34.25S15.3,31.639,15.3,26.866c0-1.625-1.66-4.214-1.734-6.423-.134-3.985,3.319-5.575,3.319-9.258C16.882,4.564,14.034,0,9.042,0Zm24.4,13.7c-4.993,0-7.84,4.564-7.84,11.185,0,3.683,3.454,5.273,3.319,9.258-.074,2.209-1.734,4.8-1.734,6.423,0,4.772,2.51,7.383,6.255,7.383s5.9-3.916,6.781-8.641c1.129-6.031,2.26-9.938,2.26-13.622,0-6.62-4.048-11.987-9.042-11.987Z" transform="matrix(-0.848, -0.53, 0.53, -0.848, 1331.844, 3618.059)" fill="#aea1a1"/>
    <path id="Icon_metro-steps-4" data-name="Icon metro-steps" d="M9.042,0C4.048,0,0,5.367,0,11.987c0,3.683,1.132,7.591,2.26,13.622C3.145,30.334,5.3,34.25,9.042,34.25S15.3,31.639,15.3,26.866c0-1.625-1.66-4.214-1.734-6.423-.134-3.985,3.319-5.575,3.319-9.258C16.882,4.564,14.034,0,9.042,0Zm24.4,13.7c-4.993,0-7.84,4.564-7.84,11.185,0,3.683,3.454,5.273,3.319,9.258-.074,2.209-1.734,4.8-1.734,6.423,0,4.772,2.51,7.383,6.255,7.383s5.9-3.916,6.781-8.641c1.129-6.031,2.26-9.938,2.26-13.622,0-6.62-4.048-11.987-9.042-11.987Z" transform="matrix(-0.891, -0.454, 0.454, -0.891, 1249.438, 3680.368)" fill="#aea1a1"/>
    <path id="Icon_metro-steps-5" data-name="Icon metro-steps" d="M9.042,0C4.048,0,0,5.367,0,11.987c0,3.683,1.132,7.591,2.26,13.622C3.145,30.334,5.3,34.25,9.042,34.25S15.3,31.639,15.3,26.866c0-1.625-1.66-4.214-1.734-6.423-.134-3.985,3.319-5.575,3.319-9.258C16.882,4.564,14.034,0,9.042,0Zm24.4,13.7c-4.993,0-7.84,4.564-7.84,11.185,0,3.683,3.454,5.273,3.319,9.258-.074,2.209-1.734,4.8-1.734,6.423,0,4.772,2.51,7.383,6.255,7.383s5.9-3.916,6.781-8.641c1.129-6.031,2.26-9.938,2.26-13.622,0-6.62-4.048-11.987-9.042-11.987Z" transform="matrix(-0.995, -0.105, 0.105, -0.995, 1236.386, 3755.927)" fill="#aea1a1"/>
  </g>
</svg>
