<svg xmlns="http://www.w3.org/2000/svg" width="218.441" height="237.854" viewBox="0 0 218.441 237.854">
  <path id="Icon_awesome-clipboard-check" data-name="Icon awesome-clipboard-check" d="M191.136,29.732H145.628C145.628,13.333,129.3,0,109.221,0S72.814,13.333,72.814,29.732H27.305C12.23,29.732,0,39.72,0,52.031V215.555c0,12.311,12.23,22.3,27.305,22.3H191.136c15.075,0,27.305-9.988,27.305-22.3V52.031C218.441,39.72,206.211,29.732,191.136,29.732ZM109.221,18.582c7.566,0,13.653,4.971,13.653,11.149s-6.087,11.149-13.653,11.149S95.568,35.91,95.568,29.732,101.655,18.582,109.221,18.582Zm68.946,107.685L96.82,192.142a7.958,7.958,0,0,1-9.671-.046L40.161,153.4a4.891,4.891,0,0,1,.057-7.9l16.156-13.1a7.958,7.958,0,0,1,9.671.046L92.212,154l60.3-48.872a7.958,7.958,0,0,1,9.671.046l16.042,13.193A4.891,4.891,0,0,1,178.166,126.267Z" fill="#91c359"/>
</svg>
