<svg xmlns="http://www.w3.org/2000/svg" width="39.739" height="39.739" viewBox="0 0 39.739 39.739">
  <path id="Icon_awesome-plus-circle" data-name="Icon awesome-plus-circle" d="M20.432.562A19.869,19.869,0,1,0,40.3,20.432,19.866,19.866,0,0,0,20.432.562ZM31.969,22.675a.964.964,0,0,1-.961.961H23.637v7.371a.964.964,0,0,1-.961.961H18.189a.964.964,0,0,1-.961-.961V23.637H9.856a.964.964,0,0,1-.961-.961V18.189a.964.964,0,0,1,.961-.961h7.371V9.856a.964.964,0,0,1,.961-.961h4.487a.964.964,0,0,1,.961.961v7.371h7.371a.964.964,0,0,1,.961.961Z" transform="translate(-0.563 -0.563)"/>
</svg>
