<svg id="Icon_ionic-ios-close-circle-outline" data-name="Icon ionic-ios-close-circle-outline" xmlns="http://www.w3.org/2000/svg" width="60.425" height="60.425" viewBox="0 0 60.425 60.425">
  <path id="Path_5428" data-name="Path 5428" d="M34.949,31.672l-7.655-7.655,7.655-7.655a2.321,2.321,0,0,0-3.283-3.283l-7.655,7.655L16.357,13.08a2.321,2.321,0,0,0-3.283,3.283l7.655,7.655-7.655,7.655a2.244,2.244,0,0,0,0,3.283,2.306,2.306,0,0,0,3.283,0L24.012,27.3l7.655,7.655a2.332,2.332,0,0,0,3.283,0A2.306,2.306,0,0,0,34.949,31.672Z" transform="translate(6.201 6.195)"/>
  <path id="Path_5429" data-name="Path 5429" d="M33.587,7.442A26.15,26.15,0,0,1,52.078,52.078,26.15,26.15,0,0,1,15.1,15.1,25.972,25.972,0,0,1,33.587,7.442m0-4.067A30.212,30.212,0,1,0,63.8,33.587,30.208,30.208,0,0,0,33.587,3.375Z" transform="translate(-3.375 -3.375)"/>
</svg>
