<svg xmlns="http://www.w3.org/2000/svg" width="804.244" height="1277.292" viewBox="0 0 804.244 1277.292">
  <path id="Path_5663" data-name="Path 5663" d="M503.536,319.013c-9.971-39.8,26.031-79.7,68.932-92.891s89.957-6.24,134.177,2.744c70.662,14.355,141.724,34.283,199.612,73.461s101.072,100.784,98.329,165.928c-5.451,129.717-181.446,227.6-153.321,354.932,12.162,55.069,60.75,97,89.181,146.986,85.779,150.853-99.117,457-289.358,292.308-48.787-42.239-61.561-107.077-71.768-167.306-41.641-245.545-83.365-491.916-89.4-740.237-1.9-77.678.2-157.644,33.294-229.41" transform="matrix(0.966, 0.259, -0.259, 0.966, -133.742, -247.923)" fill="#f5f3ee" opacity="0.6"/>
</svg>
