<?xml version="1.0" encoding="utf-8"?>
<!-- Generator: Adobe Illustrator 21.1.0, SVG Export Plug-In . SVG Version: 6.00 Build 0)  -->
<svg version="1.1" id="圖層_1" xmlns="http://www.w3.org/2000/svg" xmlns:xlink="http://www.w3.org/1999/xlink" x="0px" y="0px"
	 viewBox="0 0 54 54" style="enable-background:new 0 0 54 54;" xml:space="preserve">
<style type="text/css">
	.st0{fill:none;}
	.st1{fill:#FFBC53;}
</style>
<rect class="st0" width="54" height="54"/>
<g id="Group_1097" transform="translate(-5.895 -4.532)">
	<path id="Path_27" class="st1" d="M22.5,31.5c0.4,0,0.8-0.3,0.8-0.8c0-0.1,0-0.2,0-0.2c-1-3-0.8-6.2,0.5-9.1c0.2-0.4,0-0.8-0.3-1
		c-0.4-0.2-0.8,0-1,0.3c-1.5,3.2-1.7,6.9-0.6,10.3C21.9,31.3,22.2,31.5,22.5,31.5z"/>
	<path id="Path_28" class="st1" d="M14.5,38.2c0,0,0.1,0,0.1,0l0.9-0.1c0,0.1,0,0.3,0,0.4c0,6.7,5.3,12.2,12,12.2h8.8
		c6,0,11.1-4.5,11.9-10.4c1.1,0.1,1.4,0.2,1.7-0.2c0.5-0.5,0-1.1-0.3-1.5c-0.2-0.2-0.5-0.6-0.9-0.9l-0.2-0.2l0.5-0.1
		c0.5-0.1,0.9-0.1,1.2-0.2c0.2,0,0.3-0.1,0.4-0.1c0.6-0.1,0.7-0.5,0.7-0.8c0-0.5-0.4-0.7-0.8-0.9c-0.2-0.1-0.5-0.2-0.8-0.4
		c-0.2-0.1-0.4-0.2-0.4-0.2c-0.2-0.1-0.3-0.2-0.5-0.3l1.1-0.2c0.4-0.1,0.7-0.5,0.6-0.9c-0.1-0.2-0.2-0.4-0.5-0.5l-6.7-2.7
		c0.1-2.3-0.3-4.6-1.3-6.7c-0.5-1.3-1.3-2.4-2.4-3.4c0,0,0-0.1,0-0.1c-0.8-3.2-2.8-7-5.6-7.1c-1.3,0-2.6,0.7-3.8,2.3
		c-0.8,1.1-1.4,2.2-1.9,3.4c-1.3-1.4-2.7-2.1-4-2.1c-0.2,0-0.3,0-0.5,0c-1.9,0.3-3.5,2.1-4.5,5.2c-0.8,2.5-1.1,5.2-0.8,7.8
		c0.1,0.3,0.1,0.7,0.2,1l-4.3,0.8c-0.6,0.1-1,0.6-1,1.2c0,0.6,0.4,1.1,1,1.2l1.5,0.4l-2.5,2c-0.5,0.3-0.6,1-0.3,1.5
		C13.6,38,14,38.2,14.5,38.2z M36.4,49.3h-8.8C21.7,49.2,17,44.4,17,38.5c0-0.2,0-0.3,0-0.5l2.2-0.1c-0.1,0.2-0.2,0.4-0.2,0.6
		c-0.7,1.7-0.9,2.2-0.5,2.6c0.3,0.3,0.5,0.3,2.2,0c0.8-0.1,1.8-0.3,3.2-0.6c1.8-0.3,3.7-0.7,4.3-0.8l3.4,1.6
		c0.2,0.1,0.4,0.1,0.6,0.1c0.3,0,0.7-0.1,0.9-0.3l1.8-1.5l6.8,1.9c0.1,0,0.2,0,0.4,0.1h0c0.3,0,0.6-0.1,0.8-0.3
		c0.4-0.3,0.6-0.8,0.4-1.3l-0.2-0.5c0.7,0.1,1.5,0.2,2.4,0.4c0.4,0.1,0.9,0.1,1.2,0.2C46.1,45.3,41.6,49.2,36.4,49.3z M40.9,24.2
		c0.9,1.9,1.2,4,1.1,6.1c-0.2,1.6-0.9,3-2.1,4.1c-2.2,2-5.6,1.8-7.5-0.4c-0.1-0.2-0.3-0.3-0.4-0.5c0.9-1.8,1.3-3.8,1-5.8
		c-0.1-0.9-0.4-1.8-0.7-2.6c1.2-2.3,3.3-4.5,5.1-4.3C38.7,20.8,39.9,22.1,40.9,24.2L40.9,24.2z M31.7,16.2c0.6-0.8,1.5-1.7,2.6-1.7
		c1,0,1.8,1,2.4,1.7c0.6,0.9,1.1,1.9,1.4,3c-0.2,0-0.3-0.1-0.5-0.1c-2.4-0.2-4.5,1.7-6,4c-0.4-0.9-0.9-1.8-1.5-2.6
		c-0.1-0.2-0.2-0.4-0.4-0.5C30.2,18.7,30.9,17.4,31.7,16.2z M21.1,22.3c0.8-2.5,2-4,3.3-4.2c0.1,0,0.2,0,0.3,0
		c1.1,0,2.4,0.9,3.7,2.5l0,0c0.2,0.2,0.4,0.5,0.5,0.8c1.3,1.9,2.2,4.1,2.6,6.4c0.6,3.8-1.5,7.3-4.5,7.7c-0.2,0-0.4,0-0.7,0l0,0
		c-2.9,0-5.4-2.6-5.9-6.2C20.1,27,20.3,24.6,21.1,22.3L21.1,22.3z M18.3,34.3c0.3-0.3,0.4-0.7,0.1-1.1c-0.1-0.1-0.3-0.2-0.4-0.3
		l-1.6-0.4l3.1-0.6c1.3,3,3.9,5,6.7,5l0,0c0.3,0,0.6,0,0.9-0.1c1.6-0.2,3-1.1,4-2.3c2.4,2.9,6.7,3.3,9.6,0.9
		c0.1-0.1,0.1-0.1,0.2-0.2c1.1-1,1.9-2.2,2.3-3.7l4.1,1.7l-0.6,0.1c-0.4,0.1-0.7,0.5-0.6,0.9c0,0.2,0.2,0.4,0.3,0.5l0.1,0.1
		c0.5,0.3,1.2,0.7,1.7,1c-0.6,0.1-1.2,0.2-1.4,0.2c-0.4,0-0.7,0.3-0.7,0.8c0,0.2,0.1,0.4,0.2,0.5c0.4,0.4,0.8,0.8,1.2,1.2
		c-1.4-0.2-3.5-0.5-5.5-0.8c-0.4-0.1-0.8,0.2-0.9,0.6c0,0.1,0,0.2,0,0.4l0.4,1.1l-6.8-1.9c-0.2-0.1-0.5,0-0.7,0.2l-2,1.7l-3.6-1.7
		c-0.1-0.1-0.3-0.1-0.5-0.1c-2.5,0.5-6.2,1.2-8,1.5c0.3-0.6,0.6-1.5,1-2.3c0.2-0.4,0-0.8-0.4-1c-0.1,0-0.2-0.1-0.3-0.1l-5,0.3
		L18.3,34.3z"/>
	<path id="Path_29" class="st1" d="M37.9,22.3c-0.4,0.2-0.5,0.7-0.2,1c0,0,0,0,0,0c0,0,2.4,3.9,2,7.3c-0.1,0.4,0.2,0.8,0.7,0.8
		c0,0,0,0,0,0c0,0,0.1,0,0.1,0c0.4,0,0.7-0.3,0.7-0.7c0.5-4-2.1-8.1-2.2-8.3C38.7,22.1,38.3,22,37.9,22.3z"/>
</g>
</svg>
