<?xml version="1.0" encoding="utf-8"?>
<!-- Generator: Adobe Illustrator 21.1.0, SVG Export Plug-In . SVG Version: 6.00 Build 0)  -->
<svg version="1.1" id="圖層_1" xmlns="http://www.w3.org/2000/svg" xmlns:xlink="http://www.w3.org/1999/xlink" x="0px" y="0px"
	 viewBox="0 0 10.2 8.6" style="enable-background:new 0 0 10.2 8.6;" xml:space="preserve">
<style type="text/css">
	.st0{fill:none;}
	.st1{fill:#FFFCFB;}
</style>
<rect x="-5.3" y="-5" class="st0" width="20.2" height="18.2"/>
<g id="check">
	<path id="Icon_ionic-ios-checkmark" class="st1" d="M9.6,1.6L8.8,0.8L8.7,0.7l0,0c0,0-0.1,0-0.1,0.1L3.4,6.1L1.5,4.2
		c-0.1-0.1-0.2-0.1-0.2,0l0,0L0.5,5c-0.1,0.1-0.1,0.2,0,0.2l0,0l2.4,2.4C3,7.7,3.2,7.8,3.4,7.8s0.4-0.1,0.5-0.2l0,0l5.7-5.8
		C9.7,1.8,9.7,1.7,9.6,1.6z"/>
</g>
</svg>
