<?xml version="1.0" encoding="utf-8"?>
<!-- Generator: Adobe Illustrator 21.1.0, SVG Export Plug-In . SVG Version: 6.00 Build 0)  -->
<svg version="1.1" id="圖層_1" xmlns="http://www.w3.org/2000/svg" xmlns:xlink="http://www.w3.org/1999/xlink" x="0px" y="0px"
	 viewBox="0 0 30.5 19.7" style="enable-background:new 0 0 30.5 19.7;" xml:space="preserve" width="20" height="20">
<style type="text/css">
	.st0{fill:#6B2F07;}
</style>
<path id="Icon_awesome-angle-up" class="st0" d="M13.6,19L0.7,6.1c-0.9-0.9-0.9-2.3,0-3.2c0,0,0,0,0,0l2.1-2.1
	c0.9-0.9,2.3-0.9,3.2,0c0,0,0,0,0,0l9.2,9.2l9.2-9.2c0.9-0.9,2.3-0.9,3.2,0c0,0,0,0,0,0l2.2,2.1c0.9,0.9,0.9,2.3,0,3.2c0,0,0,0,0,0
	L16.8,19C16,19.9,14.5,19.9,13.6,19C13.6,19,13.6,19,13.6,19L13.6,19z"/>
</svg>
